<mxfile host="app.diagrams.net" modified="2023-09-04T11:50:47.653Z" agent="Mozilla/5.0 (Windows NT 10.0; Win64; x64) AppleWebKit/537.36 (KHTML, like Gecko) Chrome/116.0.0.0 Safari/537.36 Edg/116.0.1938.62" etag="hAiU_bhiLVcK8xD237Kn" version="21.7.1" type="github">
  <diagram name="第 1 页" id="dxsFGwM_7Q7YrUQ2f1vv">
    <mxGraphModel dx="1781" dy="2147" grid="1" gridSize="10" guides="1" tooltips="1" connect="1" arrows="1" fold="1" page="1" pageScale="1" pageWidth="827" pageHeight="1169" math="0" shadow="0">
      <root>
        <mxCell id="0" />
        <mxCell id="1" parent="0" />
        <mxCell id="IPHe7rW7irAd3t1fSApu-64" value="" style="rounded=0;whiteSpace=wrap;html=1;hachureGap=4;fontFamily=Architects Daughter;fontSource=https%3A%2F%2Ffonts.googleapis.com%2Fcss%3Ffamily%3DArchitects%2BDaughter;fontSize=20;dashed=1;dashPattern=8 8;fillColor=#f5f5f5;fontColor=#333333;strokeColor=#666666;" vertex="1" parent="1">
          <mxGeometry x="1230" y="230" width="180" height="380" as="geometry" />
        </mxCell>
        <mxCell id="IPHe7rW7irAd3t1fSApu-6" style="edgeStyle=orthogonalEdgeStyle;rounded=0;hachureGap=4;orthogonalLoop=1;jettySize=auto;html=1;entryX=-0.002;entryY=0.547;entryDx=0;entryDy=0;entryPerimeter=0;fontFamily=Architects Daughter;fontSource=https%3A%2F%2Ffonts.googleapis.com%2Fcss%3Ffamily%3DArchitects%2BDaughter;fontSize=16;" edge="1" parent="1" source="IPHe7rW7irAd3t1fSApu-1" target="IPHe7rW7irAd3t1fSApu-4">
          <mxGeometry relative="1" as="geometry" />
        </mxCell>
        <mxCell id="IPHe7rW7irAd3t1fSApu-67" style="edgeStyle=orthogonalEdgeStyle;rounded=0;hachureGap=4;orthogonalLoop=1;jettySize=auto;html=1;fontFamily=Architects Daughter;fontSource=https%3A%2F%2Ffonts.googleapis.com%2Fcss%3Ffamily%3DArchitects%2BDaughter;fontSize=16;endArrow=none;endFill=0;" edge="1" parent="1" source="IPHe7rW7irAd3t1fSApu-1">
          <mxGeometry relative="1" as="geometry">
            <mxPoint x="230" y="460" as="targetPoint" />
          </mxGeometry>
        </mxCell>
        <mxCell id="IPHe7rW7irAd3t1fSApu-1" value="" style="rounded=0;whiteSpace=wrap;html=1;hachureGap=4;fontFamily=Architects Daughter;fontSource=https%3A%2F%2Ffonts.googleapis.com%2Fcss%3Ffamily%3DArchitects%2BDaughter;fontSize=20;dashed=1;dashPattern=8 8;fillColor=#f5f5f5;fontColor=#333333;strokeColor=#666666;" vertex="1" parent="1">
          <mxGeometry x="20" y="-150" width="130" height="400" as="geometry" />
        </mxCell>
        <mxCell id="IPHe7rW7irAd3t1fSApu-2" value="" style="verticalLabelPosition=bottom;verticalAlign=top;html=1;shadow=0;dashed=0;strokeWidth=1;shape=mxgraph.android.phone2;strokeColor=#c0c0c0;sketch=1;hachureGap=4;jiggle=2;curveFitting=1;fontFamily=Architects Daughter;fontSource=https%3A%2F%2Ffonts.googleapis.com%2Fcss%3Ffamily%3DArchitects%2BDaughter;fontSize=20;" vertex="1" parent="1">
          <mxGeometry x="65.00000000000001" y="110" width="40" height="75" as="geometry" />
        </mxCell>
        <mxCell id="IPHe7rW7irAd3t1fSApu-3" value="" style="image;points=[];aspect=fixed;html=1;align=center;shadow=0;dashed=0;image=img/lib/allied_telesis/computer_and_terminals/Personal_Computer.svg;sketch=1;hachureGap=4;jiggle=2;curveFitting=1;fontFamily=Architects Daughter;fontSource=https%3A%2F%2Ffonts.googleapis.com%2Fcss%3Ffamily%3DArchitects%2BDaughter;fontSize=20;" vertex="1" parent="1">
          <mxGeometry x="56.54999999999997" y="-110" width="56.9" height="77.12" as="geometry" />
        </mxCell>
        <mxCell id="IPHe7rW7irAd3t1fSApu-37" style="edgeStyle=orthogonalEdgeStyle;rounded=0;hachureGap=4;orthogonalLoop=1;jettySize=auto;html=1;entryX=0.004;entryY=0.23;entryDx=0;entryDy=0;entryPerimeter=0;fontFamily=Architects Daughter;fontSource=https%3A%2F%2Ffonts.googleapis.com%2Fcss%3Ffamily%3DArchitects%2BDaughter;fontSize=16;" edge="1" parent="1" source="IPHe7rW7irAd3t1fSApu-4" target="IPHe7rW7irAd3t1fSApu-30">
          <mxGeometry relative="1" as="geometry" />
        </mxCell>
        <mxCell id="IPHe7rW7irAd3t1fSApu-38" style="edgeStyle=orthogonalEdgeStyle;rounded=0;hachureGap=4;orthogonalLoop=1;jettySize=auto;html=1;entryX=0;entryY=0.75;entryDx=0;entryDy=0;fontFamily=Architects Daughter;fontSource=https%3A%2F%2Ffonts.googleapis.com%2Fcss%3Ffamily%3DArchitects%2BDaughter;fontSize=16;" edge="1" parent="1" source="IPHe7rW7irAd3t1fSApu-4" target="IPHe7rW7irAd3t1fSApu-30">
          <mxGeometry relative="1" as="geometry" />
        </mxCell>
        <mxCell id="IPHe7rW7irAd3t1fSApu-4" value="" style="rounded=0;whiteSpace=wrap;html=1;hachureGap=4;fontFamily=Architects Daughter;fontSource=https%3A%2F%2Ffonts.googleapis.com%2Fcss%3Ffamily%3DArchitects%2BDaughter;fontSize=20;dashed=1;dashPattern=8 8;fillColor=#f5f5f5;fontColor=#333333;strokeColor=#666666;" vertex="1" parent="1">
          <mxGeometry x="310" y="-350" width="700" height="310" as="geometry" />
        </mxCell>
        <mxCell id="IPHe7rW7irAd3t1fSApu-5" value="ws://x.x.x.74/9999" style="text;html=1;align=center;verticalAlign=middle;whiteSpace=wrap;rounded=0;fontSize=20;fontFamily=Architects Daughter;fillColor=#f5f5f5;strokeColor=#FFFFFF;fontColor=#333333;dashed=1;dashPattern=1 4;" vertex="1" parent="1">
          <mxGeometry x="110" y="-240" width="200" height="40" as="geometry" />
        </mxCell>
        <mxCell id="IPHe7rW7irAd3t1fSApu-11" style="edgeStyle=orthogonalEdgeStyle;rounded=0;hachureGap=4;orthogonalLoop=1;jettySize=auto;html=1;fontFamily=Architects Daughter;fontSource=https%3A%2F%2Ffonts.googleapis.com%2Fcss%3Ffamily%3DArchitects%2BDaughter;fontSize=16;" edge="1" parent="1" source="IPHe7rW7irAd3t1fSApu-7" target="IPHe7rW7irAd3t1fSApu-8">
          <mxGeometry relative="1" as="geometry" />
        </mxCell>
        <mxCell id="IPHe7rW7irAd3t1fSApu-13" value="ws--&amp;gt;wss&lt;br&gt;wss://x.x.x.74/9999" style="text;html=1;align=center;verticalAlign=middle;whiteSpace=wrap;rounded=0;fontSize=20;fontFamily=Architects Daughter;fillColor=#FFFFFF;strokeColor=#FFFFFF;fontColor=#333333;dashed=1;dashPattern=1 4;" vertex="1" parent="1">
          <mxGeometry x="430" y="-250" width="160" height="60" as="geometry" />
        </mxCell>
        <mxCell id="IPHe7rW7irAd3t1fSApu-7" value="" style="shape=image;verticalLabelPosition=bottom;labelBackgroundColor=default;verticalAlign=top;aspect=fixed;imageAspect=0;image=data:image/png,iVBORw0KGgoAAAANSUhEUgAAAREAAADiCAYAAABp5fONAAAAAXNSR0IArs4c6QAAIABJREFUeF7svQmYHXd15v2rf61361WSJXm3wRvGYGOwbLwDNsYYmx3MTjYggcy3PAmZmS+TzEyemW++ACGTZBKSkJCME/aEEK8Ys3jfsMF432XZlqxWd9++W+31PefUva22kex0W9iNXVdP60rdVber/lXnrbO85z1WnucF1atagWoFqhVY4QpYFYiscOWq3aoVqFZAV6ACkepGqFagWoFntQIViDyr5Xth7VwUTx/ZWpb1wjrh6mz2yApUILJHlvGF8SEViLwwruNzfRYViDzXK76Kf18FIqv44qziQ6tAZBVfnOf60CoQea5X/IXx+yoQeWFcxz1yFhWI7JFlfNF9SAUiL7pLvvsTrkCkuhlWsgIViKxk1V6g+1Qg8gK9sD/n06pA5Oe8wM/Vx1tanc13/joLyoKtoRhWZkc/NUsOqtyvfBWjDfV/Sz5r+H/LsoffX/oJTz5D+Qj5zNH7053/zt8tB1gsHudztWbV79kzK1CByJ5Zx+f9U6wihySFEZfDtgQ/yLDILHkXtLAwGP3bEqPNc6yiwDEOYsZRmOJ5jn5EluVgCmzbJs9TwqiP5wY4jgCIIUkS4jTD931sI+ACeZEr9MgWo3cFp7xEMduU74vgMQKw8tD0B0/Csed9VasD+LesQAUi/5ZV+gXYRkEkzcSdAGNKSzYg9psKkKidjv6UIEKWieXj4oAYuIHBICHLMpqtgCRLabfncAOXZr1Bt9/DygscxyEIAixsBaQkyYjimHojWPRfloZGpig9FwGnEV1NgaQCkV+AO+uZD7ECkWdeo1+ILUqjzKWRASTsGFqrfFu8kZG9Cnyo35BDkcpfRekZGIvEKnTXwrKwrIK0SIizhDTPKIqMwK8ThSGmsPBdDzs3ZElOzauBYymADJ2O3a6ZGR7IrrmvVS/oL8TN9pSDrEDkF/Gq7eaYNQ+hcPHUgEITHoh3ICDypCTJqInb5IQmxdg2cZHQ6XXITE693sTGEBPrvvLHw9Uvh4I0SnEKG+N5+rESOglQCJjI+9Lw5OkgQrbdCXUvoIvyIjiVCkReIBdZjDUpg4bS05AcxDDVoLiiboJYdblNmYMYbqgJjIwFM6Cb9TGOeDI2W+e38fCWRxQQ1qxZw/577YuDg02BSaBuuTScmiJHGiXYvqfblp7NzvfREktINXo9FVDkUAxDr+gFck1eLKdRgcgL5EqLByC5DzFOAQ/xRRRERgCi70MQKS22zINIDqXIGZiYvkkISVnIe9z78P1ce/ON3H7PXcRJwuTEBKef+joO2e8gDpjclwAHk2XULJemCaAwpJKMLUyZ+xgC1GLPnil/1SjcGYHI0oqRgNPSatEL5NK84E+jApEXyCXOLGvoiSBpUnUybEmPjBKYoxJwkWuIkZuC3NgkpJpA7RGx4PTZ0nmcG26+icuv/D53PXgfhWtTbzQwxqYZNDnulcdyxvGnctTehzFOE4sUohiTWDSDBpaAiIQmmlcpv9T3GeVoluRqcqnGDNd/hGsViPzi3ZAViPziXbNdHnGBRaLGWwKIozmGpXSPTBOmmZURWSmpei4QkRIWCd2ix4XXXsr1t9/M7XffQeJYjK2ZAt/RykuapqRhjoky9pvewMlHb+KUo4/noCnxSlzcAmq5i5uLJ2IpkGgOxbIwS92RJWBSDBFj5I3YVV71F/JurEBklV22f4tmx1OZpaP/x0mGbUomiL6ynLxISfKETP64Btvz6BHTLSKwHAZk3Hj3LVxx7RVcc8f1xF5CYRv1QGT7TPgmQxCIujENt4Yd5nhRwSsOOJyzTn49xx7xCqatFlYvoWF8HGPjWAbPdfEsW/koUX9AENQ1uavnaI8yNyW/RF5Lz2vpOvxb1mSVXcYX1eFUILKKLvczGcsz0dLD/oBava5nlMQxURJiHAvjO8RWTr+IaSd9BiYldAo2z2zlmh/fyHU33ch9Wx/AmbBJnBwcQ+YYcnm3rcUKi2c8wnaXWu4w6Y5BN8ZL4NVHHs1Zx7+OY/Y/nGnTxMcjF9CKY1xjU3ckg2KRZxmWJEVyqRTt/FyjvJadzNqll+SZ1mQVXb4X7aFUILKKLv0zGcyuQGRxn2HOIx4MiLOYRqulLNUBEd08JDeGrhZqCzaHW7nq1hv4/vVXc/eWB8gMuGM+uQ+Zk5EbS78yp9CS7ahMa7BxckOQO9hhQdTuk/dipmpNNrbWcuZRr+XlBx7KkYcezhQTAmVkeUoNl8CURWGhp0nyVbOsi+WaIY3eKWOxZwLLVXTJqkOpNFZX1z2wFER2ZUi7c/fLxGVBEodYtoVlG7XPHiELWZ/UlgDH4XF2cMv9t3Pptd/npjt/rCFNc2oMpx4wyGNCInIjiVeLTBKvwvtQ+x4mK+KEemMMK8oZzPeY8Jusm1zDoN1j6z0Ps3cwzWF7H8CrjzqaY486hkPWHMQYDeRo5NgmvBYuNnZhISxWy5IUcPnxeZJhvCUkuWeQalxdV+7FfTSVJ7KKrv8IRJaCxe7+XQLHTt5nYeXE+QDbdtTf2BF2MIGPweXh/HFuuvs2bnv4Lq677Wbue/xh6tPjjK2bpJcO6IYDCgfNhShoWBJqiBci2VnJV0gZuMByPYpBCHGOMS414+M6Dr7xqFseg8fnKboxTS/gqJcewSnHnsCrDnsF6800HpYCiFcYreSYzCJwfGW+yiuNM2x39419q+gyVYfylBWoQGQV3RJPBREBkKfzSJb+LFO2KSwUXQZZgu80GJBy6/bS87jxrlu4f/sWqHvUp1vYDYf2oEe708byDK3JCfpxIkyNkkMieVlL/JlhPw4Zfr1F1OlowtYJGpjcEA9CbeCbak5gxwV5NybtR/ipYa/mFEcdeAQnHnWsvu/jrqemdDWHoki0PBS4gTJii0x/82I5aWdpuBKHXkW36C4PpQKRVXSFdgciI7CQn4+AZem7JlJNQidbYGBHOF6NNj2+e/1VfP2yb/PgzKPU9hojsgvMmMsgi5jtzWE5NuOTY9ov0+52wK6BVVJNS2KrpkehKMHEMi6SBJXfnefg2Q6O4xENYrKFDl69RcOrExSO5kvCbXOMW3WO2v9wjj7wCE54xXEcsHYjG/29NDuSZam+u8bHFsBMpcsnfxLHZCnXZBVdqupQlqxABSJ78HbYHVHqye3tS5vky18u++WSa1zsHhHm5pC9me/89+hzUgqyIidVEy/IKYjsWAFkgQE/vv82LrziUm6556dETo7V9OlbEabh0c9jEls8CYesKLSCI2DheAFF7uoxCI5oqsLKtfFOvkYvMercEs9h1DHs4LiudvYq76w/oIgzGsalXrjQyygWYtwwZ9MRr+a4I49l08uPZf3YOpzUwi9cfNunZhzsKNV8SQkctgKWAuvoeBYb/KQHqPRaNOIaZm0KyyxKEIz0VZb6MTtpKE9SVFlkyY54K3vwlnhRfFQFInvoMpfM0KES0AhNNJ+wpEdFuRBikEPjGOU08oLEFCQYBCAkf+BglDCmGdIk1xAC1ylzFK4hImEu7mrJtnAt8F2+9/DVfO+WK7n1J7cySEPchq+AkZoCK7Dp5ZFWW1LRGVHQGiVO5SCNduWOBIV2LkvJcF36elKnrlRahqw2ocFr1UWdmEI/zy5svMzCz22sXkHejjl8v0N4+xvO4YQjjlP6vJVarHEatGKXIBfwsEtKfokTWswRGq6Q46Q/qChybCvHVWq/VHly7TROXSktSxaoKKn/yj8ZQszwrbxEpU6CJYC1VJJAK1EV4225JlGByHJXbDfbL4JI+QwfgsfuQERyl4vtcbptRk5fnvwYPAGTOIQwo+nVdxKzohAaHpGV8PDsNmpT42pdt8/dw99/+x+5P3qULe3HGQx6NMaa1Fo1enGfdq9LmEX4jbp6PCpSpO8jACgRZdcgslP2Y3TqP9Pu/yQQEWbszjKtSg/kBjd3GXMb2CFkcwMaua+eyZtOeQOHbXwptdymvgBrgzHqfq38pfKVlscrdi/JX+0jHK5YCRZlc5DgRWi0NVAhwpN/ScwlPx/ReCUME09qCCIiaaDSBEsaeCoQWb5BVCCy/DXb7R5Pkhr8mXxgGevvzG+IcMeS532Rqoeg3yoKXMtgiiGrM8tJ8hg8w9ygQ1ZzyHF4MHmMS678Ltf9+Ca2R7M8kc5qI51tW3g1H+NaRFlMnCbaI2M8d+iBmCH/w5QNcUPRIKGd/6wnsjwQkY/Lh96IhEMlBd9WICHMma6NK4D0nmgTz/TYb90+vO61p3LKMa/lqOnDte8njxPsNFdCmycdxVoCLjBeSVAT50yyNtL1KwGMtB0KDsTD1kM5D7vIMXIcS7zB0b4jxaZFEBlFa6qlUnkiyzWJCkSWu2JPs702tj3l50ujb9UTG7n78nQc3a+aqMyxHItu2BUmBbWgpp80SCINTZyaT0zGgJw5uty6+Xb+5fuX8sObr9NemOn91pFLV76dEiURYdjXxjrbs/ECFxybKIkVNErTKxmio+xC6UCVeZinhi+LTXLD8GuXnsjQcCUJuxRE5GOVpIalXlV/pkMDj/UTa8k7MbNbnqBVa3LY/odx6qbTOOqgIzi0dRC+tPb1O1rlmWyMlxKMeQlQUjWSfI4lYZoe0zDPJK6KhILStzNqOBwmTQojOaSyy1nOXf5Ig6LqmIxARMrcFYgs2yIqEFn2ku16h/IpV2qMjjKBSrnQ2Lx0S0ad97KR3vsjb0VTCakyTTVZKHwNC/pprA1yVuCqFNBWdnDv9s384EdXc8WPrubR+Sdwxn2chk+Yx2iZ1y29lzSLNeHqyv9NoZKHJYCUxzdy6UeF1RJEhj0sT/GilgMimiSWdK9UW8QLMKWiq3xk028QLnRJezEtp8aa5oQ27y3MtpnZNsvaqX049shjOP3Y13L0/oeyD9OMCc81zbRsLPsX0oszZNGOAFvBRKBX8i7a+Dd8yYFr+kM6lnPiJbJHclRuBSJ75O6vQGSPLOMwzzAEkdJsyvt3BCKKGSVna7EJTZ0RMbo8VzHkJB3gBZ7yPBbCPs5YgMFnG3Pc9ug9Shi79vYbuOvR+zATAcF0i34aMsgjHN+l2+lgbEsrJdqOIqGAAEoaE8cxnlcSu0qxAAENe6hAVlY1pFlvV6rrIxDRHpddSSAOk5YSQpQgMgSQYYVnUQdgENIYGyewbDpzbYp+QqtW17Jwnlks9FLSXs56f5yTj3wV5x7/Bl6z/kgaOAw6C7qdcFKMCkvvbOATb0S8N/EozFJXcAjUEq2lJlf5xxGIapiVW0irkFEB2kKXpRKKXr5BVCCy/DXb5R6lonrpiYxARGWMF13rodc9BBI1NSPhTaYgkhUpuZ0TW6l6IH0rIfUttg3aXPWT6/nhT67nmp/ejDPp4UzVIbBIRNKQSD0Y6ZT1/AZZkqrXIfauORjJIEiZeIm2h1G3vwQReYkGiBhP+ixBRDXjRY9Vw7oyRihK3UM1UunqTaOIIsvxjNDfJf+RasevcFuyIiBaiPAGGWvsBgeNbeDo/Q7j5KM2cfSBR5LGCYEV4DsenuUqdd5khXJNNEApkyU7PTw5AImC5NxsqeyUuZPhtxVAFERG36xAZEXWUIHIipbtZ3cq5QnlGSz37dATGWX/R5WGRQZ5+aTObbmpM9IiV13TwrNoJz1Sp6Bvpdz6wJ1cdM3l/Oi+nzKXdbEnatA0ZB700p7mSjTN6NpYwt3IbYhL45WwRoAjS6Tl38J1XTVe/dkQRAQ8ykdvCSLiDalQ0G7CmWfyREoQKbMOpTcyApGhOpLKAKgvU3ppkvxUyBXjd7CcBk7hUEttTCcm3NpmrAh4zeHHcNIxx7HpqE3UjUfLalDHxy0MTgJuJmtuY9vuzpLtMKbREE4ARMdnKKQueokSzlQg8uwNoAKRZ7+G5RNXPZHyUVj2qg5LLWK3oztXDChDvQ7jSyiRqSBQkiWEdkZmOXSIuHvH/Xz/xiu57vZbeLTzBLGfk9cMpuXTzwb04i55OtCWfcs1JYs0t8gjyW662I6jFZrywCRpm2oIpR20+io9kaeCiHpFTwMio6USD+pJLzMUIUpznVMjrySLNbcjiV353DSNhuMsLPWSNMGsxzUEPQEBU8eWDuHUIihsgszFRAVWmGOFGccddRwnHn08mw45hkmaBGnOuAloivRAkqtWykJ3gG3ZNBqeeiWDMKHQdbI1z1TCaK5rISDiCldES8GC/jvlCfbQbfGi+JgKRPbYZR5lS6XkOBz4MtTOWHy064M6A19yEFJpiWlHC3qD26bGLZ27ufr2m/nBtVfxwGMPE3oZzniNvG6ITCKBiyqwa9+JVYKCsh40RLIIapPKSdMkalECx1Jmxc5THQ6lUZAZZW7KcGwEiEuX5alFz92BSBHGKkikpy3VJhvNz+j4CQlzBDTypAQT19LBV/KzOA7JowTjNDBZGebYloNXiI6roYhzrBiSbsLBa/fj1KOP54xXncxhrf3ws5xaZNH06ywkKY2gqZ5NFEVkYczYWEuXvzeIsYNSkb70hMp8iHhPJZ+kzHxXOZHlG0QFIstfs93sUfJASoqlWNEioaEc12DBfLfD2PQEwtrY2tuO15AuW5/Hk8f4zvU/5NLbruW+mS3MLszhj9UIJltEJmauv0CWDbBaNSwrw1b5wQIry7FGs2PELEydRDydLNGwwXYs7Ywt6etimaWPP0oujsxpaEGL5efdhTPP5IlIYtUWAlueq5yieEe6JhK65TlTE5NKsxcDz4t4uF4CMNKMl2O7/qKSs6RKHUsASDwZsCTESQriuT6NxNVcyZtfdSonH3ks+7bWKQ+lm2YatgVW2YtjZ1LuLcM6OR7bKdXoy4qRcEnEa5R/74TJCkSWbxAViCx/zXa7hzxVtbQpHrqOqCzp7cJtSC3Ry3CZjdtEjsgYeszR4eb7fsSVN17NTzffyz2dx4g9C6fm4tY9Eiujn4Tlvr6lIUouxpllSkZzMnmKlrNkpInN2A2yTI4hU0Uz27U1sSlGKsnXRMOVEkR2qq6PFMUMllJDd88TeSYQEfa9lnMlhJJpfBqpDEu8BYRhqBUixxFmqYQ4sR6bhEC265Q5C/EKZA1VkcBW4BMRAcn5iORAkHvQjoi3tZnO62w69CjOOuF1vOKwl1PzxpWTIvolEg7VJfcT5Zjc0hGgpQelGechifXJIFIByMqMoQKRla3bLvfSZKlUWqStfeiSjyoVkaQa5Z6m0A7be+Ye5Ds3fI8rrv+Bznexxn2KcZ/Ek5G6KWESUdgFju9oWCAgEHguiSir5xDYpVqYVCdEm8O2PIrUVmZnIglS6bq1cxUXSoiVsapzYYx8bxjk6PuQ+q6VDgGAn5Up/DeHM0lcMkXLNKf+EvEEXNsjcFz6/T6e46q3UHJXZJ5vrOGXAGURuPoufTeyjtr8Z4aNeMhM4LIcO+mNMYZP77FZBk+0OXj9Abz6yFfy6mM28YoDXs4UTXqDWZq5y7rGFF5uk0hznyRetWIlUZylVaGSEV9WrypFtZUZQwUiK1u3n9lrlFhNdb5t+UQXd1z+GRaxksFEZaxd9Lnqjpv4xne/xd1b76e+tgkth5nuHJFTUBurqxcRxrEmYF3PJhXaeq9HY3yCLIqxc4uaE+iTPunH5FGGZ3m4uacaplqqNbnqhNiBjV131ZOZG0610wY8ER2SJ7MyNEvJQpMKWWuFICJwJKVl7TouAUm6ea3U4FoudS/Q3M1gMEC0YKV64/seQc3Dkql7dkIUGFI7x8rKpGueleO4tJvXlJ5KKrkNXKbrE4y5TeKFPp1tc0TzAw7d5yDecMJpvObwV3LA5Hr289YhE4PppTrqU9ZGQVMSweKNaJfw0taaivK+EnOoQGQlq7aLfUaMVfEBxLj1yWZsBFT6WUg3C7l98z1cdM1lfPeWK5m3+gTrm+Qto+GNlHd7g27peVgFgygkG/RVwNirBzTqdQWMTBTdpaENh3SQkYUJNb+uokD5QloO57YzojwhTCPCIiSVyo+bqwyiGKl09UqCVhvwlCRRlnqt1FWhoRXlRMjxxDCzXMM5AZE8TLRiJMLNSihLy2TwaJSEME0FWSScifyC7aZfHqeUxtMU0kQBRUHENvR7XcbXrFOPYk7IalHBxNgknnFJ233a92/lJWv248h9D+bMV5/KGcecRDN3yOcj1k7upWulIZJem1JGUocBjopNlSTjiqyhApEVLdvP7lSGLQUCIkKVEBARMlSUx7TjHnNZj09/7vfYEs7QcSOYcIichNmwrV25TlMUviwNV8S4AqkkyGS6KNR3V2QEpYyZQC0L8HODCQ2B67P/3gfy0n0P4jWHvUJzJTIiYvv8DA8++jAPPPoQj85upR11yQJD7GTEAiR2SiIRx4gMVljYsavU8ZFMwAhMyved0+kWZRmHzW1lriGniCPNBUkPbQ0PLzL4kcWYaTFWa/GaYzex3977sGH9eqJByJ133smPb7uVBx55iO1xm2JjjcTPccWqM0nMpkpeU69BciO2kfyraqmUTBPhhtjqZbScunJLnIWE3uYdvGzdgXzi7R/hdUedRCN38AuHLB722kieSrRol3giZTKo8kRWYg4ViCxj1XalgVree+XNp+VKfQy7GuvXbZcojUhcuOK+6/jdC/6IHY2QgZeQmEw7WCTcEWMWr0DIYGLTjtLH82H+Qgy+LMVKO/3GYAqzdUDxxIBjDzqKs04/m8MOOYIxt6bz6ITYLp8ckyKdONv6O/jR3bdxy723890brqK5cZKuNWA2a2OP+cQmIU362H6DeuypOpKEDbGUZUdiGyPOvpDNld9RtvCNWLdlF5ulQkfh9h04E2tZ407QuXMr4wOP8177Js474xzWt/bT/EyDmlZEBllHQ70f3Ho9X/j63zLnLWAmPA3pZnvzRDIzJw0ZX7+GTqezqClbNteNZInKErV07AqA+jH4bRjvevzymefzgde9E8Hscae+SMmXfJEcvVLl5biHUgHlVayAZBkmUd73eT4aC7/cXV982z89iOQ66U28gNz2FUSalkuUDRDbvOyBa/jtf/wc25sDQjfTZjl/2D2aWk4pkCwt8+J1iAsvumWjng/lhonnYdEaOGyM6hy3z8s5e9MbeNWhR+OZBnkcMSYSAEYGWxbEcllth0iAJJnnkblt/OiB2/nrb/w9O7J5Nh6xP493t6niWWvNGL1ul0ZWV+9JwCeWTll194X/MmrOK0HEiHcgzXr6MwkNJCyRc5feG5tabYJ0ZsCaeYezX34Kb990FkfucwQZjoZZTVMXlVXyJFZVtHv7W7nwpsv4+4v+Nz23T23NhB5X6hoW4g61iTEGC3MYKQFraXZ075VQVjJuS16Kl1jU5gzjXZ9fPeN8Pnjau9QbasnQLakaSRewwKRVJn3lmikJT9e/6uJdiVVXILKMVft5g4jome0KROIhiEx544QPz3GIt47zTzmPczedyRqmtSdEnux1yUtISASESaIDqBwrUCAR0eZt7OCCy77KN793EX03orXvFHNxm244T9BqYavLY5EIGEq1ZDFnUs6D0UqQekkS2ojiWdn/o+3JQrGPI51yJ8S57kMzHD1+MJ9860d53QHHUydAtMjiIqZuSeiWax+N5/sskHNbeA+/97/+K3dvvxd7rE5es6DmMR8taC4n6S1gvKACkWXcr8/VphWILGOlny2I/NY/fPZpPRFjubsGEWWSG9b6E0SPzHPcukP5pTPew6b9j8aKxbA9Jv0x8mKgrrk0xkdxoqGV5To6uErGZXboS6GX//WvX+AfLv0n9nrJBvKm4eFtmxlfM63iRRpeSaAyDFHKJhcp/Ur1pSi9gHzYXKf9P+WgK3maO8KUjTJcp4HVTjnj4OP49Td/kMPr++OkBs9pERUJTctT4n0cRmReTtfAIzzBFy+7gH+9/hIGkvQVvKh5dNJemRBOo6FmWeWJLOOWfU42rUBkGcv88wYRqV3Ik95TY90ZzoxyIna/oNaBtx51Ch87+wMc5h2ghC0rd2l4DeKkp7N4lfA2ZIuKHICEN5J7aKc9Us/wYPcxvnbZP3PhdZerHsnE3mt4orOdULqIhVuibsewajMsAWubv+qm7swBaQJWpuWJ/IDkJOJEtULqtQm8Lrz9Fa/j42d9kA2MK0nMMh5pmlOzPHwBxlwa41I65GxjgW/edQl/8U9fZCGLFESEN9KTWTo1X0MQAbEqnFnGDfscbVqByDIW+tmCyDPlRHLhVwxBRDIb8pKSrCReJbFaT1zcHTHnvfwUPvHmD3Kov78KOucisGzZSofPhKAVp8rVcIUJakvgIDmOVBOlD809SnNymgfiR/nDv/wjbr7/Nqb32Yu21acbJKoOL4nVnQnGUtxAchhKahvqoWhfofBNpNFvKDwU9CLVh6374yxs3sG7jjmDT7/9k6yRaTOhwQtaFMIjiQt8DYOMttEukDFLny/fexGfu+BPiF2Loi7dyraOAZWZwCLaVKqnVp7IMm7Z52TTCkSWscw/bxBRFkWR4+sgpyUgoqNgDOtrUwwe3MEbX/IaPn7OB3n5+EswqTSRyZPawnP8sgk/TUuDl8+RUGQYnli+w1zWIbENPVKuevBGvnzh17n9oXthrc9CK2bgiTRBKU5UvsQDKZXTpTt55ImMhJ4VRGzxoArqgwS/MDT8cbbf+xjvPvaN/M67P8X4wKaeBwQNoaVbWNJtnCYY2wU7Zc6K2eEM+Mbdl/E//v7zmFZNcyKhTPWzS+1ZBERU3LoCkWXcss/JphWILGOZny2IfPrLf7TbnIgaytOAiFRNxosa4YM7OO+oU/g/3vGrHObvpwOfJHlq2x5hVnIqxBsoCVviLkj8ofRZ0iKWkXNsT9pEbqEZkstu/gH/dNm/8kDvUcL1Nl0v1PBnUeJQ8ioqCy0hSwlIEipp5UjmvDwFRLJeyFhrDem2Hu8//hw++caPUhsUbKitpRslquRuS0pFdE9Eec3OaROx3fT49oPf57/97Wc1sRo5KV3ejkXrAAAgAElEQVSReJSePPFELOmBKS9WVZ1Zxk37HGxagcgyFvmZQEQMTEq8ODV9b1gusZR4Hbj0wat5usTq04GI/Ew8kUmrQfzwHOe97CQ+/b5Psp5x6kWAyV2ywiJTLQ9TtriLUM9QBKnsZiv/I7mRtGaIrZwuKfP0uOTK7/A/v/JXdDcUWFMehWMpSa6svhSadxESmS/ShBIySS4jlzK1jeXJrBfJxsY4YUTLEat3yXaEvG/Tm/nUWR9hHU3qmU9hl7R8N5N5NENFaJOw4GQ8YXXVE/njr/2FhjOJl2uJVyQQxNv5t4QzwleREm993l4s8X7otHfjx1LilQk3gqnSW5RoiVfYvZJDUimFMn9cCTUvwx5Gm1YgsoxFWy0gcu4RJ/I77//Uk0BEfAXpeFVltaFi12gW92KKQ+a25BmJUzAwKZGOybS5Z+Y+LrzxCv7qiv9Nbd9JVUwT8aP6ZJN+PCAOe0xMT+rcXe1KXgQRF8uT8RUliNhRREO4HJlLPhPy/k1v5jfO+gh70dQxEYWRArTBTcoci1qySZi3M2asHl+751L+5KsViCzjllwVm1YgsozL8HyBiEj7STgzQZ1k8zznvOxE9UQ2MqHsT3IRBy1BRLuHhfs1VCQcSp2WZ1lkKgeQOYXmGyKT4do1TV4+0NvCZ7/551x5+zUkDkztPc3MYJ7YZDQn6vRlcNZwTq6AiPQEFaJz6jk6ikFAxEoiGo6v1aJFT+TMEkRqhY+xhCxm6UQ8ne6n40MTFuyc7XT5egUiy7gbV8+mFYgs41o8nyAi4cyEVSdaEs5sYFJJXKZwKUR8RyhnQxBR5XPNi5ZUenmFaUhhG4xnVHM0zNPhdDmLBTPgjrl7+Mzf/Sl3PXIvk/usZaHoE9op7rjPjoXZUi1exi+khYIIIkWg2iBGtVytLKY+9ESKHSHnH/9mPnnGR1gv4cyuQESLTiltk1Ugsoz7cLVtWoHIMq7I8wUisYyOyQ0taiSPzHPeEWVOZAQiItojNRqRCBAQKUdDLsrKL86AEY0O0V/VsEf4HcJkjUMikRrwUu0mvuHhW/jLr/0dP3n4TtYfsT89E7F5x6M01o6pbqoyVHUinyRcy0HeEs5kEs6o5kkZzgiIaE7kKZ6IhjOSUx1VkQVEJJyhx1fvuaQKZ5ZxP66WTSsQWcaVeK5BROUFZOiSdK8XhlYeKIi8RROrn2JvJstwBlc5FMIZKfVWl35pp4iepXQZi9EnSclM9V2POEt1Jo2pGRbyrnoo37r+Yv7hkq8zI6354zazWZc8kIqMSECWgkFZmqrGh20EwAyFhDNDEJFwZpQT+eQbh4nVwse2hIYq4czIS5JdM7p2xhN0+drdl1SJ1WXcj6tl0wpElnElng8Q0aFLQxBpFgHx5nnOPfIkPn3+p9i4BEREFFA4GuXwqHI8gjBXBTjk39q5KhrRnk9/0CdNEpqNMaWrC4g4NZte1qVnh8xkXS770Q+54Lv/zLa8jbe+ofkRGXGh4Yyojon8oWXj2aKqbrQB0MpF2+TJiVWpzkhORKozti00VKnODGkogm0moy8gYnX5SgUiy7gbV8+mFYgs41r8vEGkEA2SHPxhl6yUWKW8OwKRkSdyzpEn8Tvnf4oNTNGiPpx0I16ICBaVyu9i6JLwFJaqNNOJfKocf90EZFmk6mLj9TH9XhjGuL5DkkdkbqFdvHf2H+QrP/g2377+O7TtARMHrGWmM6M9NTInJxcVM+GOOI7+viJJFUTqbg0zrM5oTuSsj7CWJs3Mx7EDbOGajGbfjkBEciICInddwue/XlZnZExG4hki6eSR0CtPtRw7emlJdjiIvPRrypmYbjoq8br86hnv52dKvJJc1qTwkhLvUEqkKvEuwxiWbFqByArWbVGUZ6glor0qSsoa8kTcms6SWZQCcOHSB67md77yebbVe/TtRKUAakMhZ5EC0BGPUvEsIFCJwbJLVjRHY7m7c4spu6mJ1XMOPZF//8HfZKMls2rrCNNV57dYQjuXOSqGNM5xgga9POP+bY+SujA9PYmTZ3pcvR3zTLUmtev2kW3bWLtmLy27dgddQlfm4tS5M7qfv/jGl7j81u9jTwdEfkbuF3Tjvk6aqDXq9MKBzGegOTHJoNOlaQd4IqCyPeSdJ53DJ974YaYFRHKfpmmU4s0lk15tPzUZodLee3ztzov54298gX7NZuBnRI5M5YvxhKmaC2iVuwqoKn4MPS/hnejALFFFE9Gm2ZEUwPv50OnvIogtxry6Vq2kLaAEERE/cnQ0hX5UKYlS8URWYg+VnsjyV+3nCSKS7qypYHJJexfxohGITJumks3OOexE/v0HfpO9jZhnvSypWqLovoAn7f+xIQoz3KDFQp5y5U9v4sY7buWNZ7+R9RPj1MKctY0xsn5CkhbUxyaYb3dpOgFB3VEm63zWZd50uXXLXXzrygu5/Jbv46ypUbQcoiKil0fYrvBEjAota+gUZbScgFrkUsyEvOvEc/i1s0oQaRQ+Y9ZOENHhe+JlWRkRGQv0+PrtF/NH3/wC3YZNP8iIpTdnCCKiYSJe2sgzK52QckBYIIkcCdjcXFj0S0DkfXzo9HcvAZFCVdGUbCaZJAURHcBZgcjyzWBxj8oTWcHirUoQkUe8CcthVrG02afg+8S+y79eewV/9qUvcMrpJ/Hed7ydycLFDQum65MM+jF4DR20UHRjGqI4b+Dxznayltioy+UPfp+//saXuH/HZpEIw2o69POIQR7jN+oY16Hf66ke6ghE8pmYd5z4Zj521keYps4YQRl6DT2RCkRWcOOt0l0qEFnBhVmtIGKMtN8lOnJShMdiKeX6PpfffT2//9k/IGgFvO+d7+Tc404n6fSY8iZo+GM8um2WffdaR9YfTtULoCvehjXQCswWtnL1XTfwt/98AdsG28kaNjQ91Y7NXXBrgSq5yXDuhhl6ItsHvOOk0hMR2nsDX0MvzYcMyaojTyQhU/p95Yms4GZcBbtUILKCi7A6QURU0QuiuI+ViNBzQDvt0/fhhodv4w/+9A9VnNnJC37ro5/gtENPZCAT+WpT2HadTLSjXYj74IrDYKCddYhEGRpbZ+V87bpvcvG1V3DP9ofx17aIfegRk7sipFyOr6gbn1pkkz0R8o6Tz1ZPZB1jNPFlem7ZzzMcErgURPTzq3BmBXfj879LBSIruAarFURUlV0qO0mGF7gsZAMeT+e48fG7+H//8nP4Yz5btzzCUfu8lE//2v/JYRMvpdsdsKa5XsTVGZPEomgpSuLShjAbkDmiCp/TYUCbPn9/yT/wL9dczjx9rIma6sVKH46UkUUuoGEH+ANDvl1A5Bw+dtaHWMuYeiItARElwpWLLiCSDXMiFYis4EZcJbtUILKCC7E6QaQkqboCAHGG49n0iXgk3c61j/+UP/iLz5D4Ga1GjZl7tvC6o0/m4+/+FdbU98K3Wky7dUwEvgVxlGpJ1a+75HbGQtShk3dpNCa4aeY2vnXVpfzwtut5ouiSS6LVEXV4EQ0qaBgfNzRkT/R5x0lv4eNnS2JVJtYFNJGRFDulSkYgEpOpp/PVyhNZwd34/O9SgcgKrsFqBZE4yaj5NlE3wvEsIi9VJug122/jd//sD1SQaHJqHOZjFh6a4f1nvoePvfdjONTxC59py0U4pWFPensLgpq0/Wa0RSS56TITzVKrT3Djjtv4wjf/jps23wETPrQ8Urug029TMz5eCKmAyMlv4WNnf7TkiRBQx8VdCiK2EOFyHfLZZsBX77iQP/rGX1XVmRXck8/nLhWIrGD1f94gEqRCpFqqbCZMVKPtdtLFe97LThl28U6VDXh5Oe1evkRRRLgShREB5AGzVsSlj1zLf/niH9LzI3KrYGNrimxHBDMZb33DWzn/zR9kigkCCp1d055dYO3kmHJWuvMLNBo1LcUOrJjZrEM/gBse+jF//e0vc/tj9+FM1tXrEdZr0g+Z9sbJZwa85YSz+I2zf4UWroKIDLSqDSdiidekwkfCFSFjTjyRZwkiqZPh5ob6nM1Yx+NX3nA+Hzj9ndQiw7jfUA2TqsS7ghv+GXapQGQFa/qLAiI9K2TOhFz8yLX857/5Q/pjIjIEdZlmOzCY+Zz9JvbhjFPfxNnHvZFaAuN2jZbxGXQ6ZZI08Ija/XKub8NhPuky8AqeoMN3bv0h/3LVZTw08xj2hE9kRQzCHuOmQbK1y7mvfROfetsnmKBGC0+n0PnKMitDrxJEhFlbVCCygvtwtexSgcgKrsRqBRGhtgvtypOCisnpEzJnh1yy+Tr+099+hk4zxR0LiDs93LhgPGvQe6LLARsP4n1veQ/nHPY6tm3dzEHrD9DQYzC3wNrWBMQ5aZriNDwGJHRNSGY5PM4Ovn7Vt7noB5czE88pGW0Q9RmjRvfRec45/kx+810fF/019USCwl4EEVEYE9ZobjIFEUnUVp7ICm7GVbBLBSIruAirEUQEQORLwhkvKfvsY0Lm3ZgLH7qO3/3SZ5gJBtTXNel1Fyh6Cev8KeL2gCK0eNm+L+W3P/ybrHFb5P2E/Sf2poFHNNtlenyiHEYj2kc2zGc9QlWFt7i7/yDf+s6FXHTt5bBWJtzFTLvj9B9b4I2veT2feMcvl+XdIqBeeHjD4dkCIuqJyFzgoSfytTsuelY5kSqcWcHNvAd2qUBkBYu4KkFEKOTS6k+BLyAimqtFyJyfctEDN/C7f/sZtrcGJA1Rks+wMqHXuwSFQxrm2J2U4w8+mv/rw7+hYYw7sNi/vhEZM+VEqvOsbo7oq+YedIoB7aKHMS5377iXr333W3zv7mu0r2ZtbZpsPuLsTWfwK2/7EI3MY8w0CDIXd9Qzk+VkouGqc25y9UQqEFnBzbgKdqlAZAUXYfWCSKKq7H48pITmKW0/5V8fuJ7/+KXP0FlrsSOewWl6NGo+3Zk2Tmox3hwjCA3FY11OPHITn/zIx9mXjTL1hinGdU5MIN23NvS7MfVxj8iCLe3HcMYFZjxum7+T/37B53lg68P4iYvdg/NOezO/9LYP0kgCpt0xVZ9XELEg1S7jjMLRIReaE/n6HRdXnsgK7sfne5cKRFZwBVYniEipNMVVT0QylzbCIOv4GRfef5OCSHutxUy+A9Ow8VyLqN3RQVfjrQmmTAOzPWLHvY/zyY/8Ou8+7V04aUaraGrjnICIqJHFYYFTs5TuPtObJbET/KBGh5Bv3X8Zl1x5BY/f9wjpbMw7Xn8uH3nr+/FjT0eAGhHCH3bzZ3lezvutQGQFd+Dq2qUCkRVcj9UKIskQRDSxqrJoOW0FEQlnPscTYyHphEVUDMjjPo5x8IxNlhX4qWE8sZm2x+luX+CdZ76dXzrtI2VDXy9nQ2MCf0hZz5OCXtxTBqyQzOajNgNP1NICLrjmK1z3vauYfXSWt73+LbzvvPfg9C3WNCZKT0THWognIhP5MvVuJJwRKYCv3nEJn//mF+nXLAZ+odP4ZDtHJuw9VQpAcyulCNOiFICd4WWGoL2kxHvaOwliw6TXUDJckeXEhSyQhGgOxsj4irKLtxSlHQ3tWsGN8SLdpQKRZVz4ZxIlkpks0mae2742pC3qiXhw2QPXIMOrnmj0lSqeWgm+SIBYIhzk6GwVcevl75XyRFIrUqFEJykFOyRcmHdTLnrwBn73b/6QhYmM0E9VYV1kDsuRmDIA3GgHrun32DC5hi33Psba5l789q/935yy/iSybMDavEUzcWiJ1csAF5k/lfTo5j2dm2ucgFirLG1uueFH/M/P/QnHH/0afve3/h/C3oDxoKHaHVZRaqUICcWSHIv8KXLmrJC/v+MiPvOVL2CN+SSB0SbAxOS4rk0ShzoSdJEzr0dQujWihC/ft2WQVpjRCmtM9Gu8/5S388HT3k2zcGnI/F/ZWKpChcCWTAe0hxMCZQzpCD8qEFmGSeimFYgsY8VWO4hIB6+xZLC2lGkKBkVK20m46KHr+b2//QzdsZzITyiGIGJyh1wSsDJqs8ipmVQVyuzcw45cDl5zMO854x28Yd+T8YucNVmNugiNyfS6PMbUPeXJ9wiZ7c9T2A7j/gTbOzP85Z//FdPjk3z4Ax/ELmwcy1ALAtUdERKbgNgiiGQZc3bE391xCZ/56p9jmjWyGvSyhMhOsT2XNO3rGE31jGR/dRpkMl4JJrmIDImI9BBExgZDEDn13UOyWwkiApaj6X7I8C3LorBEo20ocF15IsuwiHLTCkSWsWS/MCAiTXQOTwIR4Yn0dgMiqRhfkTPmGQYLXabG1hC1I2Ye2MHrjz2Nj7/twxw2fgCNQUErc2np5DiRoC90hk1kZSqelIu8o9aHCu699x6i7oANe22kWWsyMTauBmtKEy5BRFi24onkGTtMyAV3XFqByDLux9WyaQUiy7gSqx1ERAXMNuCKSKpdgsisE3PpQ2U40x8vCIMErDKcsQpH5+oKiIiH4BUpNdejSAuKAeT9HH9g87qjXstH3/xeDqytI+jnjBmfZm0Msoxev4flOnj1QMGhE3V1RRt+g8EgJB7EtBpNbMvCdXyVjdb2GatUjpf/CYjMmgEX3HkJn/1K5Yks45ZcFZtWILKMy7DaQSQhVj9A5tGKl9AvUubchEsevF4Zq72JQsOZ3YFIHodMTkwwv6ONa9lsGN+LmQcfZ7qo8943nMf5p55LPTE0EoemXafuNUq0yiFKI9WNlWFWwm6VRp40ShkfG9cV3rZtO2vXrtV/qxK9cEQURFKVV5y1+/zjnZdWILKM+3G1bFqByDKuxGoHkbiItITqRTrNgZ5opToJFz90Pf/pi39IfxIFkdxKsIeeyCgnooadpniuSxrJDJmCllfDiQr8sGCtafKrb/0Axx54JAf6G8nDBC91GWtMKoj0Ov2y9IsIKpeDxQe9kFqthh94dLshjUYwHGch4zOlDiJbp+qJzBkBkYsrEFnG/bhaNq1AZBlX4hcRROacmEuG4cxgYvcgIuMlFAKyDFdGM0gCNE0Z92r4sUW4bY6jNr6UN59wBmcccwrTTGAGFi3hkDiB8NKQzOXc3Ax1v45fr5PHGYNBhOO4qk0y0iNSmdUlICIDtObsPl+twpll3I2rZ9MKRJZxLX4RQEQ8DAlnJN/Qt7In5UQERAajcMYUSHVGSryJzHUZzqrRsZhFgmsbGoFD0uupgPOkXaf7yA6OP/RVvP3kczj98JOZZpJcRlOERhmwaRaRJBG1WpMsSbCNX/bbZMILKXA9IdyXkgXS5yOgItyWNIs1nPnaHZfx2a/+WVWdWcY9uRo2rUBkGVfh2YLIb//j59jeHChPRPIHwhORl/BEZBSCVDUkNlg6MiKVBjXbVj2R8Twg27LAW488ld9576dYz4TqiejYSkvGLwjtvcCOyqSlhDNzXsJlD92oOZEynJF2t5gsTxREbNtVEJGeGI2BrHJ+nrBM5MstCpw8VzKayBu2H9jOiUds4lff9ku8cs3LcHOHZl7DyQy2ybX6IgdjuW6JEpIviRJcX4aOlw18Eu2Mxs9ERUyaxsy5A/7h1gv5s3/5InngErmpjoyQEq9mi4mfscQr8oxC4xeeSL3j8r6T38ZHXn8+Y3g0CldLvDJ2QoIoeWlptyrxLsMCdr1pBSLLWMLnG0RGokTnHnHyzoHeheiW+oviPhKSSBev8Ca6RULblZzIDfz+35QgEgdSio3JsxJELMclN4ZU9T1K0pYZgYiVqG6qI1+ZoWUCou096qHHmzadwYfeeD4bvHXknYQNrXWk/Z6O5bTlbynnylwX2yk5YdIvI7Y7nDcjnohmRIpEh0nNOwO+fPtFfP7rf0nq2coTSR1DKFx525BL0jYryXi744lUILKMm3kPblqByDIW8/kGkSmrQfTQLG85XAZ6f5IN1qQOrxqBiJRLxcjcJFcQKROrsYLIqDqTBJJCLUHELlyM6y2CSKZj4JaAiCRJi/IzHXmC9xPW1qfpPNrWprr3nP5W3nbaueztrcPLDY3CwUkLHOOS55AlOb7vYzuGOM6VYi7kMA1ndLyFFnh15OeCHfGPd1/M//cPf0rsWFgth9xz6BWhgojlFpCIh1SByDJu2edk0wpElrHMzzeIiCciE/BGnsje1jQNauUEPKl1mKHBi1vBCEQSLt1chjMLrRQBESnxZuKJ4OI4HrltI+oBYswCIraOBBXh5dJo1TsRG45SWo4IDDXob+swnbd471lv562vPYcWPnI0hCmu6+LbAVmaqTci69bv93Vkp1LOh16IAN0otGjbEV+57zv8t7/7PJEN9rinINLN+jqLF09mf1eeyDJu1+ds0wpElrHUzzeITBQ1BRHRWP0P7/937M00NYn0cxnGnZE5Ul4tcOKSESqJ1baTctmWmxRE5huxgoj0zhTpLkBEdV2lp0aAJNV3mTYlRi8vKdfOPz7D1Pg69qpNMffgE0w7Ld77prfyjmPeormHopNqj0uz3sTBJc9ybXqTiEYARUBKPB7liYgXIh10QNuO+cr9l/M/LvgT9URo2hrOLIKIK4lgiYoqT2QZt+xzsmkFIstY5ucbRMQTGYUz/+GD/459WKOJ1SKzieUJb2cKHm5UlGQzmXHrplyy+UZ+/0ufXfREMit+EohkxpBIS5qChoQuAiLll6Z7h9UUTXCKrkicM+G2tPTb3bKDw/c9mI+e/T5OPWAT4zQUOKQbpWHXSNKULM5o1htKQpPEawlK5e/LBaTynDk35st3Xc4f/9Nfa04k8XNNrIoAtOZEJD9Tgcgy7tbnbtMKRJax1s83iEhOZPDADGcfcoLmRPZ11ypPQ9TeBUREm0N6cp2o7JLt5gkLfsrFD96gDXiDKUs9kRGICO3d2GViVUBEAEOMfAQikg8pqxjlIO04Chlbu4awGxLPyxjOFvVMRJAsDm7twyfO/CVOeMmrRJKZTthlPGgpWAw6AyZaY2RpqqGNJF8VRGToZy6hVcZ8EPNXN/0Lf33Zl7EaASIyPSgyUq/AEhZsNtDB25Unsowb9jnatAKRZSz004OIuOsFaZaBYxMnMYHtEmYRoZvznQev4z9e8DlmmhF9LyE1MtKyLFzIAG0xX3lES3u+lGmlq1ZyHPIzkQmwc8O0PUbnvq28/uDX8Onzf0NBRL7nSsJACrMyuErAIBWtDplaFzFvJ3zngRv4z1/8HPlaV0u8uSVU81JTQ0q8mWUQkaDCLjtsSxCRcqhQ04fSJBZYnkPU6WDXaniWS9TuMuHVqBUuC/dt4/xNb+PDbzmfDa31tBdm2TC2Xj2lXm+B8fqYlme0alOeqvgkxFlMnMfMegl/fOVXueB7/0wwXqeT9FQU2vg2lmeRxANs195ZmVF0k0StFpVLsDOpcmRaob9Y4v3o66TE69DKfTyBIcn9aDhVntfSEq8A8DC6WsZdUW1agcgeugfk5ovDPq7tYHmuhgWdfgfqLn0KrnjkBv77V/6cR5lntuhS+DmWV7bEa97QcnAjT2kaUv4UHY1IJIyNJEIFISzWBNP0N+/g5VMH8hvnfYgz9z+JvD8gmw/ZuGGjNr+5QUAo4JH0iF2bx5jnaz+4kC9d/FVqe08Q2jHyp2yHz5SzIYZkScig9IlS6EerskUJIhp8iNGJ8WluQ/4jYj5l+7x4FvXYxmwd8K7Xv4VzTn8Te5u12HlGI/domTpuYrByC9fYFLbRrt9+kTAoRE46YdZJ+dBnfotZNybJQuXRWI6UqlNS5ZKE2JIrEV6HHIexyxyLsYmSjCIeju9LYNpq0Gwbzj/xXH75tPdSjwvN3TiZ8G3khOXwRQJAmLNDvUY98wpEVmIOFYisZNV2sY8YXp5K+6wYmbTSWnTCHkVg0yHne5uv5z/9xWeYCyKycRsz7hLlIYPevJK7WkGTvCtGaZPalk6Ukxm4aqXSjZKhaulmPmYqrXH6y07gI2e+kyOaB6sf0t6+g8m1U+zoLxDaGY5fZ5YBVz90k86GufbuH1Nb1yIyKbElgyulh6YkpZVfYpziygz1C3dxjmK88lqq7Db6v5DRrJku64MpXn3oKzhz02kcs/5lTNLASQolgQV41Gt1BqRsmdlKfc04NgHb2ME3r/oOX/jeN+nXRGekBA+pImFLCCSq8BnGMaR5puxXERRKMxGjtnBdj6BWUyGorB9S70GjXfDRM97Fr5/6IWoUOtqzYWrl+YmMgWWppycgIt6bkP4lWKo8keUbRAUiy1+z3e6hT7Y8JxNhH9doKJMJmJByzSO38F//5vP0GjnzJqSdd7ECQ9B0KLKEXq8n8+HUOJSIpUroZalWlLtk/KQbGSadJswnSKXmrGNP47zT3sRBtf200iFPUhEIEiiTsZRX3XET//z9i7ltyz3kDQczIepjsXoBQvISt0cVzgREsLWgu1IQEVnCdX6Luc3b1PM4/ZjXcsarT+GQdQeyl5nSWbzpMPAYiGKZ0t4dtuWzfO+6K7nouu9y58JWkhrYnoQpGUkelQJKHrqexrXp9LqauHWDOq5TI0kyEllvbHyRJEgsaj2oL8D7TjuXX379+dRziyC2CZyarqWcqyZ3BaCF8j88Ls25VMJmy7aICkSWvWS73kErGEPxvjSJkR4U6SMRndC+ybht6z381ud+n3TcJRmzGDgpnaxDUsT6YLRdl6iQZ6LI95USfvJlibZobuGIJ2J5tJwGLGTQS9nYXMthBxzK0Ue8kiNfcjhuBq5nsxAPuOW+O/j+zdfyk4fuJAosWuun2BG2S/EgFU6UMEkASoCkjFmeCURGZ74rT0TwTubUmEiOLaOWOuw/voFXHvQyXr7foWyYWscR+x7BQrKgSVrJ39yx+R4u/eF3+fHdt7NARNa0yVypWJf8kUQ6a8QbMQWFA0mellqo4pnZHo7xMdrzg4pAT0vPznyINRspZ+X817+Vd552NuNZnablYeeOehsjunvp5ZUhpb4/jRe2h26TF+THVCCyhy6reA+hpkdF9DfXJGuSJAyyiDSALZ0n+Iuv//Daid4AACAASURBVB03PXAbWwbbmTpwPY01LbbObWXH/A6d5WKN19XFLmdMCnjIV66hjBCtarZPPkiRqqeUTz3LJ+zHGgodvPcBNAtbvaDt7TkennmMubgLDRfTChTMTOAoU7SUBSp5GiUjtQxRtAlvqFv6dMuyKxCRICjq9JmcmCbIbNqPzVC0I9Y31rBhbA01ExD3BzTHWhjPYcegzdb57fSzCKfp4483NMEa5wodmhgW3oscb1KkFHkKSYIzNobvBvQ7EUU/wfPrjNXHaMisnG5GOtPH6WYcue8hvO+st3PiYa/BLwwNq0Yu5DdJxmoehNIDG0pDlue0+1BuD90mL8iPqUBkD11WAZGudKoaQ15kqilapBm9uI8JDO0iYktnGz/88fVceO1l3P34g5iWS2PtuHoj2wazMBmQSx5EYnTlaUi1phRUVhXQVNr0Ha23at8Ljmp2pGnOhN9gHJd0EBGKl+HZIi9G6kIiDW+quRqrEFDJ0djJ/jQ6jU5/62KlY1fLMgKPXYGIJmClga8ocFO0Yc9PHB3XaeQrKfBdDy/w6ScDdnTmSF2LxlRL8z/dfodGvUaaJ+WXiC77Rhv2JA9SSNZXlNmNq5Uqkxi8wsUzLkkvIZnr0eg7HLXvIbz8oCPYdMQrefVhRzNuNcj6iUo0WgLOw1cp1VgS6wTwS1fE3UN3w4vrYyoQ2UPXW0BkIJUKyyKOE3zj4NgWYRhqmTIxCZ0i1nLqT7bfxVcv+Sd+8KNriO2Uib2myFoOjyc7tHtVvYORqy3GPvx3HMdMT0yLHCq9TqhPTsdylSHacHz629sKXm7gYzyXQZ7QjqWDpsAKHCzpXRmWcUssKXkhewpECtcm6/ZBuna9OmOuJFXBziw8yybsD4hTCVEy3LqH2wooHIuFsMug36Xu+hpiST5I1e/FYxhWUQT0an6dwXwPO7aY8MdUXS3tRSSdGC8yHL33YZx1/Ot55WEvY++xDToTWJOtYarei4SYJQAKcEjZPC+7nkfizJa7WI3aQ7fFi+JjKhDZQ5dZQCTWDD/0egPVKq3rqIMc44hBFPSzPp08IvMs+qRc/8DN/PN3LuTWu2+n74R4G5uEjngLIg8gT2QZNSkufaFAIK9AntbCA4lT6kFDjSLsheRRRt0JcIxNkqUMkhg78PAbon1qEQ46IO35w9BFHB4BEhnhIKGT5mGWcC6W64mIyFBWZBjfVw4JcUo+iDFJTmA8PMcl7PUJGnXVGJHKVZjHODUXyzNkSazJYx0LIdWpIedGKPK2ZbSpz80csp6M4ghoWXWimQ7h3IDDDzyEU151Ame/5g0c3DiAmAHd2XkmahOM1VqaMxkMBvi1QE9LPJAngYgsrYCLZVcgsgJ7qEBkBYu2q13U8EekCvFIxCBGUl56k5ZDk1I7JVKF9JQBGZu7j3HVzddx9U9u4Pq7rqe1YQxvrEE3G2jvS16zlXSVigCyLyMaJPNYQBhKphHLD6i7NTWKNJEwpZxfI8Ynhq1KhcP5Krm4MMNxC9rMNgSRkTev1aUVrofuq6FYSQKT1I6EHSVpzdIcZpxEChLimQmwyixeXZMs1Wl9SJWlVsPYkpQuyXCe4yPV3myQKNdkr+YarHZMe8sODpjam3Nffxann3AKG7310k6IL53EUn+RkCcVEXsRaJIRGkb1X5VkJgnrIalOPBGnZJ1p6Xd0CVe4DC/K3SoQ2YOXXRKTiyVCNZ5huUZARAR50ghLxlfaCbFdkNkCEDFb+k/w4BMPc9+j93DxDy7h9ofuYXK/vfDWjvFIZ4YeMWMb19BNIvKFOa2j2BOTNF2fXrtD2ikV1p3WxGKzXFnCLA2oGFZfhsz2csbKEhAZLcFKAURxQ0Gk9Ja0jKoANSKtjWa6yDLIsKpSXXVUZlUjNxaT4xPs2LFDW/79ekPJaVFnQMOpsc/kOjqPL9B5bDvrvCnesOkUztx0Kges2Zea5VKzAup2A6dQNRMFEVFaElDVnh9ZB0dKx8N80CKIyHhQHYRTgcgKbaECkRUu3C53k6feUp5B2Y6y80vkw1xxD0oOROTLQ9tGnrmSDt0WPsp9Wx7gu9f9kB/++AZmTURrv72I6/DownZMwyeOpTUefN8jixPShTbGOIxPTTIfxiXNQ3jlQwBZepz6VFanaOSFDB2HIYns2S6F5FVHr9FwqTJ8kJcki4c8GmHCCltWD1XKtaWIUbjQpj4xraHLoNPFx2Wi3tLO4Paj21lXm+bYQ4/iDa8+laNfcgRrnQm8wtLtAisg1TYCWz0Lne6nIFJyQYQlm2l7wfAlyW+ZL6yAI7FdBSIrvf4ViKx05Z6yn4KH3qGleOjILVa1wRGYyF0uIKI0dqF8R8RuQeqAKLXHyYC6X2OWDj/48Q18+6or+PHmuxgE4K1pKmEsLEJ6YZ8kGuB5Ds16Ddcy9OOIruQ2bEsTqEv7fNSQRHhZY5vytRTsFsOZZwkmo2HdI+mAEXFNnv7ySuNYj02SvxrWDHNIIyZsnkrvjpDCPLzCIe2EZN2IcaehpeLTjz2RU191Aoc3D1GtExlGPu1JZ4yh1x9oDkjm6wo4KFDqyEyhyJe0fskrSa5lFLRJ9KUgMjrvKpxZkTVUILKiZfvZnXaCSIkjmSUu+3BWrLSoiB0PEpUj1Fm2Q38/sVL6RcwgjRgLaiz021qWNW7APe0tXHTN5Vz1kxt4vDfDbNKlvqaFO1YjKSLCTOjrZfu/sEFj+Z1D3VAFkaERCYtWjKmcZfvkl6YDRo/nJSXQ5S5L2Wsz9GyW5FZGjW7ykyIW4pjBsctB4gImksvRsKcwTDcnNHyRCkzSDbUKs9/0Bk56xSY2vexVHLnP4QQY6tSU2CYeiAJRZg3V0mTpCzz5nkrFSg5oGKooiJTcVMkZyUsARLbTXqBhyFflRJZ75asxmstfsd3sUT7gVPCi1Du1pL2+JDWJgWnlQeIWNVSxGumvKX8YkhJnEb7tIGXcdq9LaGWMT0wRkXP1wzdwydWXc90dP2I+65L5BneyRmQS2mFX2Zz1sRZRIo11Yg+2hgvye0v2a/kloUP587L5bNFbGhlQVoYcK3ntCkRGv2PRMAUwxEPIhmEEBs842pTnWy69rXMIfT7rpzTtgOOOehXnnPpGDt9wiBLG6ngKLMLabdh19av6/UhZq7WGR1T2QuNqiFIMQWQUqmiP7hDcyzPUvLN4LaOc0TC3s5LzfzHvU3kie+jqlzSt0gJTy5ImdgWRsn2udD6kwGhJY4uENWKtQqYSpqt0qop4T5hSr9d1zm2YRyz0F7TT1WrYWMbj+3dfxWXX/4Arb7uWrpfS3HuKLDDMhh3icIAb1BS2VAZkyMbU0EWMVxip4pFoR64+fhdb4Ufhh5U+OxAZhUsSvugTf9jyv8gEHXpH0piskgeqEG80/BCWq5mPdDzFQRsP5OzTzuSUVx7PWqaUxxHg4hZG95EZN67lE/iyqqUA9Gy7zfjUmMCEtvxLiCLno4sxTNyWumjirZUXXWju2nQnV6hM4lTVmRXYQwUiK1i0Xe2yCCLaQ1MCiIgNDu9OfWpKt62Vys1dkjtxBGRENjlVJ0YSillW0uXF6Zach8TyC3mXHf02480p7k+2cPVPb+C7N13FTzbfRceKcVs1qDkM8oHSxYfcNHV2xEg1/2AMUVx2GY9ARIhv2oA2MqplgMhT3X7BRNdylCgndv4kEBn2pEg4Yxvn/2fvzb+tKrNswbn7fdrb0oPYYKgoIKBIL/YaqKFhGN2LjMzIzMisqlc1Ro1Rf0KNUb++epUvm3iZWRmNEZFhGnZhC7agCIoKoogKiPRwud25p9n9rjHXt/flcAUugpH6su51GBeDe8/ZZ+/vm99ac801FwqaDRsmzFBDGsaIPYrFUnyj4yLRe6y+YTmmuyzZEnwZgTjyL/9sSu1FA50c41hZLVr0GTGo06Eihm19rLjQ2TEDEeV3IMAqVaTMT4QgopSrCkSU0cHE1xe9AxMg8kXv2Fl+Xp1zap7JybgkhxHm/bL8ockOVAs2D/lVB4vafJl7oPyBr0iFp/JFT8VjhK30+5tH8NKmDVj32ks40t+HtNdCPNNCXziE0A+kL8QkocjNbWiwbVsiEXqxBiFfLYVm2dBNW1rrozCETql5WyNaDkb5R+b7q1RIRTICRvnG49hNqyhVFSpNS5WivJc3MsLuQnR19Ki/a9DsuYBup4po2Eerv4FpXb1YeOlc/OSbP8SUYg9KNpv3OaZCk34hm16taQSL6txROilDvnzfizeIku/nqZWkZrzGtsa6Cc7jS1zw2UtNgMiXf0/P6xWlkyUjJLl5pTIpnAYjG57uCVoBh2YnoLycrMIwGti550Ns2vom3tq3HZsH3kPxog64rot6oybuZW7JFvvBweFBlMtlSkJh2pbYIvpxgibLwix12hwupcquOS9CsnN0E4rBspqsp1IhFXEoJBS7MDixgYLtoOl7CGpD0EplTJk0WWb7njhwBB2lDvS4nTC8FPXDg7A9A4uunIc7Vt2CJVctRtkz0et2wbEcxGy442uaTnYfEmkpyK+vXY8zesPbeJ7zeggTv3Red2ACRM7rtn35v0QQ4R6JqXbNQIQbRUU2SpylGaYASgs+akEDKdMdGDhWO4GPju3Giztfxes7N2P/0YPomdqL6pQe1Pwahpp1pLaqToRs7LMtGd/Anjb29hCuOB+Gk+jUBDz1JSAyeraT59BVH09GzErklIm3CERaIIgnQ8GZYkR+hKDpoeS4mFzpQv3YMILBBgqhjfkXX4U116/EkqsXY5b0uZSkelOxS+INErNzN02FeJX2/Yw0/RyIjHkUE5HGl782x3vFCRAZ7w79u/19Npy2PZ2RUF3F6zKMqtVEsVISrqUeN1APPBgOh09paMR1HK4fwtZdW/Hqm29g14HdqBsR9A4badESt7PEMdGMPCQRS62mDNpmr00apTJW02DTW5YltH9s8SXN7BFVKJBVNDIAIcdAfiGJNDimjTSMEPshKoUiOotlBENNDB3qk56XyyZdhOXzluDGRctxxeQ5wnUQIqzUgBXpKJiuOMOFUSggQrtJGXolPTQnI5H8+tqrSRMA8u+2WE95owkQ+Wru+2nfVbiSdu254Efej5IiYejA/g82qFEhQi9WRiZRgDD0UCiQ0G1hz4nDeOHt1/D0llfw4dG9CDsslKZ3I3I0pK4pZtKe35S0xbUd6eLlcCnbJZWZj3RQl5jrSMR0Kc6MljP+ZnQjJ7RWJMoYcHQKvnRoQQTNS2BHqVReipGJm65bhZsWr8DC6fOk4pI0fFSdKkqmK2MlWN3JtSwySIvl2owUPtNjOt+S9Nfosf8PfykTIPJ1eoTUUBA0mEbkhGF7wYA9IHGEhu9J1YZSbiowDSo8dQ0WAjT9EXgWMKwH2PLpB3hy0wt4c897GNCaGIpbcLsrsCmfj3wEgS92BY5pCWHqR75wHXk0IrjQdn+4sZV1jxr7oMrJJG+pDjVhGQ6ieoiiaaNk2GgeH0Qy4mP1tTfg27euxeKL5kvkYZNW8TWU7aL4njKKqY804Badz/u3coRmBlrjVU8mAOWrWcwTIPLV3PfTvqt0l0qPyVgQUQxmRP7C0GE6rhqMTQ+TIBRHsoJlIhweglsuiHt6f9RAUrAwjBDrPt6Ix158Goca/RiOlJDNcFUzmh8FMvayWCmg0aqf9HcVkvLUqIQEqsbOXCmhUrbOMqoSkBmJASdxUYCJsO7DDGLMnX05bl96IxbOuQZdVgnTjF7Evo+iXkDVKoo+I2rFUvI2isqmQNVXMjNoKcsqwZzoXPLU7gzPrF3w9jV6rP/hL2UCRL42j5jVDzXcSZrkpAs2K39IlaRNmh0lqh+EPiUZaxK1IrgWx1SyqBGjnvpoGiFaeohBNNGfjODJl57Dlg/fxadH98GqujBLNgabNYRxgEK1JG354oBOxTi/i/q2rUSq5Q1rFIgZMNluH7PfRYMVGtBrMYqphandk7HwinlYvegGXDPlCnSjQrig3hQluEKcphw6HlGKT41/lrWJKj9L37LPmyaJEsmxGddQrfpju42lkttW2v3aPNL/n1zIBIh8TR60UnmKTfPJDZGF8SoyyeupSgWbk4inbKhMCMu/o+iMxkYUstG7hNEJ+123Hn0Xz296CVs+fAf9/hBQpEeJDj+lhH4Epe4OsSNsRZ64jzHFEVvGclmsFwsWtaMmUi+C5ifSRUvnMssDig0DN1+/CreuugmXTp0l/S0FWCjBEakYR0ZIxSeRKVvq63NEbvYXY/7//PNOgMjXZMG2XcYEiHxNnonoLjIYOQkXee+N9PerK812k/AWYxrelMpDGSKJCaA4lsUIZc5Mgr5GP8wOF4NpA+98sgMvvLUBO/buwlBQR2TrsDsK4nfqRcowGY4hQjfO06XylRaD3nADBd1Gb6kLup/AGxxB1S1jTu9FuOf6W3DV9Eswe9JFwn3QQYzRB2GH6Y7I4tuJljG6DtXEmLkmnQZgzgYk/PGJdOarWcwTIPLV3PfPvStBRIZqtx3OIseW/x7rQq6ikfYvAojyAlNmZuKsRm9jMTkWhQhiWg4YEVp6jCG0cLh1Ajv27cLGrVvwzkc7MBjUpHpT6qyKM3wjaiFIqE9RPiBMQapOWdzDwsEm0AhxydSLcdPSlVg57zpcVbkIHVm6QrNljnEomA4s3ZIyskaT6bYPKBWf7KPJCBgJq9o+2Vmikfyzt0diEyDy1SzmCRD5au77aUBEKVOVpCv/yv+Ug0m+BxWI5MGI2JOAvSPqi21p7B2h67o05VDBJo5iPgJaElopEkvn5An0YQgfHtyNXQf24IkXnsaJxhB0+nKUbNTDFnTHhFNylCiNPT9eJCZBPYUqVlxzA+5YeTPmTr0CVaYqgQeXLcWxcrq3DBuurQZG0ZHeyhrm8oBKUpOsAsTPYLLzth0dzwAi+e+LGK/tZyaqM1/NYp4Aka/mvp/2XXPzns/bFGa+JLl+lD6qNOLKRGD593zCnDLa0aARWQggYj8Qq1TB4ojOBE34aOmR6E18xGgiwDu738eW997Gzt0foa/Wj4FWTXgRp+yK0THCVAZ0X3PJlbhr5S1YdeVSIU2F3vUD2IkudgYGHT1EkMbGP03sU6MohuOc9DAd5XQykyBJ2MQU9ty+2vUr5/YbEz/1x7oDEyDyx7qz5/G6+dSXz/eSfj6d+fzLq6l5MkNFeSSqU10acjIdvbiqpWj5TanEGEX20mrS/VqL6zCNMj6q7cXOPbvw3q738faH7+FI/zERoZVKJcycOhNL5i3GzdevxuXubBQoT/c8EZOVnKIqxYrxkSrN8v1P8TmSstPJK1fxFCsv2QCtUwjkL3YDJ9SqX+x+fZk/PQEiX+bdvIDXOlND2Tm/JH0z2LQmdu4EC4JI1gLPzQzA8wMUS/ao2iIIObNPjdGUAVIah15YqKOFvX2f4Z0P38OHez4STJo2bRpWLVuBWZVp6EQZqe+hErvocrskzQEn81ERSxl9jl955JRdTp6qCHch/+aDR3PYPPtA8fHuxQSQjHeH/jh//x8SRPJc+Yt+/7Ju8Rd931Ny+bNwAme9PhkHwZRFubyraEBtV0rSZYOJcCsTbyGRXhmBlyiWOTC+nkp04qeBBDAElL54UCKX7mI3imySQyjOYWU4KKU2mVpFyDAAySvRmaRFiNOMt8g8f+QapIdPStm5aVD+Q+2l7C/+NCZA5Ivfsy/jN/5DgciFEmsXuggv9P3P9kDbOYDTgZT63bFsikqD8s81dvxlPjicyMImOjWdV3UMs9s3TlXXbyTDxVOUCyVBIY5joLspkyEOljrpanSKdYd679N8qPbaUvvgTmVueOav8cD5y9gQ/yO/xle1fidApG3VfFUPIb+EC33/8TbA6UHkpAcrRywoKFIOYAQONSNGQQHHUArvIRaxurjM87ts7mw0w3jXMPH3f7w7cKHr53wPwQkQmQCRk2bOGYjIYpSUKIttsj/nhs8iydc0cWyXKswEiPzxkOELvPIEiHyBm3WmHz1fJP2yIoGv+v3P5RaeNRo5DYhwep6kUrnRc+ZilkciEyByLnf93+dnJkDkS7jPX/Um/qrf/1xv4SkjErJxEsJftIFIe29OO6ciaQstCzRN0pkcRMQmgFYFE19f2R2YAJEv4dZ/1Zv4q37/8W5h3lLPn2ufkCcAkoGD/DkziOafyYnki1O6aMeAiLxWNh5zAkTGewJ/3L+fAJE/7v2dePUcKNrm0IymcfkYyXzsZFtjXPvEOM7DSUSPcmokwv+eiES++iU2ASJf/TP4D38F+czbfJjVWBDJ05l8sNUosdo2IW4CRL6+y+RrASLti6x9gbWPYWwPhcf+Of/9r+ttzn07z/YZvg7X3n4f2/98ulm67dd7wfc/n92blXjzsZtS8s3cxXIOhN/pSi9pUSYGEYA5h692TmYs0Xu2X7/gz3cO13a2H8mvNZ9tnK8j3icB3MwX9kyvkf/+eJ/5dJ+zPRU94zWSBM/nGWXR5eh7Zo75kq6OGdye/7doftpS3bHvc6b7f0qJdzwQOdvDH+/GXODz+1J+/XQ34Ytc9+nuT/tNP9dFdK4fZuz1fpFrPdf3aP+5nNsQXQid06Qyk42ebNsgdD3lF/tuclBRUcvppGWnv5LzAZI/NoiM9/pnAotzBZGxd2LsPRjv/cd9phcIIvlzzd/nXK/vC4HIKQuuLcQ9V4Qd9yZc4A+MF86NZ/g7HjHa/pBP95mp8DzbF0chnPWka/vLM0Uj53JSnu9tzPUeudhsbCSSg2SuEyGI8CtffOPd/7NtorOdgPnvXfAmG+fGjPf6+egKvszYA0UAd8wJP/btxh4yYw+FCz0k8vs/3uFzpkhk7Po/1+v7wiBythe+0Jtwvos//73xTsL2TXw65/DxQETIw3z2yZjv53IS5yB2ps851ilwLJD8se+vDPmkp2l7JJIPwU6V12k7aIyNRMYDkdNFcn/sz3Sha+rL/P3xQOR07/VF7k87iJyJ/2oHwLHg/O8CInnYdrpT41yQ+Mt8IKd7rfFAZLwHMh6IjBeJnHswf/o7kYPImaKQ8a7/Qu/veJHI6MLMuJCxkch49/909+9cIpAL/Vzn+vvj3d/xIo3x3me8COFCObu8VeF079P+2c4UiZwtnTlrBJwkJx0fxuNEchA5Uz57oTd5vIcw3t+Pl060//7p0pHxQGS89x/vJB7v9/P3PxOItIP4eK91Xn+fEatyH3VN+mLyEm/7NZ0vJzLeJhrvmsfb5OP9/oX+Pa9/7LrJP9P5rP2xn4fDwfIv4ZpOE+2e7TPkIH6m+5y/3lcKIu0frP3DXujD+bJ+n4v/bKxE/pDyz9H+/Vz8OU+H5nwgowvpNOMMTgdcp/u8+fufDxeSv9541Zvx7jNLvDwNz0Ssji7qM0Qi44HoKKdyGj5tvGv794hYzpUYHwvm+e+NByTtIHS6z3O69flFPndeRePvnI6zGQ9Ecv3Pmfb2mUD81Aa8fCr86NCCzH076+YUfwjxpaCd+MkMXibFS9u3DA5RrttQNsNCwo1Oc2MTxqlBf24JqC48KzGN8c48lwXGn8nnk/AaY86JlV9Urlm8ujAOs7kuSq5taKZUGCyOMGj7krBwDCAor7C2kXAc8ZBtOGUeliLW2Eg/5qvt82Z3RH5g1Mf9NDmQLLYMDkc/Rfss3OwtcjtB6ZdLAdtUA6BOfo0nQ1fzXEYvMVKSdgFjPUVq6jJ/hp+K1oujbvIcXsUnnOjyndYAMqeubU3k16CARb1PxCHd8mbtVR0Znpk9qZOr4JR1k72YpMzZsstf99TldObPe0aAG9X0pwjiQFzWTveVdy5zcJeuyac/6XPAG8PnzzvFdZftE/GPbZ8imHVAszQuEwSz2UL8XLzydpBlVUzWSRaR5M9p7PeT9zkZbaSU1T5a4lX3Vp5N1kgp15n9oppbpJ5sXqJXM9t5fbryftGM0c7tU+9NNmgsT2dyg5g0iqBxoBDtqaJIudiYVCrG0GwLA14diZHCsCzlf5P9GyCABTcbsMjxihHMUIOjGXSdAEIa5sitUiueYyC5QHX2XPAmyuP5vCFF++Zu26ISAbRtLD4QLmaYGo40+hGaKWy3ICY6nPsaRA0UzWJmhWyIR0bSCNGpF1E2ikCQAAU1SIlncagRFBQcZsMOxEg4bHmwXEesyVuthvycWbDhJSFM3UIs2039Iw9TptmrUZB8ePmf1SfOYYXDFRTc8beYRKg/KQjh/+aUZigLQNHCaZSgaBZkJEMYBTCiGCW3qDzDkhiGnoNK5iuSLayTcKAGVGlpAj3REI+EsEpluQe1uhov0d8Yglkq4uPje3BiaBiVahWVYhldhSqmWb3wWw34A3XMmjET9VoDRdeFbloY7h9EuVKRAVuameLQwBEUKg5MS2A7+7R0Y3XkmQdBIP6vAsx+iK5SBUkQI/QDOMUS4iCEYVtICW4C8Or+ZLZLkDnGYkuvXoP/KfKNbDOqbaMhyshhk87zsnEA3w/hxz7skiGu+HyC4qwi4ys4nIvfFHA6OucGJyjZJTGkjpuh2gvcN0UTYdJCnWDkGBiJAwRahKJelmfP58QhXlqcwEwANzVkzZpy7SZgmGIQJeba7EOys8NNBqeT1KdFXGbS0jYyRG2RzNmORlOphtD35btlu3JfoiiCaRsIUjVTKKQLnkUPXK62GJxQZGX/BHTdDSIUrZKsUXrrmgTOVBf/GDGzkmsS9ERbJMLxjQnSKIRm2Aplw2yAiclNF6mbYnFqmYMWPPQNH8dwYwhBy8NwfQR+EKK3exIumnIRJpe74aQ60mYEJzHg8pTkiuXNMbPxiFokr5twniyn1MtckrOcnvkplKUQ7TkgQWTg6HFMnjkdQ/BRg4ehpIajfQfhDQ+jWRuSyIMLe/L0mZhWniFDlTj20abtOdekpWy3uIUDYmgWGRHe6OalRzF05q2mrn5OixFwnos3A2ErpQAAIABJREFUjIN9h9HR1SERkC4uX6lMqeNLqBOakYs69TmDRR4IT3AaKvM+aYAnD4UbI4MUici40RkZEOdiJHyIpi0zYDQ/RtzihutAt1VFGvtwdFOtQc0YBZE45jPL+l6yU0qduHxtlY6ZCT8fZ0rE8OMWUDYlEtm6bxt2Hd2Hjds249jAAErVCiZ19uKKiy7DTQtX4tLKTBkSYfFzwECz0ZAFx8VpOhZq9SG4nK4HDzxoTvgnMDA8BN8LYKYOSnYFk6tT0FnqRIBQ5tREYYCSaUMLU2hRAs1x1CFkKevFmNecAS3vlQTHcrRyJIUCETl9udbkZwnJCYLo5BlMaM9TUf4c8aeFJgZaA2g0Gur5EUjiCCW3hO5KB4rgIRQjrEeYVO6BRmf7VqLWg0av6joCI0ZIwzddx57Bg9i59yMZBVItV1A0LMyeMhOzK5MFTtBUn7dg2YBmAQH1OaY6mTOrWvVBsuj/lDBAHTcnz1WCSKBAkx4wQmvRHtOQyDIIQ7l/jbAFWDps08UwRrD/yH4M1YZlxsj+A/swa/oMzJw+Cz3lHtiajaTFAWUWOosdiAI1f8jMrSFkSMlYEOHpy0FFRMQcRGTTA/UkQKrbOOL3yxjGj/ftxid7d2OwdgJes4VafQSd3b3oqnZhWvdUXDJjNuZdeiXmTJ4tN6w1XIdruijYDle4supjhJCG8la8OIsP5WxfGYjkuV++CPLvcRjBLLr4rHUc7376AbZ/8j527/0QSbOFMGjK2U8QmTZrNhbNW4zFVy5Aj16BU4tgJxrMSkmuK9Y0SdvaQYTP1CSA8DSIeXIF0F0Lfd4Q3np/O7Z9uF2AhA+DG1bPgIbL9hTFJ9dJSlRXaYCEyamuIgJHRQ5c8jpPHmmGI1hlM3FNCxEdx+IEDue5JAaiZoDLZl6M21beiJld0+SES2LAtRwBkTAKBbxt2xag5OupKC4P21WcI9eT2gg5GoJ71kyw88DHePylP2DPiUM4MHAEVrWCmKszStDpVLDi6iX45oqbMbtzBoaPn8D0yTPgtTwZj1mplCRIPj7Uh2pnFYdbR/DW+29i36F9OHz8GMIwhpnaKFklzJgyG5fMnI2rr7oKk0u9KgoLIjm5Td5vmj9ne0ZSxzOCSDagWNJMZZgkEn7xmE3Q8kM4ro0IKZoBgYKbycFIMIKjg8fw6fH9+PizT7B//374fktOW9s0MXvmRZhz8SWYPWM2pnT2oqiXUDWqckqHrQgFxwHrE17aQGoBHx/9FBvffhPv79+N/kYNjaAp93x6z1TM7JmMBZddKXtjcqUbRqTSmqLtImxGsC0XusXNryIORiC58G804hi7R2TMKh9uBPIqfC/dNOXwCiPOW2Z0lSI2UzhmAXU08N7u9/H2B9tx8Oh+DIwMo9GowbFNVAslzJo2E3Mvn4u5l16NKZ1TYHP4WGSo0amaDpOgyzWUeeSeyokQRJJQNjTPlSiMYVi6DGAcjhsIDR0vvbMRG9/ZjAPHD8rN4fM1TA1hGEokxhMyDRKUDRdLFyzB2jW34+LOmfCaDViaBddwZAo9P6hsnDzw4GmY5YlnxJFRoxy1EXL5Mf/MblPTtjAYj+CFdzdhw3ubsfvwHjkJuytFGXhNsIti5vcGLr/4cty1+nZcf/l89CZF2CGyFI3XpavB1nkkwoyOiMtWeUNDFHgydjJyDbz/2Ud4+uUX8N5HO6AXyCGQwVeblJ+P83Xl/OOD1bMcM3NjJ3jkeTEjkWbAkCj3IG1LabK82uAgb0NHvd6ElmgomS7CVoDZU2fhrtW3YtW8JehwytB1U9aUpdtICXyJAYsLM8MN8VnNQERy+IwLS0MNqcEFaOBo8zgefeEpPP/Gevgu4PZUkNgGwiSFX/eQNHxMtbuwdvXtWLvidhmlCT9BtVhFHCUwTQNeGmLEH0ETLTz96rPY+sFW9DcG0PSbErqbqSXRT8WtyMl3+5pbsejqBehxOsRFnp/PltRarYicXzgJInnqp9zW5BSOU3DfMY+X4zxbX0xbvMCHXXAkXWkkTWi6IdHPjl3b8Opbm/Dx4X0YatUQZUPOuYHDwBOuqVqo4OLps7Bm2SpcPedqdOvdSDgLwweqhTKafguJG2Dv0U/xwqaNeH7Ty2joCXpnTkOYhJJOeLUmSrqFKeVezJ19mTjnXznnGyibJURhCDOyYBu2OMhJgsK0jOuGHyOT1p/cGxmqjkZhTHdSRLwmriHDksi1FTFWTpHaTKRSDHqDePejHXjtzdfx2dEDSKxUphw2GiPoKhXQGK4BoYaLp12MVUtW48brV2KKM1VAlUEAR6jao252vNHJyXRGPaBUuALmPYIzcSgXw7kkx8IhvPfpLqzf9DJ2fLoTZsVBscr8m5cYyoZpclYrRwd4MZr9IyjrRSy5eiFuW34T5s24BmESwNFtGQTNm2PpBow8Z42T7OI+zzSOcl/Zz+Yne36TmeeSWwn0GDsP7sbvNz6LDw5+gsAMAT1GlXl6EqNULAoynxioyXT7Zddcj7tX3oZ5XZfBZprBkFykwyoyYOysyGGifBZaG0w7QsSWJoD10tZNWP/6Kzg83Idyb0nmuCRM0WTqHAFJQo3T4KICEO6MPBIxXVulM8QqLp4s180HPPlJgnKlCs8LkASJAEajNiIzcb8x7RI8eOu3cMWMOSjqRSEJeXI4JiMQXURkJheivGe2ITMgkQGe3H8x07NIwvOdBz7EYy88iU+OfQbPieHbQD1qQbdsFHQHbmoj7mtg8eXz8eP7vo9phSmoDw9jcsdk8WVl/u5xqHjqYfue7fjlow9hMByEVtBlIBZTPZ1pXWQi9ugWH2PurG/gjtW3YOE3roERAUXNRsGwEIcJDFMleZLojUYinwcRfk41rItHkhpwzl/iluMm4kzi1FIp0FA6JOC/4Y1X8e7HHyAqWDBKLhzXytI/pjOJ8GBh00NzqI5lC5Zg+XXLcd3V16FL60AYBCjbFZnrM4JB/OvTv8Nr27ZiMGjAndyF1NExWBtGd3c3WkMNVDmKtL+O1sAw5l42F9+6ay3mz7lG+MAS1KCvnBTNCU45FITgbF9GiuPhh8vPYaEjMq6QmE7+w09jOdh4P/riE3hi3VN4ZcurknZVejvkMGT6alkmHNIKET9vjKQeY2b3DNx1051YPm+ZTFPmXCELNmzaYmZTSBg1jkYiiqwiHMRCcfJiONpI00zU4eNQ4zgee/kZvLt7B/qagyj1VpDoEQZHhhBFHgzLREdHF6IwQcGwYUcmRvpqcEIDa65fhXtv+Sa6C90oy4hnnor88Abs7A5EHA5tcWN9nh3PQUSRQG2eoBk3wigk1GM5pV/88DU89NyjODByDE53AVHqA0GIoNlAuVxGqVRBlOoYPlHD1FIPHrhpLW5dsAql1ESB82NlbIuRkWl5pJC5qMuQ7AShkcrwpx0HP8HTG17Atj07EdkprKqZgYiKPJiGcN8y5+b3z+lYRvkfBVoBUw8Zgcl0hkCSkbNZpYg5fbFUQRBEiIIQVbckUZ9fa6GSuvj2yrVYsWAZZnXPEMA2JFopStgdMJS3slO9/WSXSIQksqKjyFy0Ug8b33kdDz/7CMISELgpBsIGjHJBhn3roYbeQhcahwYwozQJP77/P+EqgpfmwtJM+EEEx3WEAj4eDuDJl57Ey1tfQdNqwShbMs4zjCNoiQmTXICvI20kKHom1q6+A2tvvh1VswAzBkpGQUg+2zaFBBVwz4hl0qACuvJ5suhP/V9ZytgGIox6LaC/2UBqx9BMA+8d2o4n1j2BDz/dBatShM900jFliDl5EaaU5VJJImdGWeGIByPUceWsOfjh/T/EFT2Xo+U3JKIquy52DezErx7/DfYeOwDPAiJHg6+lOD7YL2uvq9gBk4AYpEhbkfBQ5EhWLFuJ5fNuQAUl4QX5PHi4qpKEKjkIq3am8yiPKmOuNx2JrgkPw73sI0ItaWE4GMEzLz+HbZ/swGd9B2FXHTgdLkaCJpreCExTR8myUXEKKBoFjByvwfJN3LbsFty1+g70OD2wU1MmHNpCsqoMStLvvDqTlzS5SEiDsGTJTIogMoQG9g4exM9+93McHjmOphnAKJvwEx9h7MF2LMnBeJKNjNRhpzZ6K13QvBRxLcDsrhmYN+ca3LTkRkyp9KJTq0i9gvNZLRI1XBzkK4WMPgkiY8ty7bJeKU1lICKAZ0SIdA1PbVuHXz37CAbQRGVqJ4LIg5kkwpkODg7CcQood3bDG/FheRq+veab+M71a2UEAmMQIzWg8wFmnLLiH7MzUE/hG5FUbfY1j+D5za/gxbc24HhzGGbVRmiGEhHluauka1kNUviutvJkO1SORlqmAi+WAFU0cvLk4SbnYCj+XxxJyRPS4ZhKzYSVGiiEFmbZU3H70ltw7TULZPMpR3ZLIj9DmPUsL+Kb5+XH3JCZH1TXBAQ9+Hj6jWfxs9/9vyhMq0DvcDCcNpFyg4UxWsNNzOiYCgx4mOx04qff+wkWzZgPJ6sSRXEMw7Fl6R/yj+G/PfT3OFA7BN8J0NRaCDSO9FQnqZ7YQtwV4gLiYy2sXrgc37/nAUx1e4AoRMVkFSSFaWjnCCK8N9yAliI+80iEn9MCGkmAWlLHZ/2f4ZV3NmDTto2oR3V0Tp+C/QODMkKUp7KUOOWUTSXqi/0AM7unoe/AcfS4HfjRfT/A6qtWIoh8GJEOw9Ww8YNX8cgLj6OphRiOfdRiD90zpsILA0lNfHJztSa63Aqmdk2W9Gbo2AAuv3QObl52ExZfOk+id9dyhXBlHMx/eOhya2RZ58lFMaZPgu9hGDrCNIaXBnLYNRIfHx3ajZ2ffYxHnn4UdncRZsWAp4Xw4SO1NKQm2x0ihATOMEbVqUJvAnoLWHntCqxd/U3MrE6Hy3iEQMIo73QgorZvKiUwcoKiDdBICuo4kY5gz4nP8De/+pkAim/H8I0AQcock0w80GzWYdgO0kSTUNSMDQmBpAISu7BDHT/+9o9w8ZSLMLM0VXKrxE/kBjlC1OT8yOlBpL2cmwOInD9Z2TI0IyGMnn5zHX738lMYMQM43WUMDPfDSiOUCkVYhomBoWGUyp1IQ8BsaLh/zV343rJ7pDhtcRskrGqospvsfxlDyZJhjGbkI7QTpKaFD/p345H1T+KtT95HWjRhVWx4uo/EiLN8XC1AAmucRKoCYpoSnbRrUHIAkZSFKUwGIgSx9ixICEXo8JMIjuPCsizEDQ9xQIJSg+3pqDRd3LX8Dqy8YQWmV6dKzMeVx6iwaDnq5FCFn9FJdHkEyqoSAZClPgLJi9texn9/+F9QmtGBET3A0cYJiURI0LaGfMzonAL0B6imLv78O3+CpZculGfJA4R8xEjUkFPhWNSP//Nv/i8MpzX4hQgDwRACPYRbKgKpiaDB0qKNbrsbxokECy+5Bt+/70HMKk1GEnrosioS4pMOEy4nS2fynSTlcMEjNeyCWgeCyGiUk+EmQXio1ZSRoIf9w3j2teewcfsGDIbD0AqMGBKkhRKaQSgcETkk7lGWlgnGJauA1EuQjITotCq4c+Wtcij2Wt2yuWoYxpt738Tf/PLvkBYtWN1V9DWHoBcd1ENfXo/ppaub0BnVNDwh1sm1kAIoJBb+83f/UgCqq9QJF66U+pldcq+wukkQGauqPkU3Q7MoU4MXhxiJWkgcoK85gE3btuCltzagHrfQ7w2hpXkwK4y6+LM+wpSELqcY8tk20OV2wAkttE40sOCSBXjwjvsxb/LVciiMCyKCvXEM3TAQRj40loRUlozX9r6Ff3z4F2g5ETw7QGhFSHRShiGg5doIngAqALMSC3aqwwwNWKEJO7TQZXXgzx78Ea6dsQCtxojc/K5CWTa0ZDUGxzCetO4bJU4zo2CeDgS5HDjaI5NA81HX63huy4v49frHEFZ0BBZL+RH0MBAAkUWRpDBMF0ZqIhkI8MO7vo17F92KCgoCgK5e5CRZWTxaHKm5Kjydo1CiELPg4tPmUTy+4Vm8um0zWmYIq1rASNxEYqdS8p40abKUvf2Wh5JbQLPZhM1UQtGDqmJA7kVXaoccIJXAJ4tEWJbN0p38Z4ZbDXT2dAvnEHB8JStdYSynZKdZhdmvoYIi7r/rXtyx6Faw3o9GiKmlSWpurxcJD6WTqctOaJmZJxUP6nUiiUL4NNe99QJ+8cRDMHpcDBtNuZchK/AURoUGyomNom+hFNr4q+/+GZZculB0D9wosp1ZkgawZ/hT/Ldf/z0ONY7CL0ZoGj4CnjJEBYr8Inq1OqiijPh4iMWXzcdffP/HqBoFVGBDnkaswxgtK55MaYRAHAWRBGHswyIRy6pJEIvMicIwlqolxDcUiK1/Yz2ee2OdbHynx0UzbmDEb0FzOJxLVXRykSKfh7ArsQ4rMiQ9j4Z93LPmm7j35rtRku1uC3n8+ieb8PsXHkdfcxiFyd04OHwcHnUinVUMDQ1I0cGmdiOrzFGsp8WsiKawQwMLp34D37p5LeZedCWimLofAyWJShzYmoE0zHxsBUnVOpIQhVFOEMB2HQw36tALJgzDwsHmUax7/UVsfm8LjtRPwKzY8K0IoRELkHP/SqCQlfs7SmX0H+5Db6kbhdSF19fAqgWr8OBt92FSoQcVrSJRr52Yo/qwU9KZUXabJRbDQBT7Uq2oCxUFvLbnLfz3R/4Fvh2hZUWIrAgxL0Tj3+YcgNIKjP5DIU1syM0nkGj1GPMuuRr33Xovrpl2FXyvCSsy0Vksodn04TjWKIjkqQqjo5OqvUxIlEUfY0GkqdfxzJvr8dvnnxAQ8WyerhF0su0EEZZS4xS65cJKTESDAX5057dx7+JbhatJCXokjkh2MhKQO8SjLIQXB6inLehuAa99+jYefekP+HTgCCI3Rcjw3E6ROhRp1VB0CzBF0JCg6BRVdKHpEs4KcWtkYjEBEzXX5STXDinTqhJwBju5Utg2hW1vhYEQjQSROPSRBhEqZgXJiQhlFLHgivm4deVNmDtljoTFVqyhwygh8gLYmiWHRJ44ci3GUhlNYOiRkKFcVM+9uQ6/fOI30CbZGNFb8KxUQESGdIcaiokrIFIOFIgsvWyhIt5SU0AkNhSI7M5BpHlYIhEBETMDkZjEqi56hLKASHxaEBG6S6ot7RWaDJBHdc4ZkU0IFAEmlaW23FsSjM00QDPx8Pq7r+Olra/i8PBhJBXSMT5aSQu6bSFOOXA8V96qXFKBCNcxFIhEBqKhEPesuRPfWnOPAhGdYkMP+5oH8A8P/zM+2PcxqtMnoWnGaKUBNNeGH3pKPsE0NVP6ilaIjIemwY1N6MdbWDjnGiy/fgUWX3UturQqkiRGOOKjYLoo2owmyTWoihp5HeEe0lgqMc3Qh1m0hfj/5OCneGvHVry3dyeOjRyHZ4SIXchBSC4zFNGemoMs0XGayjB2Vt66i11wIxtGI8WKectw75q7McWZJOkqI3UzFUXXKNE7yomoMEm0yVLGTGJfbixBRCKR3QpEPDuCRzSzIqR6iFjzoYvkV4l6UjK3Eo1ocirpMR+ACZvpTWILR7Jy/lLcveZOTClPhhnq6CxUZJOxDJZLm9v5DlXvV1L10d6Ok5mh3IBQ89HUa3h2y3r8Zh1BxIBvxYiNWHJrS1ImXQmxyBdwsQ8E+E93fhv3XXerMONSyOWJkwCOlBYVBc1oy9dD1NIW+tMGHnnxaax740VoHS70ooGh5hBcko4Ga/IBNOokCkUkrQhRK0TBogbAQ7FQGAVEJWrLowDFQeUpLt+f15qHrqxkcKNHzOkJGtQjmRpikpNIlJbCT6E3SQ4TIA0snbcYP/jmg5iMbnitOnoLHYAfSZmdp5SASFa1UDwOQYT8YQuJnuD5LS/g53/4ZRaJtODZMSIpVRFEDJQIIp6FSmDjrx/8CZZcfi0cgkiiI2Kp0eCg8BR7hvcJJ3KwdURApGW0EBqJVGc0Io2AiCvgRxBZNOfzkcgpINJ2z/LILq9iKSWvkumrjE1pf1sIMJK2sHn7Frz05iv4cP9HsLpsUZjWwppEKE6BSlT1imoNZoI1rgpGWLE2CiLxYIh7brwD37r5XpRSgoiDIPHRlwzgV0/+Fq+99xa0ioOwoAsvQt2NWy6Julf6U2KmYKrCwWfB9e0kJpLjdZgtYO6lV+L21bfg2ivmowMl6LEGPaCWpCi/y/Uug9N5CFEjzRIyEknJWDr/rH8f1m98GZu3v4mhqA6r6kAr6hiJmohNVa3JwSPfRkzeIi9E2S3DTSz4gx6mFCfhm6vuwJqFK1HRy3AkuyBvZ0oQlFeLvhCI/OO/qXTGtwLEpopESL/qSgkhdR3pMMleXVBWlJl8CDp6C50Ih30YTeCGa67DA3fcj2mFSfC8FqpuRWTcsnFEIKR0IPJQKd46RxB5bst6/DoHEZtEJ0EkFhAhuImST2eIaCHu9/HDO7+Nb113i0QiBopCWBpxCpuCuziWiCzQE2Hah+Bh80fv4JGXnsJHh3ejPLkTmquj0arBdEy0Ah+FAqsJIXpKnWgNN1DvH8GUrkkI6k2kVGCO9jEonUzOnbYL0hjmCrkqlSIlfOPGi1gBdk0UO0oidhuuD6LoOnCpDB2so2B3SIRVOzqEiyfNwJ/c+11cd/G1sJIUFa0II0wlElEgoqt+Hz432YWKfGZKQDB8fss6/PzJh05GInaMUNS3Y0HExV8/+KdYevki2KwO8B6T/G0Dkb9hOtMkiIRoGR4iCfNUOiORCAgiZcR9Pha2gUhVFMXUkmTCMZGHq3RGVWnUlyr+EiN92CbFZDFasYdEZg0DA0kNhweP4ee/+wUODx9H5KTQSiZqfk2uhW0LYehnhx/v+Um3Gb4CQYSVLofXGlly+KxdcxfuW7MWJa0gvF+QRmjoTbz09qtYt+lVfDZ4FCjbCJxEjuHUiIVPEk0OCwICBtmH4PiN1MAUtwMDB47C1VzMvegKLLl6EVZcuxSTzF5R8SrZvAaLinJeY5oKpxGzhYPVIGjYPbAPW97ZjC3vvY2jQyeAog69ZCIyYom4cgDJU+e8b0c4yQDornTBH2rBO9HEdVcuwoN33o+rJl8hUSx5IdH25L1PQs63KVZHIxESiRRUxeRELDQlndGxafcWEESYzhBEIpPNVFyClKJl3QaamfWbnER01g0Zl7BCoIc6qkYRzRN1TCn34IHbv4Vl85ZI6hA3Y3Q5VSlqfa7bkCItqZWSoT/JieQLSZWjfbT0IRBEHlqvIhGengIiYazIW81AQuaeopnEVCByxwO473qmMw50CrhZdmRmzDA/8EVRS01IZOn4zD+Gh556GJs+fAdpCWB9OjF5gquc1Pd9dFSrSPxYxHZJI0LVLGPxvIUoGi6ipq/KdRnIEiBGe2yy4de8c7noTngMBodsXzBSfLh/Nw4OHIavRzCKFoKoJe0WVBo2mh5Mpypq0XCohXJiYfnc67B21W24qvtysNOJUR/Lc+zx4dajbkK6RLIyO5dHkHhyz5jOEET0Xhs1vSVkOmd3U/lkBAbKsYtSy0ElbI9ECCJS05Brlkiktg//z69/hsONI8KJtHQFUrKIJZ3RYKOgIpE+/9RIRCMxb0ET9FJdMnlVKb/mXC3B+xb6Hkzblo1VDxuiSSHDs+Ozndj8/la89vYmxHaCYk8HYiPFiZEBIX/doqN4Kx5WIg861bKKa1KBiCnRCLm0b66+E/ffdDeKWgllzRWRpm7o+HRoH57esB6vvPMGPBsoTa5iKBzBieEBVLvLsjFUjU0VL5RQkjJjDd0UrQ3Wpeesqpcwu3emkLdLrlwsYEpqgBJ5Q7MQpIFE7ix9kEwlMf7R0H68/NYGvPn2WxgJ63A6igIejdhDoAWiolb8h2oAVAeVIpCZ8patMuJGiKgWSAGEn5FaqioqolKWokO+P/O0vF1sJie+tB8yCaRcVoEI0xm2jb2+503807/9XHiG0FQgouQ7gQSNEkIKiGQnRTabVSEdIxJpDoEVKyAxWsDkUjfW3nwXls29QXp2ymkBTmqL0Cf/UuKZrOuTNfBxQOTZN1Uk4lcMBBKCp1k6Q00C+0oYCrIKYyPp8ySduef6W1AlJxIZKFCfIFWZGAnlwkxRzBR1LcDGXVvx6+d+j4MjR9E1vQeNsIEo8VEqumjUarBtB47hIGr4qrnPqmLJvEW4ffnNmNzRqwZgZ6neSatGde9UEVl9binnZSIi3mFCNHWHWz55B394+Vns2LsTnVM6UO4qodFqSHnOLhdRC0LEkYYiT6x6gF6rC3cvuwW33bBGwmKTG1azYEnzmbSCZc9N3W1bqj8BIj3G8wSRP/xSQGTIOAkiol4IVDpTbjkoB4xEfoIbLr8WFiKpFPF1I2kbSPFJnenMz3CIICLpjC/p0iiIhKqKV9aKSCQSmYe/+N6fik6kI3VQoLijHUQyZfvpQIT3jYraRtQQMVVsJDjQOIT1m17EC5tfhttZxKA3gtTWYBQchEmMgOS5YUkpnroQRXyfnLUjz4ORSKrBiS2pMob9TGfuwr1r1qKiF1HSXKRRLM13lm1h+8GP8cRLz+DdvR/Cs2JobOyz2LvjKREtqYysXK9UzawqsYytI/EjFFMHdmzCaum4pPci3LJ0jWxmKzZQNIpSJWnFTfk9zeRzDDEYjODRDU9j66538NmRQ6h0l1HormLYG0EjqMN0LUWeZ/IFKfkzIGQ1NYUUQqpGGUMH+0Wecc+ta3HbDbegABtxPUB3qVuaVGXdSk8Ye8OoL2oTmwmIsGckq86wq5HdvI0cRPa+iX96+JcSiQRmgGQURNhhwgnyfFFL8mEZAi3D4jPdf1bzZkdvOBKgy67A9DV4/SOYe8mVWHvbXVhw0dUo+JYIllgKZeQhr9nm10FC8Gwg0tSHhFj99fonEBBEKOk1YgEopidswJPqjF5QkcgJDz+64zu49/qbUWGRN9BRYt4pUQgT5ESijRNBHQfqx/HbF57Ats8+BIXcbrd+riU5AAAgAElEQVSLIGxJJOaYppCmxUJJGHQz0BHUmrh82hw8cPvduPbia4SrABds9g8XbZ7O5CpDqqEIHgIl2ecme05dhU+pNnw88erTWLfpRSnTdfRWRezUClpSATgResJLcWFbzRhWA1gw60rctfxmzL9kLooJeX5H9UbJEaBMmFUjONMKXZ1wWozn31qHf8lAZFgikRSBcBkKRMpxEaWWjXLo4H8iJ3JZBiICegQSFel80jgJImEhkUhEOre5mCNGIgQREqslJCdILM7DXxJEDAUiLkGEYU17JELOOoue8nSQpynvWzMM5dSNzQT7a4fw2nubsPn9Lfhs4CBKkzpQD5qoB550BDtuEX4YiUDSdV2kbDxsA5E80uUzIyfCA87yNUQDIdauuhP33Xy3gB9BRI8TqTiWq2U0EGPr3u14ZtOL2LbnfUQO0DmlU+QGEAmAqqyo1ELZG4gOyNZFO0WgKiQ2tJFESvcLLr0aa5aswqXTL0FPpVt6bUnk0q6BR9C+g/uxbc8OPL/tFQzFNXkto2gitgAvZCYRw7BVIx45GYKGVJvYL8bKF/87NFCJi6joBVx71XzcvupWzK7Okl4qrZWgq9zJ0ElFgzyYSTmQXzm1AU+BCHtL2JofxKGgJbt1+buszvzskV8JJ0IQYQ6iqDNGJMrIRtKFVJ1uXEApCdrMNVyagfxAmG7DT9HtdAgjPXxsANdcOhd/9sCfYnZxGopaURSCqmU+8zjIyrqmYYklgRIq5R2uSl/BEq+nqepMDiJMZ4R5jgMBEVHzMZ1hJBLbiE4wEvkO7rvuZomCjMhEyXLkRlPhSpIgdgx8OnwYOw7vxj8//mvERcDTAyHSpMWB3dvsfKYCN0pF8s8OTy62JVctwg/Xfg+dqKA21I/ejkmSX4vlAXNJcVIXNiRrVFeEp2o6IJJRq5OIGpdPge0HO47uxDOvrsP2Pe9DL2hC2rUCT+TVTSmRmyiwazo0YTUSdOolrJm/HN9cdTu6HbIMLBfyfcg7UWR00qOD90dESlqM57YynVGRyLCREatMQ3gghJakM0VPRSJ/+b2fYOkl18JlJCIAoowMuDp21/fjbx9iifcYgjwSyU5Elc6cCiKLLpuHv/j+n6BqlCCciOaIVkLKdurmfI4TUX9Bu4cYI14doO7DCLBh++t47MXHcWjkGKZeMg0HThxGtadLyvUt34PrlCTwDvwYrmMjDT3V7zsa7eShvyEntpvYsAIN4YCPu1ffiftuvAcVvSQgwjO1aOqoteqIXUbkGrbs24ZnNq7H7iOfIrUT0RBxQ8e8x4wfWOLnaU6xV2b0bDHV9FOxrejQCvBONGD6kNTmu9/6DmZOnoaKW1ZCUOgSaWzc9DqeevUZHI77UZ3WiULJlfvASp60UliaVIfInAuZy5Q9AmwpWxNIACey0BFVsGz+DVizfCVmdk8XCwBW3Mp2UT0DeQ4ZiGSkHVsQ2hrwlLZaxrFKV3LCZyGbhR90wydv4r8++RBqdoDAoDaEbcwq/OPJxfPMgQG/yRKhjo7OLgy3WtJUVumuou43hRHWNV6YIaG11UpRSguY0jEZMyvT8f07v49ut0u4EeUtEqkPwtOPoR7lwgQRwhpRmKVSVgKom9AYhkd4assL+NXzjyJiJOLG8uDAm2kostYgkx6SbyoJJ/LdW76FHyxbiwJVk1oJYSNAgfDlGqg1+9EoJDik1/Bff/tP2HXoY1hFCw5V+3EoEvDU0uETd5IETosEpo3+/cexav4y/PjeH2JGdZoQbyyLmRqZ0Rwm+D1Xf2U63QwcWakSoVlCXUwopB19KZqaD8N08NLOjXj42d/jWGsAhUkVIQd9BKiHdfR0daM+UIMVANMqkxCcaGJqaTIeuO0eLL9yqZR8tSCR098yi+qN/UgIW4anR2rHUeoo44m3nsKvnvk1gkqKoJAgsGIk7FFgiTxgI02CSc5kpMMx/o+f/u+YP/lKZs6igeBBlFDaTp3I4Kf429/8Aw43j7VxIqrEq6ozWTqDInDCw+I51+LPf/AnciKS7OZ18mjlkSK6P0XLqOqAKJ0j9Wy1FMNRE6lpCov3ys6N+J3coz50TOuEl/jio8H2DK4DKm8dp4ggjFFvtDCpuwdxvQVbIoREekooY2HLgpCgQYyC4Qh3E/a1cOeK2/CdW+5HKWEfkYMilcOZC1czpjKXFb0E+/oP4bmNL2D9hvXomtYjqZZdcZC6qfTXpCX6hugYHBxGt90hHBG5V0Y/FO+JpiSk3irBpVNmSZSwcslydKATh8OjeHHDK3j3ve04Wj8OfbKLUA9p5gMkkcoIuFtY2RNri1T5iqQWirqNYmTA8BIUYgMdqOCbN9yFBZctwCWzLpKDNPVjESmKT44fjBY3FJBkYEKq4aTHKh+qqvAK05smKDLMinwkZoyXP9mK//vJX2KI1RnDF4VgIcshfaYMrDNHCQq6Cc9j+ZcGPRpiQ4NVcjAk5ja2hP+MM8hGGy0NhgepSZOdv2nxzVh13QpM65wiFQ6mPQyxpQIZpuq7QAjBIcvJdIKI2mTcTM9sfgG/IIhUNQQOF3M4CiKMFpiihYGOglFC0u/jwTYQMSNHulFJsLE90zcDHNNG8OT2V/HIhmdELm3a5ByY8GcPyTZQ5zqPY/TCReNwP6YUe/DtW+7FmgXLUdHKokZMA6DgklhTHcLqS3VB5jUatvhLaZx+HHm/RJLI52NEUk+aiG0Nnw0dwvq3NmDTjjfRH9agFSw04iZ0O0W1WkZQ96TFnPevdaKOql7G8gVLceOiFbi4dyY6zAr0IIUrICLkhdJUFwwcb56AU3Tx6BtP4DfPPYywksJ3QjR1X5lQ6abUTNDU0G12Iakl+M8/+V+wcOZcdDICSk1ycCKnZu1uz+A+/J2UeI8hLARomj5CndWKHETI0zgikkNfgEWXz8eff/9PUW4HEebtEkaru8bXpwmTaxqZt0UiEQDJX/Jdm/ZuweMvPo0DI0cQ2rF07HKHS3c19RWpDnqsmIYjkVuj5YuupyRAoAsFE1FkaaqoXNLNIIajWZIqBsdauGvl7bJ2ikkBpdgRJaoR+sJRsNTqsc/K0DAU1/Hexx+IVcSLr7+E6ZdOl+dIpazVXZTnN+SNYMqkyUAdUnwQroN+MGy753FKU6AwgT/UwA0LF2PlDctQLJbx3gfvY8vbW1FrNOH2ljAQDcm9ZZvHaOMoIx1J/wypVnliNlRAxSwi6q8j6BvBpT0zsOiyBbjz+rWY3jUd1WJZGgvjkP1WthziQnPkRQEBkOxhfNkgYvqhaD7qIy1pdHMKFfQPD0kjH1wNPjd73JIThOIZR7Ohe0DajGH4FqaVp2LNdaux8rplmFTslAYlLiZRkLZCpYfIbOjySIQGNWw2UpHI+YOIm1rQAlMWg2UYaNT7YVRt7Bzeh//y+5/jg2OfwGC9XY/hcLOz5ZzVFduQlm/2s8x0u3Bs1z7csvRGfH/tdzDLnixkmBWbqgphses5sxwSi0mlz8hBRAnO6NmQgYiUHrIGOaYzRoQhvy7l5g8OfoRH1j2Jjw/tQXlSB9KigeP143AKjhwGfE9KlMNhT9SQ06pTcN8d38J1V1yLTlSFEKagtcMtSuoYUWSop8Lq666JJzY+hd+/8gRQ1REXNTRSD5pO5agqyUa1EMWkCNM38Nc//ikWz5gPM/LlPWUJW+REgN1Dn+Jvf/V3ONA8iqgYnhFEyC2kfQGum6NApJqBCIvxEv0QRrI0I6C7AY8oLZbINgkjtFJfUrpd/Xvx6PN/wKYdW2B2F2B1FTDsDYuRkWsrO4iCXZBScGOE6YuBcrUqG7Y1VBMLA27+dhAR5AoTOfjOBiJpswWrYCExdTSYcGhKpzKYDuLIYB/+9bF/xcG+AwIiRtUStXMtbkrp3rQs0d/Q4kFc2Ch8ZFWSnkdMweMU9b4hTOvuxfRp08R35MRAP470HUeiG3C7ixiJRqSyxsZNXRpcs5TZYPVGR0BHNd2UvWcEOpLBBrrNElYtWIqbF6/GnN4r4IjcnrWIUDxDTFbjRC7F18vEIblIJLdw/DIjEcOLpNU/akWYe+XVmD5tFt7dvg0Hjx1G7/TJEso1goZ0cNKjgZUQ5meUNdsRiSRI3v7g3ffjxqtWiKUhGgGmdUwmH6XcrRhmsRIkfAtRlv0erF6wkhKddyRCdy7EtjDWrkGCronBqIYXd7yOf934DAYND3qRnaQBDHZiilDIkAXTZDIXJpiUuigEGr679gGsvGqJqBnLJGx9nvoFEbKN+m62mQIpepMxlqpCCfkqTmHZF1O4jDk84Q/TtAV94SCe27ger27dhCYtFjoL6Gv1S4QmdgsUqwWa5L1mpItD1aKr5uNW2jJcPE8tsIjX5ShbySRWfT6GkkU/+dJTePyVpxDaKZJiKn1DJpvqklQa5vyaDze20Wl34M9+8GPccPl10HxP+JaUnpyWoSKR4X0CIvsbR8YFkSSLRH5KYlWn7L0g1QFep6JNAZ8+uRbVdox0PAzXhoSILxVL2Nfcj98+9Qje3rUNoauhrgeIrQRm2YEf+lIe9etNVEtlsTc8sv+oKIoXLFiIQqmI11/fCNM2EUvFgw1siZRFpZIUkfOCgEh43JN05ru33ieRSDlRqlUjJNGgPEzqCcuqKXSWYxGigRb2Ht2Lh594GB/u+xDF3jJCl+ZPMSJHx1B9RIykSAW09V1K6wOBhCK+kmHDqzekg9u2HJG5s5DBNgjyK+xOpgcKbS+UoE0pCpXNB9VcdAAtSftDMOxhZnkybly0FGsWL8Nl1UszS1RdDmvuT4n+Mk2LxB15PZ3gkf/b3sUr5rkXmM7YPMxCTRbYqqWrsGLpKmzfvh2btmwScVR5UhmNqIUWm4PEQ5DEnuq1KWgFYaO1ZoIF37gad990O66YejGsEKikNiokdzyCiJo3KlGA/Es+gJEIQSTEM5vXn1c6I12TqYEkYhczBT0aNu9+B7978XHsaR3HiOEjdXXV0xDE0hYtZTqeYFwsbOgbDHD7ktVie9Chl9BtllHVSiIldouq1q68SpTcOE9pBERISelSvVd9CaJazTrOMicyKaib/Kyqzfvj45/iiXV/wJvb3xXlrF4wpETLHJYnWhJEqDpF6U1pDowI8Xvrqptx88qbMXvSLJEx873DMBLimc5wlmOiETXx/Osv4NkN66WFPHF1eBRj6crromg6QiCzDNlb6cG9d96NhVfMkzybxOD5gAgJ9eREIP4krM50agUpuxNExDaQV8pN6ljSdcqytwdPRGX0vWEV7t+efwSvvLMRQ2ED1Wm9GIxGJHIrlAryrLixHDazpaZcf2OwjoXXXIsbV9+Eo33H8chTj8k9TCxDQIT+NAQRMZPiDgySz4FIKS1m6QwPIOUdzAfoJfRX5XPl5k3QREMi8l2f7cIf1j2F9/fsRGlKVSo3LDs71QJaMRXgJ1XMwp5lwkPqrFyKBAkOMtpDQ0jQZ4pmm/Lc/KghVhr8nBKJSBNnpq9JdWn0C1ohgmEfPW4VqxbcgDtW3IRLqjMVvxSw3cMUALEtEgk8W9TBbbCKkI9SbQMQCU6+zEiE5CSVoIOH+rFkwfX44QM/ROiFeH7ds9j09hZUesvw9QC+mQgjHVFxF5H80eEytWmmmFLqwsjxAVwx/RL89fd+gsvKM9GqDUo4Tss8Lc5yVOZ4AiKMyrN0xgguCERI3EnYJo1xKX73wqN4YuOzwOQiBsIRGFT+sf8hZAOkAj/uc4atlAS7tRj/24/+CtddshB+Y0Qa38j/eDUPrqusF4UJkYWiUpnc1T0HEVa38iY85bmSEYhiGBXBcByMhA1Z6Pzaumc7tn2wXYx+DFdXPh0s7FDnEibSx8PIxK+3hPS+4tI5uOrSqzC9h7Z3NqLQF4FauVBEy2uJDwhbLnd99gne37NLhEp2yVZS9igSkrHsFiRPT1ohKnYJV13+DcycNF2iH3Im55POEESigQCL58wHI5EuFNBJYpUafwERkrBkxB3RJpzwh2DQggImjjSOiGvab558CKUpFWl/b2ox7K4Sal4TI/U6uru64NXq6C12IhxqIm3FmN41Gd++537Mmz0fj294Cs9sXAeUTNmUYerD16JREKHYjERjHomQE/nebfefEoloTAEyOTp1PUnmf8NKipd6ksozjdp5cKeYA7235wNRlNrVosgRmOYwleIByfVAXpJf1N6QGyHwsXLJZk6u01YYiRhSMy1RTId+U0BEomSCj3Smq6ZIZSigozHQQKddxYprb8BtS2/C5V20LwW8VgtFt0O1W+Tu81EsBQNJaQgi+ZjQUb27Ws9fKojwgRd1F0OHB3HtnAX48Xd/hFn2dLy37128vuUN7Pj0fbT0EKGTIOKCNw34YohDrwtD/D16ixUMHDiGQmTg3hvvwK2LVmBasUtpSyJN+ghSIoeumqUY/uWcSGB65w0iPJMDElK6AR8eduzegcdffAYfHfuUOZbkruQKuDl5KvAUJ9LTUpBiJaoWF82Yix/e/R1MdXsR+x56nIpUFuJWAMNylFvcqI9HzocQSFTIGbJTM6s65LL3nGCVcrD0TOhoJr440LESwYiE1QiqIPVRVzoeWFloy1M0K5gT0AkARmpJ2ka9QcJSFT1YS0V4vic+IKJNSQKMBB4iI4XNNvjM54XVupLO5I82iXXYuomS48I1XLHI1PTzI1ZzECGx+lffzUGE/hW2lDxVowbnYhgSdQ6SZNZ1sX94450teGXzi9h7fDd6ZvWiEQcY8ppwu6oIkwS1Rl3IRDvUUNJshEMNcYC7/pqFWL5oqVQmfvHMb/D8u68ipUF1BiK8ryRWGcWcG4jEwhtJq4I0IapTg/eOJtVe0JJqIX1gth/YgUeefgwHBg+LsvR4YwC+k6hGTkNpbEiwKoMiHRYJoVBFGOqg06FZtihvA04hiHxY3PxMZ8insFs4McUkKm+aoyq8p9SFa78xHzdetxxX9bJBU011kDXCPh52PWdVHIlAspYTAQsJCHOpfp5rf4kgwgWui1rSRTjgYfEVi/DgHd/CJR0XoxXVcLT/GP7xoX/GYFxDTffBKmHg6PBZXeGpruvocIoYPtonzWJOqEGvBeL38eCqe2CmqYShOsuCbKHOnKx5Voes9eue6Fee2fz8eaUzCkQi8d0cikbwGzZSbSc556Cu+VIV8QlXNDgCKxSO9BrQj9LRHXQaZfzpXd/FsisWS68OO3FKhovmcAPFQhGwTIQ0pxG3cp5SeTpDIkyJjaSaRU4km9VDElMSHIIsry9W7QXUy1DPcbS/D+XODpTMMprJCILhOkocZ5EJmEigy+8kSkzFpLhAMGNLOXUNDj096PdIGE5Vtyk7Xr0GDNdGahqiNaBlgRcEKLguWs2GvAYXddzyUbKV7wX7OdRIAwMhS7wUmpITGdiHv//1P4xbnSGIBIxELp+Pv85ApEss+ag3yOYcGTpaAf1s6JthoYYAW/ZuxYsbX8b7u7dj+pwp2H/8MyS2DatUEImBYVpiREVrw9nd09E6UYMbaPjBvd/Fimuul8PADwM8u3EdHtn0HJKKfgqIcI9xIzHKOlskQjc/0gF5BYngxehN0pvMgY0bnX0ukRYiMVN8fHiPAMm2XR+gPKMDda0hHBStC3Klcg4YQrWTGM1MiQWkRHqujMXJhahZQCoNZvrFxleSwZTL01PGCDWsXrQCty5bg0s7ZstBkDR9UVLbtot6sym6EkYeuf9N3qLBA4IeNqf7OjUSUbIMEPwpCS7R6Sr0kFgxXv54K/7LE7/AsBsrsZnGKoXUBiVPJ0jxZKNklyAy76K5+J+/91N0WSUZi8DxCm9s24xH1z+FY0E/nElVHKixQchFeVI3jvUdl/Jah+2gpDuIh5sCIpf2zMRdy26STkLqBsiuV1i5gYEGe1F0C5Zro78+gLSU4pnN6/DLdY9JiZfEFUu8KVukeSownzQsRKEhJd50IFAl3qVrhR2gVRw/+0cH9+Lnjz6EQ7Vj0Ksm3J4S9h89KCMQCqWScA60fuwp9ogAif0GaxatwAMr70aXVZR+GeE5OBKA4wBMA/X6sLi561QOim6HW0wYEqEMA4EQN5tMwz/nQ8CEOVJhY5unUK40zT2G+Br0ZhNry1GiVpkM5KOK2FbOayd/QwKUC599PjQ24gJhWgib7mWejBfgSar8Ukk0e3KaR2kgqSel9okXoKvIdvUAITuEZfSBISXYsSByyDuOwPXPWJ0hiDSPN7Fi3hL89Nt/gh6qa4IYZT4QcgGco1Jw0Iqa8G0NTcTYduh94W04liE2Q5hlGg8NwCwWYboF1D2uDxtFu4BoJIDj66hqLm6+fgXuWn0bJuk9qAdD4vj+2At/wKNvPo+4w0AzDmEVDOFEvICpKM3HVQTqxha0oQRrFq/Cn6/9kXCA3WZVpAH5Bm9vElSN4DSSZmoQiQk0O8t1m1FUgF0HPsaGtzZj60dvo4YR2FRCaymavidgwlIq00jyEeRETnZ2JxLBi5lUBiwEdkYqXtMTU+Xeaq800/FfmjstX3CD8HWz3Glo1kdQMQsoOvS/zGz81Nge5TrY1uD4uV62MUjypYIIz8siDXz7Ayy46Br8r98niHTAjFSpqa/eh60fb8djrz6N/cPH0TtnJupJiKNDgyh1FqEbKkRmWlRlOXTEhxMAiy69BisX3oAV37hBLj/mgmXbFk1kEk15jhpsDGzh6TfWC4jEHTp8upDRsiDkYmLYpXQiZwIRtjOd8Ibx8POP4akN69AxswtJEdLtabj0m6BIKYRjF+BoDrRGKk5Xc2fOwffufADzp10J8/9r772/rarzbNG51s75BHKQjIiIIoiigCKoYKTMZXWXXV0db/fte8d4f8b74b3xxut3u+t2377dFcxaKAgqkkQlmBURSSrpcDhp57B2eGPO71p773MI2hb1E+dUOUjn7L3Xd33X/H7C/MzJToyP5TsLTrEsYlQgGFQUQzBhq5REJrZTGdGYYe6KHlbOHrUq80bBXF0USdG17Do1ayNEITibO8oQ1kQwZtSARClvkEyv6XqRcACPKSdnNBrlOsbStgB+FAsFQU84FhMbkl20TLkolfBIKO4CE5nIjrpODNirxaIkE6i6xYJqnejRBiI8YjyeyA8BkQrJZnOvx9MPPYHx4SSiZQuxegD+YBSNckHzQ3lfFZUQcKbUj60fvIM3dm9DupjF2KldKDgZnfJWMCjmdKnowGcFpRnK4blSbxZ3LL4Nd9+2CtPGTDZeQuzG2WH8evNzeOXDPwxEjIBVS3rSXXYj8q17yX6tmZLKVAuo+mvI1cv44shB7D34Id7+eCs4HeGLhrRXWGhlXYTdJxWGub6mCNFUxyOJzHvgKfNAkSOmJDwkKrkyikNFTOuegluuvRG3L1qOaV0TRJAj+LGexZSFe4GykEbbsCUK1i6Qbj51S2OlHUcuG4gYJzUIROoDDhZNvQ5//8RfozuYQpAzEvwAfhsD9TT+fcNv8ebed5CYMlYFpdMD/ZotqPuqyGXTytepQ2mVq6imixgX7sCsCdOx/q77MW/8PL1WfiiHrmQ3QnYEhXxRRcW8L6cWrxeJEETaI5HvB5Eqdn20B/+x8TmcyvUhNa0L9VAD/UO9SHYzv64hmysg4A+jM96FwrkckvUI1q+6D2tvuh3j0Y2KiEuW/EqqlbIKqCSDcU6CuhaHTx3HkRNH0Z8eQLlSlAwCx9C5xWxGBq6pkqfYpYjGlU0MR0KmMNts/raMvkxM4+pokN3rqsRJbd7d2ZIBqNtSpqpkWKFP4Y5ld2DGhKuQy+cQtCzEohGJ93x26AA+/fqAiouRZKQ5q8L2IrVSqCuBcg0xfwRXz5qtwmqIXSGZJVnDyGZMZ8gTuRTZjJEI2a8Lp12Dn69/AlMi3Yg0bATJWPaHUSoWkHEKCHck8W2+B6+/txW7Pn4fA+W0OhuSOKxmpbPCJkKdMyEISYIzVA2iwx/HlNQEPLhmHZZMWyjoJttVWh5WCL9+43m8vH8zainrR0Ui0vxo6um6ynHeyrumZfWqmaSlSyIZxnQKZPR3rj6Eo2ePYcOuDThy6rDePxKPIV/l4VIzkRAPAertuK+ph5r0hnb/KrahaxCHhKeIk6uIuLli0TLcNG8R5ifnUJQUAa4pBZdJsXc7PSoIi/zYqns0oxFv6nyEeJa3tS4riJANSMlDq8/BomnX4x+e+BuMDXRKUo7ixzzhqGp16MwxbNi5Ge999gEQCyLa3YlctYBCIwNfyFgokBPC8JF0YoIQT/hrZszDI+vWY05yNvKlLOyKhU6epHUbeSeHariGTXtMJMJ0ph1E1HnjSX2RSISEtmwhh1/97n9h11cfYPy8aThTPIsai1007iKj0y2YOTVbbM/aYBlLZi7ELx54Ep2NGMZFumEVTSGMEQjDV5KuSISj3uZ7H+3BVyeO4sjp48gWc7KWqFRKIv8xb3dI628a8ZhhKZ1eblHTG5XzXAKNt4riEKPhwW4A0zaOBLi0ZIWnbo1Fcv/woTJU0dwSleEfuudBzBx7lSwlpAAX8CFbyWHTzi2a0ck4OQ6FSGyJehi0u6RkH2sJ7Eilwkk8cM99WLrgRk3ckijngYgikSHDWP1BIDJYxfXTrsHTjz6Fq0LjaKAAOKZlzVmQQCyMU/l+bPtotyLFk5mz6JrcjWAyjHR+UKMYXCuHwOGPIBHuQGmgiFDFj5njpuHxtesxZ/J0xHnvyK72R1CsF1SYf3XXZjz/7qtoJH88iMiDxZs4d4sjeibNMa7J8HLB2NCGE3QFrEuzOE3uVLCGY4NH8MqbG3D4m2MIJSLkAqp2xlSTUgWsVfCFvLRWNrSe6h13AedgqM4GG4VcEZ3RDtyz8i7cfsMKdNC/r2or9UoiqPSM1iPUv7H8flTK1GJxax5q4ZqdJSDRjFcrEmlZVHiBEWfj3ZOKxbYfWxMR90HzMyFY/XXcOHWhQGR8oBshxxhnE38w1JsAACAASURBVESo8xCIRnCg5xD+7cXf4WjPd0iN60aaRDQrC1/UEK5Iu+WCcKpWPjX5CuqFGlYvW4X7V92Lif6xqJSKSIRiiFoRDGT6UU9aSmd+/dbvzwMR1kQuFYkQRHja/erZf8fOrz5E97zJOFk4o3oQ0yHyYuWVEgygVKE6lQ++vIVV19+KX659AqESEGvENKpN0VuqgPPEocTkqcwZfPT1p3jpzdcwUM5q9iiciiEQDhintXpNCt81SYfxpHIrHZxJcq01lcbVjSG5ByKeEbZOf1GbDYhIcpEpjSv+zOs23YUGYnZUgjMzx0/Hz+57HAtnLEC1VEXE8mmArGY5Gvh7bccmkc0qgXqTbMackOMIYaZyFUr6UQM1IrLZrVffDItGT1bgvBbvDwERMlYrvSWlrk8/9hQmhrvUObBok+EPS3jY9gfxwvbfY9O7b2GIrM+OEAoNKoZUEGIbulYyM0dVG1F/HKFaEJXBMmZ0TsGqJcux9ua7pFReKObV6YpFk8g3iijUHbz+7ht4YffvgcSPBBE9Rq5im5TiDcAbzk+b+lTVDK82AhxuddBfSktCsRaxcKZ8Bi9sfgkHjnwtvZgSow9fQyBC32c/OyU6EFw/Ys84nMOwDZiuGblODQu5TAGJaAp3LV+D1devRCfVais1dPriSPkiWld6EPvDIclllsoVROhR5HVgLgIiHt/MuzaTXV1GEKF2Y6QRQqO/hsVTF+G/PfE3GOfvQsgJmipx0MJAbgiI+sSw2/PVB3j1zU04duoUgp0hOMkq8vWcqQyHgiLa8ORj9ZhgUk4XJUd3z7JVuPf2dehGUj1uMiipbVqNYxiIeIVVDuCpSH6JwqqxIvdj9+f78K+bn8PxfA+ik+Nw7AqG+nvQzXZhTU48qFKxm52iTAPzx83Gn65+CEun3oBSvqwJSw4L0h2Q60HrQgLIpl1v4mjvt8j7KqiFffDHyH5toFQuKEylwLDNIqLb49WQoUhoZriRv2duzH82882ugpwMtihEbMhq3HQ6QTw+CvNxzp6wNV6qI1wNIVj2YfmCm/HUfU9ijN2J9OAQuuJJ1lSRLabFzN307ha8sus11ONANQLVchxyZGxbYtYoNGTzgHxDtPel0xbBxyIk5Y8YIbm0d4+x+n2RCEHEHqhh0awF+OlPHkdXKK6hyBBFlODHgJPGvgOf4O19O/HZ8YOitIe6oxgsppErZxGmGTvZtH52zoLwUUsyV0fKjuOOG5bjodvvlRRCKpxQkTJfLsGKhCRaxPjl+Z0vY8O7r8H6A0DEmI2bSWfCCMcGxfOh+jxrVRwtIL+HZvDlAsry8KZmTxkn8mfw+t4t+OzoF+jLDqERpm8uP10D4WjEzDZpOtZLZg2QKBKx64rGQ1VjzRoMx2W1Wi44mDpmCu5eugor5i3FOKTgo8NlqaauGvwB7eki9Wh8hoRnJhxbkQj3lTHP8ComzSClZZp1OUGEEnAMc9HfwKIpC/HfH/8vGOcfg2iFIGKDKVjRKSlEJhU5hyK2vbcT2995B/2VAVS7GsjWc8rtaeWo2TD2xkUPCGqOJtszhGldk3HfintwG13Igkn4Kub0zfqKqokwEmFhlSDCwqo3xUvG48XSGYII06jBah6/3fkqXnx3M8LjI9JNKVO9O0T+Q02ivzZbo9SNLfiQqoZwx6wb8PQDTyFix+FjC1qMUgcNfx25WgHbP9yNl996DbW4DwWfgyIJd5Zj8MJqwB+w1SKt0wnO8ASNiK4Mt43UAv/MNhuvk6mhppxdIGH2r1qJhEVdFz/XxtNYddoaGyCANLI1XDNxNh5YcS9umn0j4o2oGQmXkjtwOn0GgVQQr+7ehGfffBGVeF0DeEVahLCoLHOjOGrZOlJWEo1sQwN41181D50ONV5/HIhwAM83UNNsz0/XP4ZUgKq3LFAzVc3i4NHDeOGN15BpFDBUKyBvFcT2bAQbxv+I/i8kV9V9xju2bKPT14mbrl6ENTeuxPwJszXARg3RYCgk640sqekBBv9h/HrHM3j9vU1/EIiwmGeUhk3Ar9ljgjjrJaQhFIoSjyKI5ApZ1Al8tg+H+7/FngP7sXnvG8hJPhKo+kkpqEvUm/muT5RSY03uKd7JV9kFEmmC5CnF4IMdiCAQCKNSqJI6i4VXzcedNy7DrXMXKQqxi+SFWAhHIihR1tEpIx6MIaSzylW794iR/1kQMWDXgBU0lNoIW3zVkqrIO7/+AP/3hn9Hxm3x8oQMMud35fWoqs4DiGLMjX7HTWf+VpFIuGwiES0sF8eqoCSRZzqSDWDXe+/ijfe3Ysifhp8RSaMuT1TqINCAm4bE6YFBmQv7aIg1VMa1k+fgkdUPYv60uQhUbBloDTSy2Pz+VumJNJIBVMOaTReIkMbOzgqLWRWSjtji7Xfw+Or1avGS15HLZDV0d3DwBP7nhl/j2MC3sMJAZ2cMPb1n5EvMqrkdjqKUK0vCLpCtY5I/iV+u/xMsnbFUuSX1Rfy0ZLRtnKsO4q092/Hytk1oxClPAJQJTOSFcoBM4t1VtVk1Vesmo0YFviXnT2AytXNTPVfHhjM2Xg7OPVbmUBrFYoyUpMSQLaNvG6jamkWpD5Tx4Ir78PiKn+hhq+ccJEIJI6qUjKAnexbBZAQb9r+O32x5Bk68jmqkoQFKmjARROxGAMX+Err9nbCzwP/xV/8d88fOQrRsG68bEaE4O1PH0cxxI9ScP2P0REg29HHK20jgaTDRIlkvitLpvEzCf/bI4+gKkPROvVQHR789ju17dmPfoc+MSHjEUopVYiriFBAI+pCIxlDNV1ArVuErWwjVQ7hu2jV4+K71WDj2GunDdIZSyGcLEmUm25UEwgxZpME4ntn+HF7dY0CEeiO+qE/3x2vx1hzS/C/e4lX9qs1tzEQhxhKCkaDYnjrha3AajmgRjIC+zZ7C2+/tVISV9uXhS4XE1VF0EAnDDvlQKpVUO+Psj8QnTbttmBkau0xxn5mDyhZoRk5z7gScnAO7WMfUxHg8dteDWDZ/sQS4Mpk0wiQeBkI6HNlRDNDXpi0S0cyNDjPPHaBFNWiviwxLZ9zaD3lRSiMCQQvFekkV4HcO78c/vvIfKITrupF1H+m1VYVZVHvXuDRNn2o2rIEKlsxiYfWv0WUnJJATssPgjaCiFE+BfN1RysK5AnYrPvzqY7y44xVExsVRqJZkUxntisnPZSifRozzD/wfOQ4lG8GyhfmT5uInqx/EdZPn41yuF+F4GG99vh3Pbn4VDg2M7YYefGp/SEksYKHCm+mn/FwQjd4yfn7343hkyd1qJZarRTMQ5bfx4o7XsOndN7VZOV5NoR7mqTSjZpTE9MrJlVHLlTEpNQbXTboaf3ffL5CyEmrHDeaGEE5ElYi8/O4mPLflFY1+OxGgHHBEg67WK7C5jnyeSGLzEfVc7XLPU9Wd6BzWbqMZVtUARoC6mfQiLlVgOTV0dnbi1LmziHZ0IN7RibNne6V3MSaYRLkngxuumo8n7/kJrp94LaqlMqIBmnoFUcwUEIkGpUlSith4fs9rqj/UYgwD60Z7lalUgLUHSJUsUgqisxbB3zz2Z7h5xiL4HGPYzo1Xtfj4V/Ft9oTkEb/LnkQ94UfWKsGRx43JtzirxGgj0ohIMWzpvBvx0/t/ggmRbsQRxEB+CL976QV8eeKIGYLsDKMQrCJdGlJrPB4NiqXpZIrosGlTaaOULmIOD5m71+OGaQvEX2IthIVlZbWuu2PdsqTcxwTh+e0v45W9r6MW4+lviuEEETJWjZQjFO6TJ0IpgPtvX4cnVz+sQ5NSACxKkpEaDpF8RwZYQwVGTUIxk6GmTTyIbDGDAhWBQjYOp7/BW+9vxwcHP0ZfOYNalILKhp1rUiPTpueTLXtyOSm4Q3V1quS5er1s01Lo3d07LGzzi4BC3oiM5KoUSu/EUw88gSXTF2kmhg0L6qpS8Y8i3QRCWpCQoMjPwFoMrUnIWqKiYEuA3by+50gwzEaTn5q5FJXRHYeitz7kXRDZRcuIlwyI0HeG8nMa9mk4QjCCiER8qUYzUMKSWdfhvz75l+im1LxDIR/mFkZgkmDHHrhRcfHJqfzEuVN4efsGfP7NAVT8NYS6wqbo5CsjmAijUivpweG0JF8P+ZoA6uZrbsLKm27D1LGTkcEgNr//Fl7c8rooz5wzEUOQPBEyKAmOajWTCRkEzjp4+q7H8eiNa2WUVKrlEQgFkUURnx3/Em/s2Y4vvjuIRsSPetRCppTXTeXJRxOoetmBUyqLJzHe7sRf3f4zLLv6JtUuqDxONCZ1mv7F/7HheXUTKCdgJzluXkOpnDM2nz4LkSCLZwxgDYioS+OqxHnyAQ47Vu5AmPFUdFOhANfXRq1QNjMV5BbQvJwjBdQxYcQxWMRkfzfuv20Nbl94C8ZGOhG2IqYQysJ1jcZWpstVjNp4bu9reH7bq6jHSX02KQO7AaRaczygBSJh/P0jT2PprMWwKwG1Yxmlkq9BSv43+W/xj7/+Z3ybPY16zOeCiGn383nRwGPDksK5vxiUz+3TDz+Oq3wTcHbgBD766CO8sXsHSpwm5qRyLYOcXZZtpY9Eq3IBgXpdSmiBnI16torZU2dj9fI7cd2MBSo2kkUd48PiAbRK3sbdsYCC9uBz217ES/u2wImRy8FRivNBRO5vtQCcs0U8uHIdHl/zsGQMI9QT8VHxnbwUCkoZzyE+xJa6ZCbALNeqEj5n17C30o/tn+zClnffVOcuNakbGceoyjHSaA5oNgc1TdePpDV5fZAObxImI2Luyjl4DX0R3AQk9LS31Jyg7OKE5ATcv9LoGjPli/tIjgyjkCsjyvRKkUerM8PCvsdF8rqBAi99k+tc2e7F+4eCiPQ36340Bg2I/MMTf4kuXxzhigsibP0Eggplyzw9WDbSkFJNHIo9X3+A17ZtwrEz3yDQERaAlHxl+OIEEfIpHA2TcTEsqr3lG6qJ3LroFqy6faWsE+gh+/zmTYiP6TRzINWKQCQYDqiYy3MH/iBCtTAavcNBhDxSRhmD9bSc/975bB+e3/ISMo2ybAdzMjniMJJhv1K3wUw/OghkLdwx9VY8/cBP0ZlKqVDKHj/VtDi/uWHrJrz36X6jWRtsSNawXndQZLfKtlwuQIs85lX3PTDhjZTWBUf2G1U4dUetZ/6e68nXYLg7MDCAeHe3ZorSQxkk450yXMqfGsSK+Uvxp/c+hpmpSShnShifHK9tODiUQWcyKQ3YPyaI1Oh9Ypmcvx1EGIkQRGoZYP6Mq/FnjzyJpB3Cuzt3YP/+/Th+5js5yqEzgp7SAHJkzUYDRoWsRL2UGlL+mKQkaOK1dtU9uHvJ3SKTOYWy2tDiyFhGW5b7zQORIqir6sOz214QiLAGxHSQIKLithuJiJRWHw4iT655WB2qMNXNfBw3qGu2ik8dH25GziZCN051A6UMQtEoThZPY8t7b2HXJ7vRXx6AFQ+ptsMWPRmoGr93dWT08+78jcDCJR2aITkzjGpSXFvdx/YvJsRi3lNLlU2KoZJMx2aPn4G7bl2DldcvR4JWHQRyOi5SdZDSpK7gEPcaU23JU3Bi3Y1wTGG/9XVZI5EaZwxqfjSGSlgy8zr8w5N/iS47jqgLIhwAk1lPmGmMoXozz+bNYg5NItq+Ax/h1a0b8U3fd+i+aoyKZ72Ffk2S8gbJ37bAlmQYkUZQugjjEmNx4w0Lse6O1dj5+Tt4+c0tom+zsi1RXA6mMZWxjGp6IxBS+w/n6vj5msfw2OJ1SNJD1jYDVEPVDGx/CIcz3+KZjS/g02NfioNiRSlETUUz1oLMWISHyuGSH8mhKH7x0M+wYN616Iim1JLlZ44E4jh49jDefncHDp88Jq1PiccEfSKaqTUpJXvPTsLVsOCe8OwjNdVZRaXuKKDzhc3ULqM5L+wN+mz0D5zD2PGT4VTryGfzSEZS8BfqSCGOn6xci7WLVms6Np8xZD0OMw6ls+jsSMCq/nFBpBqhxkcZDu+J36h2cSqYIBKywij0FbHkuiV4cM096D15Ets2vY6BzID0PUq+GqrxACp0IqD9Y7VKkQBEOfZA2na+hknJSVg0byFuv+V2TI5NVG0qYocQt2PS4IjQdpQdYB5gGnRhOmMikWd3vIgX925WJHIpEIm46QwjEYJItBpU/YW6LHzgmFrK144ukvWarERYG6IEIq1HTqZPY8cHu7D1/bfRXx5E15RuOSee6etRF8Zry3uPKDt4Aj4L4unwINV7yEaFwuN1/Vn+OKyFiZzcjCVMYZdTwDVbw4wkg5b6imLsPrbuMSyae4M0SyIcZShW1N1iJK33dLWNNYRHgSV3qviPBiJiiWjasZXOCESsOKLMlW2y6Mg1tURuUVWZI8g19zTl5kADfY1BvLFrqyT+S74KrIQfmVpOMv8sNvKrXCyLj8F2XSldQCVbQneqA489/CBOnTmJnR/uF+uvUCoiQqUvEpBqZTQ4AcqOh9+cHgQRpTOL70ZHLSzGIVtvbK9R2ZxE671HPtZcxdn8OdN2qxbURmWqx1Cvwrkcvx9d/hTyh9NYdePtWHf7XZg1YZpa05JzdBX0T57rwcHjX+PId8c0i8LTplQqqP7kEdl0wmgc26W7u2xBtvGypbxawxTayTpFDBQGpc9CfQ3afLAVTN5JPNYhkSS6D1I1jvWjlQtvxSOr7sOU6HgVWCmw47dD0kOl4lWIim5W7Y8aiXwfiNTLNq6ePgfXzJqFY4e+wkf79iCWiCLaEUdPegB2Kox6IKBJYYFPmcroQISmUrUAbr9pJZYvXY4pqYmolMoyW0r6EgIpGqN5DxkPF6Za3E0jQUSRCNP5tnRGKYMbiXgg8tCKdXjyrocRqQYRIYjYNLM37GJFHjYHOmsalOQMEv/rKfZi49ZN2PXBO6gEq4h1RcRz4TwQxZAYMXtfXuqg54U1Eooe+I1BGqUdOc0tYXWmlr6ASIIkL5ovrwjv8o1kC2FhTGIMMj2DUrpjWjY2Og5r77gbKxYvFwmRAENZTR2QTYMqq+WD7DHKmixo826XLRLxQMRir3mghJuYzrAmQm2vagAROwyL4WStoSlPCeCyreiFbhYlJityC+vjXMT7O7Bl95vqZMQnJNGbHZB3B+dQ1Mqs0zuUzLu67P/onzt3yhSd7kdOnxKg5YsFFWSteg25QsYYPqlDZHxn7HM1/NldT+KxJfcgVQ9Ljq5YLCAYC0uvohHyo686iN9tfAEfHvpYn6VkVWCFfAjGAlLEz3CwzrLQGepA5bSDackpWHfHGtx6/U2YyO4F6sgMZZBKpSTUTGf2dDGn/jzl/Kk6bhirIUN5d8cH2o2qZeVh09WtjHBnFIOVDPYd+BDvfbYPJ/t7JAtJJz6+DjeaLBpJliW9va+AycnxeOKeh3HnNSulyRG3o7ofDtNLVjhJDC07iPqtPyqIXCqdCdph2PWAJouT4TByQwM413sa0XgY0c440qUCrEgQ6XwBAV9IfrFWxpGG7IRoF66+aq4eiLmT5qr2QcsP6mbw93Rvo5q72fGuYLFqIpARtyKRnS/ihT2vm3Tme0DE6TE1EYIIIxHWROg3ZIoJDeNnw4SJmjk+IEsFtmoev9+yAZ8e/gJnhs4gPiYBf8yHvvQ5HXAdnUmUi4WmlocRpzLCXQKUho1CwQhNhyJR3Wcekvl8Hj5/EJF4BA5F1d0aimwyXXaHVwDlocIOE1vnvOxGvorpE6djzYrVWL5gmbo2fg5duSBiUjK3s9Q2U2POtVbqdFlBhPogjERUE3HTGYII0Zt+MrwYRkQEEWol+KjVEPDr1CVq5xvGspJDU1/1H8arb2/EVyeOSH8kXWU0Aukn8Gd4upNxR6Nuuq3bjgN/wUEyHkUvpeaSceSKBYQDJIbVJY/HijgjEYuj7Iw8BCKP47El6wyIaJTdNEiGKhlU/JBPyu7P9mDzO2/g1FCPTJFJlpMZUb0K+vPwTOMDGypy8tSPqydOx/o7OaNxHfzMNyuuty9lA320saTpNUflWeZtiEzFE4fb2vAMDJHdU6NghMF/K4o5YOFQ9ijeeO9t7PvqE2RqdHrzq97DaMXPtq7TEKeGvseBko27GB0tX4MZyavEvODcBKUaqSrHNE/2DqU/PohcqrAatIOolJmX+1GvsSXPVNQMKvoixs+IEQQLgCErgu5wJ3wZy3jrzJyP25euwLw51xgRHvhgjFKpqyFCcFNX2HPQI41LBX4U9ag8s+NFPLv3dVQSBkTIglWa7XOLl3Ug4tVEeop4aOU6PHEhEFEBtSwD8RrnueDg0OnjOPDNV9j49mZWuVUPM4VnsqDZCTHMZJk8ipFqirNMM5iKWHVjepZOZzDtqhmYO3ceYrEYTpw6g8OHDyNXyCMUD2sIlYeN3Bc0pGc8oFir4euVcgWM6xyn6JQaLZw2r2TLmDJuCu5deTcWTpmvQiuJaAGboEsJTddmhqvU0mY2aZM3K3S5Cqvc/gQRyqvBBRF1ZxiJ1AKqkkuxnb4ukl0zTmNGco/9eKqAQ6572XpeNOdjvd/gtW2v46NDnyE+PoV6mBO1eYkDMVzM5k03JRqNoprPI868z/bjbCaNRHenkJpTsFwO+jWx/94EkXoI1rn6MBBp5B0p03Oj0T2Nk7fcbD1OH17c/BLe+fh92ImANB/48Fb9dYRiIaU3Tp4aIgnU0lUgXcbP7nsE9yxZgUQ9iPGRMWIrEhx5orDgylyWd4X5JsNTtgcDYQoX0XHNm5thpGbYqhWxX+s4VxrE7i/2YvP7b+O7wVMIj0tJFLYv2y9uCsN8njZjwx3InhzEhGg3fvnIz3HjjOtlGNYRSumMy2WKCEdi6lpV1Kln56vxR41EKPhjWrzGk4jtR6/FywnUQrmqiK1SKQCkAPCz1UpSuictmzWAsC+CqBVHoOBDKO/DzK6pWHPznVi+eJlauYzs4iGZb6Ig6nfUlJUY6RvjPyMApZ3Ah7wsRuYzO17G83s3ovSHgIgYqZZo7BSOqgRt9BT78Na+XTIcY32POsPkVIXiIV0f6zaspWjWikcL+SYEELFPfeqCkTZv132oV4Bbli7DXXeuxpjAWHx28gvs3LkTJ06cUL2lFDQykTxMjFUEZ2skhaVnjlHeUN+g6AnJUBLlTFGv3xFJIuj48V846xbtRHeyAzG/MXHjulFigMOZXjnV0yUyINLmgKfiHJWm2T/2s+BnWrzM2ahv8M7RD/BPL/xvwxOhx61fwbdavBz1V2MoEka1VEe9v4Bb5i7Cf33iL5Gi91s1gKQ/piKIJAXFtDQhkYpADL3Yu+dvSQOu5sXXYHv0vS/2STCGxcjEhA4c6/kGgXgYyTEdSOdz8l0leaheKqGLiu18SFnllkUKdSZZeSaLhuONfrczEITNfm9vDX+x7ik8tvgeJGphibaYk8p0jjgsWEJFUQnbzb/67b/iTK4XeasEKxVSbYI1EiJ/gMNcgw7GJcagdDaLmR3j8ecPPYUlUxeoYMVxdPIUCCLKmVlNd1XO+Gu7QbUJYvlg0+O3qE4Mf5TF50PnjuF3r7+AA6cOi69DzoFkAPMZBKIhlPMFTE6Nh9NfQOHEIH5676P42erHUcxl0RHskAIZ5ytkXEU6lMkwJVQUJLmqUcJgqILXPnob/3vjswiNDaNaNf687GmIKs2xhJof4WIAnbUw/u7hn2PpnMXwV0IGKDlKSmBFDcfyx/H//sc/4WThrCw8Cn5HIMI4wBNfYs1C6ubBEIrlssSw/QGG8TXNIHGzsttFGUfyScZGx6J4OicQ+dOH/gT33XwP0ulBxKIJEfyo5iW8cIdSvTTG+5UdWLJYyH/g/eWj8NvtLwlEaJFBQiEjBY8nInU5mrxXbfjJKu6vyof3kTsfQKJmfIQ558W6VIHWFYwIaHo2cArbPtiN9w9+iLOFPvh4ANkcnajpGmWcKgay4YawRcwDsZKtSABpfGKM1plDhKyvrbtzLa6fvxDTUtP16bPlNM70nsW+ffuwY/87CIyPwaHNLa+uUTGT3EFampq6nFTSJAJOC02/qX/QpqZSR6Dik3H33beswi033KworpjnEF9Sc1UqtxDgJCTu1X1+IIh4PJHvAxFphIYoctNArb8gb1ZGIpweJIgk6CFKhqLyvOEg4vnA1egOR98OVJEuplEl2a1Rwvuf7ddU6amBHnRfNQ7ZWh59uSFEOmIi5/AUT0VisIis5PjwdNdDyn42p4GZBNTkqysxZJ8Bkca5Kn657meqiSSqQdURWIVWJEJgk9M6fUvyGKrmsPX97XhzzzacyZ1DYnIHOP85VOHQYEDMPx8Fa0p1NAbLGBdI4M7rl2HdstWYlpwslfE45Q24gyXt6OW7RnGOt0OdF/qiqERfMzwAPl8SJq7idPasNsub729HfzULX2dYD6YTaAhEeL1Jzu6UG2Kmzu2ajodX34db5t0kxqrsK3xho4PKIiAhXXUpHvxVBCyyQH84iJBs1lENiSdCCj1BhMXaBmNgF0SO5o6JJ/K9IMLUgkLM5OEE/CoUMtSnCDO/GKlw8I+heLW/ggmR8bh78SqsvGEFJqUm6CFm2sLITjKBLhA3J2ibf2EOCd5XFfZVzgee2fYSntu7EeVEHXbALzlD2VK4HQ+CCFu8BJFaXwUP33E/Hl51PxL1qDxsWbjMl6kIRzGjBk5le7Dto/exefcbOFsewqQ5U9FXGDTgxLY8kykecNIZYdOgjkCUkgcV7cOuGFvzfgyePIdx0bFYueQ23HHrHeiMGBdDAjqBhdo0Bw8elGH5joN7YXUERGdg/YzDroy4jP6u3xTwpdnKWJTi09QocTHfsREqBDFr/AwsX3oLVi5egSSixlmhUJELnjgnbSAiAifrce3pTDMS8fnkMyvlb84X2A28c+QD/POL/z4sEiHZjNkjIxGBCFtDDm0GC1g6+3r8/ZN/gU4rhrDjgoiGxQyI8P+aRhQpxlST6w0fqrUa4sR1IQAAIABJREFUfCG/pAGoEE+Xsr76IDa8tRGv73wDXVPHqT7SVxiQTQKLihQTTkVjaGQoVGsprfK0IFltIPNdHZoGwz12h0IiRhFEGIk8umStQER7n+mVWmq0CzDMQaY16XoOZzLn8C/P/xs+//YrJCd3ImtVVOT0U0TGpq9MBMV0HolaEMFiHeP9KUlE3rVwFRzaOthMiM1uVtW9aeBtAsUKzPwH/0cFMerO8kzlhs8ijz2f7sfGba/j2LkT8KdCQCKo1IrXz7ZzpVjDlO4JSH/bi1g1gKfWPopVi24TpZyUb6fMKDNkPJelOMh00iBYw6no05RQxlDIwWsfm0gkOCY0LBIh2YyRiEc2aweRgBNWJEIQafj4oNZBEGEkcqrYe+lIhF03KsoHWTPi3TKnp7HQMINl1NnNnE4j4oTkk/KTOx/C1MQkCRiTeVthF4yRCOtCuufuGL5bUDV/cT6I8J488/aLeG7Pq0pnWHPjaAY/A/U/9MUoyAo2QWT9HfcJSDh7xBYygSBdHESUtYrcGby2bTM+/PpTnC0OKmL0p4IaxmRrmVawSlNdX9ymWpmfdSpLei8UfvJzjKAawG3X3YKH7r5fSmxci6JTULcpHuH72kgX0vi65zie37UR3w2dRraYlfo/a4jZSlbvyWYBo3bT/TN1F6ZL5leYgmrOgl2oY+aUmbj/zntw69xbjB9ApYYUBYzIOPfU8zRS8QNApMlY9QG7Du/H/3z518iHakpnmHtJWZqhvEm51PlgmFQdLKo787dP/FI8EbbBmGOJwacT2EQiI0FE7UbaG0Z5mtGhnqbFVHOv4NTQWWzcsQV7v9iHbKOo1GbIyaFQK6jwRoGZgPxJqLfqCh5bJNnQdIjPOLHb6C8gaMy77d4G/vxeAyJxhwEcWZCGwMMUQhwTvwkzOUjXCAbw+52vYsdH7yFdz8OJ2bK2JMgoz5e2pYVx4RTqQ0XU+vJYddNKPLL2IYyNjHFLpW7l1i2fej13FlJZaJMei1yOK81JUPrf9Az2YuuubXj34z3q0NiJEPqKQ4qWeBrFolFJJZB0lf6uD9dMnIm/++lfYV73TOSyWXTGO5VTiwPAh1S5tycB2hCIEE+Yz6fD1WEg4jhFpTOUuPRA5Lx0ZvZi+B2TzvBKOHwoEMmaSOT7QcTUyCTqzu4GT82GjVAwKKKYv2Ip5G5kHKy8/lbcf/u9mBgfJx/cRCCh7pJo2T7jm6I6iNIZTSW6PimuKhj42UylgPeOEdlzW1/EM3s2NNMZtXjpPeySzZjucUKZdaX6oJvO3PEAwrWQQJqg4PhYQ3Pw1vtv46Utvzf7dHKXPGc4I+aPhXVyezwO+WK7DzE/I9u3YzvGgILK6dP9mByfgLuXrcKqJSsxJTrJjJjwGXI7ucZ1xVI3iLWdL84dwcadm/HhZx8hEA+iY1yHCJJDpTTqLD8EyRZ3uyrMCmjRSViQsDPdC2ngZsEuA3OmzMLa21Zj8Ywb5J3EgjUFnTXg5zJleb/UTbxgYdW2FYlw7kQ1EV8Du77ej3955TcCkXbaOyORoJvQO+Tp06F3qIRF06mx+kt0+ROI1kJqKcrM2gUR3Ve3JuKpdxFE2MKlUrkppzeQLmVQqJWRjHXgyOAx/G7D8/j8m4PSoiz5aF9UEZHHqdEsnGUXmnsbTQ5zk+oIaTMZ60bqbJBsJrexs3UDIovvQZxWl66yNn+tUdeSjz178aihUC+CbPtT6TPYuPMN7Ppsj6ZyfckI0rWcIhenXkWUGrGcZM048MuWYAIWX3sD5s2ej2QypQ1rvsyv5oaYQeta1UEowjKwLWFkbX/bxmCOQte9eGvn2/jmzHcYP32yulRnBnphyTyaCuIhmSiV+4pI1gNYu+xOPLrmAXQiKTuAkIb7bCP97+mMNOqamWALHEwluJEZdYWr2PjJtmYkwkInSXaMvT3aO0FkWDoz60YEqpwboZ4IhYgNaB/NtECEU9UXrYkwNvMp/lChmTWbgD8k4SCyLZlGOP2UT1yIR+5aj2vGzEGNgkV1C4lQXExwsUU5vyWFe4bGhmjYbrTk0bpNQsGaiKM78OxbL+GZPa+0aiKueRVBhIhEEAmwReqwZ9vQ8OdPbrtfXSCyVpmKcjH3HN2Ht3a+haOnjqMWqWvgkPoxsa44BvLpJnlQLVyXE0RGqfxlSE1vBCTZEKkFcdP8xXjgjrWYlZwh7ZxgwwAqUz0+HlUaz3OugcxdP9vVDnZ/vQfbdu/A0ZNHJahlx/wo244KuqyZcS+LVqHUweC2VPXgQ7VcQUckhVq+Kg2gFdcvw4Or1mFqaBKyNKRPjJE3ML9X6/tDQUTpjL+BXYf2439t+J1AhBuhPRIhiPBhK1Pl3BdBbagkhaq/fuwXGBNMNUHEkKhMz9uIJ7WlM+7sjceMY/87EY/pQRooDClfZIvzi+Nf4sU3N+DzYwcQHZeAFbWQLuUQjFJtnHWiuobsJCTHAiCNtpXLUf7a+OBaAROJWH01/GLtz/DY4rWIMYJS21nY7M501PUQsz7CaCRTyUqDYtunu/HslpfQS5HfrrhmfdheY+jLULo0kIPfaWjgiYZb1DWdOvkqZLJFVxu1JWvoTWUKSBqcMibTsS6He763HeRMRg05cgIqJWRKOcQ64qoF5csFOcCzXU7/3c56QrWQG2YtUC1kwZR5lKIxlX2+vAqpXuOYQ11ki3JUve62aCwU7apAZNOn2/Fvrz2jdGYkiFywsDprsWmbg1q0FdT8rOLUcTR9DP/fb36lSORSIMIhTlrV8zDQ5DFrN6yBlBqwSSqr+DA23IU/Xf9T3DBjPoJVCx3+hAnvC3kVVdlyZzqjQq3q9gZE1Fdwmb+mnG+4IgQR8kmVzrz1Ep7f83vxRCxaRvBf5EfqskDp3UvlMHZLMg08vOYhrL/1Pp3RHObk/hiyM3ht+2t4d9+7dHLWA8zZHL6HHfFrBIKHmPG0NZbdauG6sy3kafR914vxneNx1213Yvn1yzA1NUmzP/V8FfFIRM0J6aOT3kPKg9t44ntk5cUIHDh5EJu2vY7Pj3wJO2YhkAojx4MuYMzKPSq9yJ/qa5g9QQDnQR+g0XfRwpyx03Ef52zm8ICg3UZY0/g/GETKFbLofCJHUXPhnUMfDAMRVplZPWA644EINz6ZpI10GQumXo2/fuLPMSaQkpCQ1LAENgZEVF/0QMT116DCkpe+Fnl6hiLyX2VUQWmAolWBHfZp5mDjjtfRU+inyq5OTzYFrACLsqS2m24RsxEiZ5joyVyUfhpqI7dAhDWRhxevEweAdQWJA+ls4gi3qzdJq8J6BTm2GwPAN4On8cbebYpG6KcaSEaVe/oj/Mk6qtmCFj0RjMuysERZ/kAYdV63mLompFRuyi6F3scYHUpLU3YAtsymG65VpwSHuAH9lmwcWCyTDCIfHPJmaJCV9WN6chLWcshu0TIkrSgCjo1IMKrJWwIoe/3eLAarLUz1VJFkn5cVeavWBBHWRALdlETkGefAZthyse5MG4jQ55eKcOwgHB0yIHK6dO7SIKIipmEA03oyGIjLka2Sddjfw7hwF+686XbcdfNK2XOUh7KY2DFOSSEFqZJx+gvT8sNscffRN7aSXjrjxoAeiHDFJaANP5596wW8sGeDeCK06eQU70gQCbLl6tDDtoqf3PkAHlpBCYkQIo2wCqZfp7/Bc5uew2cHP0Ug6oePkSqlJVHBuaGzCMWi6sxJkU4cELc1xoJ31UKqHkKo4sPNNyzFvXesxVXRKboWsqulMsD/3KCRmr1WyAz3eQXiXCWDeDCOPPLYf/gjvPPxu7LuzDXo2FCXKx9LH+rauFGQUitOGaOBUCyMbDqjJgj5RRzloKARzenHWd0SrKG2Lrt7F4xETIwrGUh2uFAmkzLoKloxEvlqP/79tWeRC1RQ8jsoq5XBlg/rItR2tFCt1BFjKzdTwbVT5uFvHn8a3YEO2Uhw1sX4xRh5vxaIuFOLLGJZdGgvIB6N6XaXixXl8HxIcuW8tD8DiZBYhlv3bsfvt76KfK2AjvGdsiJ0/A3R1ZkImLkZSz1ulxVuzJV4AtA3lUyyvgp+ce9TeGjpPZICoKgxnd81/agWjet3Uq+jXHdQD/pxJtuLQCKCg2cO49cbfoeTg2eQGNeJU4M9oKqLP2RJvJhtM37+gO2XrF25QotKFlaNQpRR/zbq7EaGgqbgCjYVjajNSIOoKs8HtuqYhviQ7EhhcHAQgVBINSX+PhmPKaR2vstjzSLaeK7F1WNmo1F1ZA8RDsZM+MqN48qyErcCdNTTTW+wqql/ZySSDzew8eNt+LdNv4NvTBDFak6GUdJS8bP+1JBheMRt8f7tIz/H0pmLEa5Ra8TWqcxIxLEcHBv6Fv/421/hTL4XTsSnFJRWDIzuvIIiZ2hUpPdVpZ1BZm80lESjYotZOaVjCq6eMhs/XfeY5AHioG6G6SiFgn4VoDmtLWAm+OrRc1VB242o20DEALmFMn1rbRvPvPkCXthLEGlIZJptUc7oMJ2hSRrXiEOC7L451GS54z48dMcDiNXDiJHYhxo+7v0c//jr/4GTvScw4+qZSiHOpHs0hR6Msn0t1SlFaxJ2Jg/BsdCoWrKzmGAncNvCm3H3nXdhYmQCyqWiqAGk79dKDUP1p9evTz5Wor4whzc0GHO9A4UBWJR0CfjxxcmDeG37Jhw8/hWsmA+lBsHdSDNKf4JpGlN3HVyGV8IMYHLHBMltZE+ksWrRcjy59lFFgUk73gQRoyU7oibCsEqhHoGZ6ZKPszDMaxs4XTqDgyeP4N9e+Q3OFM/JajAyJi6tEZ7A/MD0JKGFQncghfTJfiydewP+7MGnZCXpK1G9PaXNZ0ynWkZaRo/NjLV7ilCGEWSc0cVn4EWSQGNbGKqkUbFKyFTZrdiDN3duwdn0OXROGYd0g5JzrImwVVkxyKvpVzNUxHyyNJjHmCiFkvwIZICHVtyLh1fepxPZWGOa2RVl1WLYuqEeIxmfDz3ps4imYtI7+f32DXhjx5t6n8jYGPKBEpyA6RDoM3uWDnx46R9CwSdXNFkiCG7hTzOC6nPZYmZ6lGWRhTzFVT50zJ0pTxiMiYrBgUYyPTn85c82ML6SxC/W/wzzZ1+j9IY+vLFATGP+VIYz010jTMzM3iNJyIyTW2UMIo+tB3bjmbdfxknnHCLj46Jt09CKQFzNlDElOR7lM3lMjo7B3z/1V5g/fjbilRDCgQgK1SJqgYbC+MOD3+J//OZXGKillRbnWIWQcTFb7RS/MkNrBBFpWjQaiNgR+Kt+FAeKSPgSWLN0Ne674x4NTbJDQl8i6oGaiMPYKHjDYYpkyQx2h8XMn917yM4fIzu+n22jXCnLtInclBe2vYTf7n0JhRgnhCMCkSy1YwI0dgqhVq4hFUkhc3YIiXoM991xL1bfdCe6AwnEfFGUG2XsPLQT//z8rwQ+oY64iu4kmPUXhpDs6jSHBMlQhbrAoSOQ0O9p3THGn8SDS9fgxtnXYtqk6Ubsix7J7KZR3qFQRpyRjAuEHq/I/NmkZpzdIThW6w6q1MCxq+JVbX13O3bu2ymeCmI+NMJGJ4iqZhTi0xyYH8hkhqTkz85QrBFB4UwO8yfOxV88+gvp1NqUlbDCsgLVirrUhGZhVSAiyXCTb/HFuZBkC/ZW+nD07HH8ZsMz6K8OqVhEib+CVZEClEhcJUemPp12AtWBIlZctxRPr/8TTA6OV1WX0tU0FCb66Z42p4npHevGah4VTuEewyz+ak5uYRzVycQiqckg+ejpI9j7yT58+uUnOJU+i+QMtn8LyFWKSjusWEAUZiqjkdYd8YVQy1YMsSzbwIRQF55Y9yjuvn4VavUSoowa5IXLiImj1X53tocTjHRds5GtZsVUZcb/2eHP8frbr+Pod0cRHhfF2fqgtCL4oDN1oEIbDxvl4y6wmOjDAEjT6U4OeDYsP1vW2j6mGyJlM1OK5+8DBEOqqZfqqBVr0m7n/+i5y+tZf8Ma3L/8bkztniqJgYg/pMiKrFCZQaul1772Lla7wEZ9FF/ExkAjh9f3b8Xzu15Fny8D37gwTmfPqf0a4z3MVZVSFE4OYlbnVPzdz/8a88fOQbzqR5C6GjXHKNfZDZyrD+Kffvev+Pz4AVRDlpi3VMqz/BSXZjGaoGsZDZZ8Dp2xlPgsxaESOvwpFRdvX7wC8yZcLUN0anoQEIOsm3h7SC1TXpgrS9jcR+aJazdf4u+9KVh2gPi+BMYt+7bi13ufx9nqQHOqXCTCUEhAUy1X1RzI9qbRHerGY+sekYp6wPHJ2LzqdwQiL7zxvLyAS746shSTToYxWCkgkoijSkP3Sl1SFkk7IcWxUl9eadkt827EU3eul9G2jMTKZXWo+PloGeFjx7FtXsXFkrZfGNGYWTTyULi2lr+BvvwAPj30GT458gU+OPARwmOiIqQNltKi5tuxgDqg2UIaUyZNwFDfAGrZmhjPlP+cN2kOfrruCczpnoGGUxOIMOX3lliz0F53RiDC+8BIhPuNFoyNqngY2UYeJwdO4f/8p/8LORRQj1ioRRqipjPM5Wg/qbkdVhKV/hJ8+SrWLluDR9bcjwnB8ZpfqBYdhIMRowHqEX+0BN8PIgbfyGit6kFmfEQQIRHt5LkT2PneLmzbtxPVmE/zClbYp89damvr8syK+MOa4bFzDTjnCpjRORWP3P0gVixYpiIjCfnq6HiDT6Tw86yTSAyp2uZzEEga/gby9QK2vrMV23dvlwBzIeKo/W1AxMx6CETcSISb1wXw80CEmXtFdQsdx8qxFZHIjt7Q3wkWXMMqvX3rfo3y+xsB/X23P4GnVz2CG2Zei7gdV3ucJlVS2a9WdXJzXsY8VK243ji0uf85Vde/p4QdX7yP57e9gqOZE/CNiYi92zc4gLFjxqhyzwehdq6EBVfNw5898ieYkboK0aoPQZ8ZTGSkRpIcG6jP7XgJW3a9oXtT89dkiMW1lEhwxXAX2HGIh0NwChVkzmUQQhi3LboVD615EHOTM10nAdKrmAxwyJBninsOuyDiac16oOE9Ye1/VoSoyVefcZZzR94/OvYp/p+N/xO9tX5TII8YXgVPdZLzmC1Rl6T/dD+6gh146qEnsea6VeLx+FmXtirYc+RdPLf5BfTnh9CI+BQVkzB5NjMIf5gHkiWN1zD78vkGGjkHHcE4li+5FQ+uXIvJwW4ElFUa/Y52wGNx+JIg4gYBovS7mjO2JCqrOFs4h9ODPXhlywYcPfutACQ+NgE7FsJAfkCi1STJRUJkV3LWy0K8HkGoHMSi2Qvx6F3rMTM1Xbo59KppBxGVDYaBCCv4DLEDZr6gVKN2RUNt1L5iP57d+CI+OfSZKOAdEztRC0HuY1bQlrUlzYfyZ9OYmByHJ+9/GMuuWQJfsYFkIK7NxfqdNvCPABHebMq2cUqX3JBitQh/iHWDGj49/Al2f/ge9n31qbRA2fZk94KzMjzZ/UG2xQKo0lW9EUR1sKSOET/f3betxqwJU2FX64gGjHyeaRDy1CY93HQKtdlcDhsr3VwX3lg6vG/eugUffv0Jal1+WSxwVN2QxNlSpo2AaclRmYwwpHSJtRDK10k4xn246SKnSV4KNLtK76zutgnUMJpzClV5w0aDceQG8wj7ghI4fvruRzEu1qkRNBbBeHJKDpAFMT4IrEm1pTMmymuBCB8GdRBiwPHBk3jh7Vew9aNdqIRrGHvVeAxm0kjFE9JwoX5Hhx3H8kXLsH7N/egOdCHK4SfWcBgxcsDMx7qZD/uPfYQ3d72NA8e/MhPHQSqSByS1qFkhn0+1jWI+h/RgWrWHG6+9EatvW40FE+YjQm1YVGRPYSI5QybzUhnxefT3l45EdGTRvFpaHHaTCk5QOZXpwb9s+Q8cPPM1svkcwomIWJ7NA6DawGDvAJLhJK6eOhcPrLoPC6csUJ2Canu8Ryfy3+Bfnv9XfHnka1hxP/ypGEpWFf2FDCKJGEKBEKLhGAp9OWR7hzC1c5KmvW9csAizx09HkAr69PMJheDnsFfbF2kPnljQ+VGI+zdKd00pr0yvJLZgxbMqK438/PAXeOudrfj40BcIJCMId0SQKWZRsWpIdCSQHRpERzyhrKFwLoMJ0XF4aNV9WHPLnapr+qrUfQnAz1kJj4PXDiIaOWZYTTrAMBDRWJA0PXoz54Rm733wnvJbDquRhaexATuEXG8Wk7u5MEvwwCp6fo6VjmciEEeD7lws5Jin9KLpjKZYXVFnPbWtQ9O0ozhIV2e9o6SohJg0UB7Eqf7TEv051Xca3509g5xTgD8ahC/C8JoFO/pqhNWDp7DzwlnzsX7VA7h+1nUIcNFJS0/Q7d70wcXg8OpELOLxbxSdmTzEuJiVkHcKeP+DvXhx8ysoRmoKFSUBSd6IJ3PHOpC4OoQI1jZMF2ckiFAAWW/JrotAxICJV4EkDyLMAUbHUi2EjMP0QBqzp8/Gkw88ivnjZiAkw3MYkpbiEB4MDRMOM7wcns0MAxHLqaNAM624jZxdxDufvIeNuzYrlbXCFlIdHcq7071pGUQvmDEfdy1fjZuvW4pQ3Ua8YWZ3qChHtmShVpJ0AutXX3z9Jd7evR2D2bR4L14rV10CtmUlYVDH+LFjsWThEtyy5FZMDk0UGLOtmLBo5WlGAgSERHayipkmctJXhTwTYl0qEiGIjBTdYTrD+sXxzHfY/O6b2P/hB0jnsxJJDnIo0uKUc1kDpMtvXo4VNy3HDdOuZ3kXuaEckqE4bD81fOt4Y/9mvLP3fRzv+U6KdhSy4vQ405mh/iHp2VbzDrqjnViz7Hbcecvt6Ax2opTLYWy0A1HbDKgWS0WlJkxlWCz+ISDC2SJqpiihqNcURTGtqdqmU8a6yVdnDuGd/e/hwwOfSJKC7oHGSymPaCyMarGMcqasLtTyhbfg8XsfxrTEFBQKeemxMhJhI8WULU20Pdx3RkjNQqSJROQo7ypY5+tF/eCXxw/iowOf4sCRr9DT14NawHjN0g938tipuOXGW3Dj1dfhqs4J4kpEraDeuMwR7kjIgIgXjWi5TDrjjRUrZScpzTv622CXi6SqMsNECvDQSLpmFooP9un+0zh26hscOPQVvjn1LQYKGYlC8ySmS3tXolP/zZg4DYuvvgHXzVqADqq+01bQmPXqoTUsPk9H0q05ivhlrEMYqfGW5JwsggE/jvd8g9e2bsYHhz9DlVwxsl7dVi4XWSdIG0/BFFRbznTe7+mApxDWBRClUK5Qr1aqXDU8Fmp9BsLwkWFUa2Dp4qV48v7H0EE+AT12qBTGglwbAjOUbvrVeM5mXknbs3mkaTXV1vx1pWo9mbP48viXePfj9/DFoQOmU2YzLYxg+sSrlG4svv5GPQROsYiuUAKlPLt6PqNS3ihjqJBBKpZSXe1Ez0mc7DmDkydPYmBoULUIxX0uiMyZMwtTJ0/B7Glz0GV3aKOQA0MWL09AnvrtEoAW25zuGslEwz10fgiItGQFLeRyOY3ns2tx4PRBfPX11zjZc1JqY2Qus9BK4tu82XMwf861mDxmArp8jPiMWj1TxXwhDytKsagcPv/6gBTcv/r2iMTCqStCuw1e7+SJkzHnqjlYMPdaLJw9H+NCNOni/LFP3aYwTdFdEOGhwYE8gsil6yHmnKny/hGMTSlRYx7c+yqyUmgctO2saK7nk4MHcODwQZzqPY1MIYdihar3PlRKJUzqnohrZ87HrYtuxoKp18huhFYcHGykVINY3aJhuV3Qlu+MQXDK6vmkmmTQTKciL6pSgB00htPUYDjyzVHZ/bH1Sf8KCjxPnzYXc6bOlHIWe8V2keSzkEJVFWzNsOZ/HkS8dIJHO591VtTYhq46KDhF1zTbtGYZN50rDOCbMye0Yckvoc9oOBxVsXTimAmYPWkmxkbHwMdR9AK5LSEEma+rIWQ4pXrgxKFo019pG+Ki/kndcnT4ZXJDOHH2FL4d7BGhxyhRGT6IPIpdOrb3THsFVcMTMV+sKXEDNKd59V4G1PR6FrVCAjqJZe1RrprujC+IKZOmYs6EmTRHlBiPulE02Gpjx/Ik8x6uVhfM7YvxusV1qyEU8Ymsly1lZJfB1PHQsUM4dOQgent7FWpPHDMJM6fOxLxZVyMR6ECFczc1dlVCqFG+j9ETg69QAP3ZAaQSHfITCtkhpCsZZLM5pRIERL8/qFST//GkMwleVVoxMh8PJjRRWqnUEGSdgGvmcclE5HGjNXfk4vsiEa+oygdasn9kBA8OmgE1y3H1agKyoug516OprlRnJ6KRqEhfjO5ylRyC9QASoahkHfmZaIjOVng8lUC+lseBo4fw9XdH0TvQj0Ktog7Q9OnTMWv6LMy+aga67G5Fo4VMRryLsakxyOey0jiVyrrLmWpPXVqyhxdOaHTI6gwz9hSakWJdUzW2mlQEWSOx6RONBo73nsDnBz7D2f4+BIJ+DKYHEA6GsPCa6zB3+ixMSk5QK7o0lMfE7gma15FYtDt9fkEQ4b8y5PZAhAxOfjGMLFIQNxJEJpdVx4Y6HuQDkCDmtzkvwa3JYfeAVMxTcjCzUMyW1CVA0B30GpHOaLbBVS4Xr1+K1u5EiZfOtHcU3FEINXDEbK6L4ckHLs8QlClO0BC1jLGnGUlnSsbpR9MMs2U9wTkB+sqytch0hzqudYKITm0vz2yBiOpFstNwdHOCkRBKlQIKpQKSyU7NSJhXN+bafG/TdzJ/550m7TjajBaaeMVXMCOJXimt/Xs4VsDXktRwg5GebLeQzgygM5ZAjW1LSf373XtJejXB35VdEIabq/PsUFTz4UlGkSf6vpaLKDtUeAvAF+T8s6P3LDslo21KOT5fUBPBNDAvl2oY19mNci6vh5KUfa5PsjOFwewgkokkzqV7kUyldL/4eXj2EqorZLeqVkQajOmcMApkJyqIkOpHnpJdMOjeFXdBzMeuiWnML43jXyKdaY8+2P1ggcChAAALE0lEQVTgtfLz9vX1qW4WS8Ykj8kHzJC4ahK84r3IlrJmSjpEzk1DU8W1kqNCcCIS1+dmJ40iT6wl+sNBtbhP9Z0VxyeVJNgytU+ZVDhTRCIcQzIYF6nRKVckaUHPXb4+PXL52Qy3yRww3wci3Df0GObkM3+W6oG6zy5RwNRJDKubnUPKlPJOEGZKoPaOLXU0Wm9QSoAUfKaShXQe47vG6LXbQYTcHD2O7bMz5la0vpoPkvtXFBX2bEX5q7gbzRvKj2A2OEtC7MhoMK/9Rd0HX3l/sxhmOAICK2+PeL9pB5GR4Ou2iT0/Fm0n+py6E7j8XGxG6HO6OGAI7YbRyP/8JtByCx7m/T15Qm1G7z295rz3q5sOGPUol6fAGoj4yObLW6fW5zPj7N6X1+X21rhJ1/B+vhkGmb8wH9ObvDECMWI8Ki0yBdOgGYQwdZC29fJMwlu3oh2WWt/I8Q/v3dRadq+PMMLrbAn0mpCSYGsKXK7LntlRZr29grBMuMzfMxI0MZ55f1kruAVRhcfunjDFUwO1I+Q8zVp4e84VxfGuizoZl/oameZ4QsRmlsSkkt7rt2pSUr0x99RV9zdTsGay2KSiZv0l20DFd/3KzpypJxoWlLefuPfMz5qI1PwqBiunxi98ay55Xa1/dGtCzZvvdq/c1+ShrwhZNALz2VqBto4ZMy+m54O6rGaex/ucATc6al//C4JI+6Fvbmbb56dcvRvKmI2ipTUdBS2UuYkEEFb6Wapo7mZ3v8mSQz/npg2Ko83rKIPQdK+X93hP6wXW0Fts71ddvztOrBqbeeQ0K8DIwPVI9Taol1I09Sb4VqwFtV3z94GIHmt3DdrvvUhq7vs3EUrDfHJsch88tysjiwCvHuNhbsv7o337mZvsPsquhJ55CM0O1V1o+pS0lv5SIOLijnlImijj3nSxSk2UZ+6X2eR8gLz71Ez+vB9RMdncTw9IzINpiHbmJhvQ8QCkeXf1V96GazPBbr/97h7xXtP8k9s6/xEgotdxW3CepYQ5HNr2t3s9BjBNd82TGmhegx4At9jlyg3oAGvLij2IU1xK0HFBqHl6ugNtPxAxLvpQtJ7Z9oe3xbfis+A+Kc0z3tzhmhn38HyE26QauQQqqJ4H4heIRC4EIq0P1TL69UoG3i3kz7lkVyEXQaT5gJq9r/+8hR0GIt7mdec6vA3WXKUfA89NVhWBzyjFe+xTLxBqXpd70RKO1mYffhx439dU4m9+sJFnu5est4Ux7S+le+q9mbfS7lOno8wDpbb94YFMM0xvO22H7xHTq237ap0Y7Y9aszvnPsTeD1zoCHQf/CYwaeTXDRkvfeqbFzc1C++LnZ0mIcw7KNowoxX6XeQxakYgLbDxAOs8QLrQI9ZGQvNSg2aKo9Z32zWNPKTcONBIC7gbdeR7DLuW4XF9+3M17OeH3bKRN/SHw4lZB1OLa3507+W8v3TDXxNvmC8PTEy8SBDhl1eCN99z3vPo/qy3v85LZ9o/hGct2nrY3I/XdjO9z6n0QS9OESBSx70jyX1F0bktV/OxVVs10Yp7SRcDkeYudKXQvZyj/Vezhhf+ao9WLnHjPYPkYaCpljNfYPg2MC8z4qZ7x077e7T/aBtunPdBTd/SXMNFQ9pWy/tCbz/y87ROU/NubVjdjDCHRZpmtLr19X17uv2hudh+bwIQwcfbOM3K6Pk/dbH1avtcXtrT+uH2K7vYB7n03zejJO/bLnAPvLTmQimWedoueuMu/uaXEUSMxPdFQIT/0AqFmtunlSwwjfH8F0c6y5gfHlmT+ZEgYq64CXBtoaXOHMnSsUVqyFSmyMAHww3vpfNhvhQeuXTrYbv7UpvRDfu98H/Yr8OWb8SLNDf7+U/F8KBj+Onhha/Df73wBzTpufeQtH3PSPzx/tz+MvoxLkarpmL+ecRpr3ToEl8XiES862u/Mi9NvejD4L5Fa23czflDAWbYs9T2ziqgt6WqF0BLL+252Dnx4yDC/FR7YXXY8jeVh79neUdsj6bVpftjkta80NfIbXcxrDk/1P3Bl6sDgzBgZD6GpVvNB7YJIuZCvIjEnG2eZrL5U/tzYT5++7UNv86LRiLt9ZCLFbf4Rt668o2I1Pw5ox7qhb0GRPjFqrf3gX4wiHg+Gt5yuuF0M6z0NrxbEvLyy/aQzmQ2LNK0h6veQrZv8oufJNrUrYbshYOF9k32fad483q83/AHWMxsFhXOB5GRoNLcYucjU3vtauRObIK3t5P0Dca+0aSpZp2akQw7JG1Dk+2tabM33I037Mlsf3G3ZtHcSMy8z3/gLsyF8OodIzdy682a6eb3BALtxdORayJ+Tltk6UUmFwNa85C5M13NW9j6AO37b1jA2hbFt/+8AtEfumcuAC0jQYTfoqDWPJitFx/htevZXDERIuWhPWjX9HJ7lap5iP3RQcQ4mCs7844TN1dz5WldYjkLsKZA5VZa28ItN+JpKxJ6BUOz0cwkQXvsrSJqs+DnkmLdm+LdHE5utgqPZsu0bxyv6OqdMOcfIAa6RJA6D50NiF4osB65OdpRvvX9LNiRyeaBb1sFq43vMXL/mM/qFSm9reMBQOvztK9WC0TconbzQk1K5RViuabmoDCFc+/A9jaaUfv39qe5I+3XZv7GBSj9fOsQ8dax/Xq87sDwa2z/zvbrbMvVDcI3uzsXeMa+96/MdbZOAW8vaEVH1MjOP6WHq/Vrh7SBwoWwzQC0d39MGsFC6x/yVSUj3H0qhgN92072QMT91UtnWiDiHq4jDhMDJt7nMwVO/Um+OBTbdG/+yAeg+fC5n6FZjGpD0/bD16TUZkFGLpywohmreOmMCyJN23HvBy8MIuc/1K0lVwfG2+zuYzXy87tacM2NbUDEw1rWcUysofe5UHdFY3rtgd3wm+7xFdo3Qvt3tLcYRyZO/CR8dTPR3JYWMYpr/tWIdKYdZFW1diOC5v1pgYj3mYanMl5nrO0T6/jyUlYPRIbfzRaIjLjP7UHUsD3QWmXvnf5zINKizZmH2rxKq+Dnnpjfc5S3T/MOAy8xpodvWrOHvdqN+W6vdNcs7bS9iNKItmUa9gxcZOO29p/7zLT7hvwINGE5wXuJC4JIeyvOLRR7wGn2xfBd2brO1oXxkw47QNtBxAOS9pv0Q65jBEibpOIiYZn53tZjdaEQ7vzXG77tLv6ZzIb3vr4/NGwhbutn2h95Dy6G/9oMri7wQS702S+9FsNfZORNNIBmgLa9RvBD7ov3PSM/U/vn+aGfrfkaIy7+/J//oUWT4RHLpa/HrP/338//zKpc+Hv/c/tn+Gtcap3PZ+60ftb7uZH3pf1+j7z/F/tz8xnWYfh9uZFZVy/qbgKz+9Eu9tOMUkfei7bZmT/8Joy+wugKjK7AlbcCoyBy5d3z0SseXYHLugKjIHJZl3P0xUZX4MpbgVEQufLu+egVj67AZV2BURC5rMs5+mKjK3DlrcAoiFx593z0ikdX4LKuwCiIXNblHH2x0RW48lZgFESuvHs+esWjK3BZV2AURC7rco6+2OgKXHkrMAoiV949H73i0RW4rCswCiKXdTlHX2x0Ba68FRgFkSvvno9e8egKXNYVGAWRy7qcoy82ugJX3gqMgsiVd89Hr3h0BS7rCoyCyGVdztEXG12BK28FRkHkyrvno1c8ugKXdQVGQeSyLufoi42uwJW3AqMgcuXd89ErHl2By7oCoyByWZdz9MVGV+DKW4FRELny7vnoFY+uwGVdgVEQuazLOfpioytw5a3AKIhcefd89IpHV+CyrsD/Dxvqr5NgKQJMAAAAAElFTkSuQmCC;" vertex="1" parent="1">
          <mxGeometry x="340" y="-200" width="84.56" height="70" as="geometry" />
        </mxCell>
        <mxCell id="IPHe7rW7irAd3t1fSApu-20" style="edgeStyle=orthogonalEdgeStyle;rounded=0;hachureGap=4;orthogonalLoop=1;jettySize=auto;html=1;fontFamily=Architects Daughter;fontSource=https%3A%2F%2Ffonts.googleapis.com%2Fcss%3Ffamily%3DArchitects%2BDaughter;fontSize=16;" edge="1" parent="1" source="IPHe7rW7irAd3t1fSApu-8" target="IPHe7rW7irAd3t1fSApu-15">
          <mxGeometry relative="1" as="geometry" />
        </mxCell>
        <mxCell id="IPHe7rW7irAd3t1fSApu-8" value="" style="sketch=0;outlineConnect=0;fontColor=#232F3E;gradientColor=none;fillColor=#3F8624;strokeColor=none;dashed=0;verticalLabelPosition=bottom;verticalAlign=top;align=center;html=1;fontSize=12;fontStyle=0;aspect=fixed;pointerEvents=1;shape=mxgraph.aws4.backup_gateway;hachureGap=4;jiggle=2;curveFitting=1;fontFamily=Architects Daughter;fontSource=https%3A%2F%2Ffonts.googleapis.com%2Fcss%3Ffamily%3DArchitects%2BDaughter;" vertex="1" parent="1">
          <mxGeometry x="590" y="-203.5" width="78" height="77" as="geometry" />
        </mxCell>
        <mxCell id="IPHe7rW7irAd3t1fSApu-45" style="edgeStyle=orthogonalEdgeStyle;rounded=0;hachureGap=4;orthogonalLoop=1;jettySize=auto;html=1;fontFamily=Architects Daughter;fontSource=https%3A%2F%2Ffonts.googleapis.com%2Fcss%3Ffamily%3DArchitects%2BDaughter;fontSize=16;endArrow=none;endFill=0;" edge="1" parent="1" source="IPHe7rW7irAd3t1fSApu-9">
          <mxGeometry relative="1" as="geometry">
            <mxPoint x="630" y="130" as="targetPoint" />
          </mxGeometry>
        </mxCell>
        <mxCell id="IPHe7rW7irAd3t1fSApu-9" value="gateway&lt;br&gt;" style="text;html=1;align=center;verticalAlign=middle;whiteSpace=wrap;rounded=0;fontSize=20;fontFamily=Architects Daughter;fillColor=#f5f5f5;strokeColor=#FFFFFF;fontColor=#333333;dashed=1;dashPattern=1 4;" vertex="1" parent="1">
          <mxGeometry x="529" y="-126.5" width="200" height="40" as="geometry" />
        </mxCell>
        <mxCell id="IPHe7rW7irAd3t1fSApu-23" value="LB:请求分发" style="text;html=1;align=center;verticalAlign=middle;whiteSpace=wrap;rounded=0;fontSize=20;fontFamily=Architects Daughter;fillColor=#f5f5f5;strokeColor=#FFFFFF;fontColor=#333333;dashed=1;dashPattern=1 4;" vertex="1" parent="1">
          <mxGeometry x="660" y="-213.5" width="123" height="10" as="geometry" />
        </mxCell>
        <mxCell id="IPHe7rW7irAd3t1fSApu-27" value="ip:122.51.216.74&lt;br&gt;port:9000" style="text;html=1;align=center;verticalAlign=middle;whiteSpace=wrap;rounded=0;fontSize=20;fontFamily=Architects Daughter;fillColor=#f5f5f5;strokeColor=#FFFFFF;fontColor=#333333;dashed=1;dashPattern=1 4;" vertex="1" parent="1">
          <mxGeometry x="790" y="-240" width="140" height="50" as="geometry" />
        </mxCell>
        <mxCell id="IPHe7rW7irAd3t1fSApu-15" value="starverse主服务" style="rounded=1;whiteSpace=wrap;html=1;sketch=1;hachureGap=4;jiggle=2;curveFitting=1;fontFamily=Architects Daughter;fontSource=https%3A%2F%2Ffonts.googleapis.com%2Fcss%3Ffamily%3DArchitects%2BDaughter;fontSize=20;" vertex="1" parent="1">
          <mxGeometry x="800" y="-195" width="120" height="60" as="geometry" />
        </mxCell>
        <mxCell id="IPHe7rW7irAd3t1fSApu-29" value="business service" style="text;html=1;align=center;verticalAlign=middle;whiteSpace=wrap;rounded=0;fontSize=20;fontFamily=Architects Daughter;fillColor=#f5f5f5;strokeColor=#FFFFFF;fontColor=#333333;dashed=1;dashPattern=1 4;" vertex="1" parent="1">
          <mxGeometry x="480" y="-350" width="210" height="80" as="geometry" />
        </mxCell>
        <mxCell id="IPHe7rW7irAd3t1fSApu-30" value="" style="rounded=0;whiteSpace=wrap;html=1;hachureGap=4;fontFamily=Architects Daughter;fontSource=https%3A%2F%2Ffonts.googleapis.com%2Fcss%3Ffamily%3DArchitects%2BDaughter;fontSize=20;dashed=1;dashPattern=8 8;fillColor=#f5f5f5;fontColor=#333333;strokeColor=#666666;" vertex="1" parent="1">
          <mxGeometry x="1210" y="-390" width="180" height="400" as="geometry" />
        </mxCell>
        <mxCell id="IPHe7rW7irAd3t1fSApu-36" style="edgeStyle=orthogonalEdgeStyle;rounded=0;hachureGap=4;orthogonalLoop=1;jettySize=auto;html=1;fontFamily=Architects Daughter;fontSource=https%3A%2F%2Ffonts.googleapis.com%2Fcss%3Ffamily%3DArchitects%2BDaughter;fontSize=16;startArrow=classic;startFill=1;" edge="1" parent="1" source="IPHe7rW7irAd3t1fSApu-33" target="IPHe7rW7irAd3t1fSApu-34">
          <mxGeometry relative="1" as="geometry" />
        </mxCell>
        <mxCell id="IPHe7rW7irAd3t1fSApu-33" value="mysql" style="sketch=0;outlineConnect=0;fontColor=#232F3E;gradientColor=none;strokeColor=#ffffff;fillColor=#232F3E;dashed=0;verticalLabelPosition=middle;verticalAlign=bottom;align=center;html=1;whiteSpace=wrap;fontSize=10;fontStyle=1;spacing=3;shape=mxgraph.aws4.productIcon;prIcon=mxgraph.aws4.database_migration_service;hachureGap=4;jiggle=2;curveFitting=1;fontFamily=Architects Daughter;fontSource=https%3A%2F%2Ffonts.googleapis.com%2Fcss%3Ffamily%3DArchitects%2BDaughter;" vertex="1" parent="1">
          <mxGeometry x="1260" y="-333.5" width="80" height="120" as="geometry" />
        </mxCell>
        <mxCell id="IPHe7rW7irAd3t1fSApu-34" value="" style="image;sketch=0;aspect=fixed;html=1;points=[];align=center;fontSize=12;image=img/lib/mscae/Cache_Redis_Product.svg;hachureGap=4;jiggle=2;curveFitting=1;fontFamily=Architects Daughter;fontSource=https%3A%2F%2Ffonts.googleapis.com%2Fcss%3Ffamily%3DArchitects%2BDaughter;" vertex="1" parent="1">
          <mxGeometry x="1254.5700000000002" y="-130" width="90.86" height="76.32" as="geometry" />
        </mxCell>
        <mxCell id="IPHe7rW7irAd3t1fSApu-35" value="redis" style="text;html=1;align=center;verticalAlign=middle;whiteSpace=wrap;rounded=0;fontSize=20;fontFamily=Architects Daughter;fillColor=#f5f5f5;strokeColor=#FFFFFF;fontColor=#333333;dashed=1;dashPattern=1 4;" vertex="1" parent="1">
          <mxGeometry x="1235" y="-40" width="130" height="40" as="geometry" />
        </mxCell>
        <mxCell id="IPHe7rW7irAd3t1fSApu-39" value="database service" style="text;html=1;align=center;verticalAlign=middle;whiteSpace=wrap;rounded=0;fontSize=20;fontFamily=Architects Daughter;fillColor=#f5f5f5;strokeColor=#FFFFFF;fontColor=#333333;dashed=1;dashPattern=1 4;" vertex="1" parent="1">
          <mxGeometry x="1230" y="-390" width="140" height="60" as="geometry" />
        </mxCell>
        <mxCell id="IPHe7rW7irAd3t1fSApu-46" style="edgeStyle=orthogonalEdgeStyle;rounded=0;sketch=1;hachureGap=4;jiggle=2;curveFitting=1;orthogonalLoop=1;jettySize=auto;html=1;fontFamily=Architects Daughter;fontSource=https%3A%2F%2Ffonts.googleapis.com%2Fcss%3Ffamily%3DArchitects%2BDaughter;fontSize=16;endArrow=none;endFill=0;startArrow=classic;startFill=1;" edge="1" parent="1" source="IPHe7rW7irAd3t1fSApu-40">
          <mxGeometry relative="1" as="geometry">
            <mxPoint x="630" y="128" as="targetPoint" />
            <Array as="points">
              <mxPoint x="630" y="128" />
            </Array>
          </mxGeometry>
        </mxCell>
        <mxCell id="IPHe7rW7irAd3t1fSApu-40" value="" style="rounded=0;whiteSpace=wrap;html=1;hachureGap=4;fontFamily=Architects Daughter;fontSource=https%3A%2F%2Ffonts.googleapis.com%2Fcss%3Ffamily%3DArchitects%2BDaughter;fontSize=20;dashed=1;dashPattern=8 8;fillColor=#f5f5f5;fontColor=#333333;strokeColor=#666666;" vertex="1" parent="1">
          <mxGeometry x="740" y="30" width="270" height="195" as="geometry" />
        </mxCell>
        <mxCell id="IPHe7rW7irAd3t1fSApu-41" value="积分服务" style="rounded=1;whiteSpace=wrap;html=1;sketch=1;hachureGap=4;jiggle=2;curveFitting=1;fontFamily=Architects Daughter;fontSource=https%3A%2F%2Ffonts.googleapis.com%2Fcss%3Ffamily%3DArchitects%2BDaughter;fontSize=20;" vertex="1" parent="1">
          <mxGeometry x="890" y="85" width="110" height="55" as="geometry" />
        </mxCell>
        <mxCell id="IPHe7rW7irAd3t1fSApu-42" value="通知服务" style="rounded=1;whiteSpace=wrap;html=1;sketch=1;hachureGap=4;jiggle=2;curveFitting=1;fontFamily=Architects Daughter;fontSource=https%3A%2F%2Ffonts.googleapis.com%2Fcss%3Ffamily%3DArchitects%2BDaughter;fontSize=20;" vertex="1" parent="1">
          <mxGeometry x="750" y="85" width="110" height="55" as="geometry" />
        </mxCell>
        <mxCell id="IPHe7rW7irAd3t1fSApu-43" value="其他非核心服务" style="rounded=1;whiteSpace=wrap;html=1;sketch=1;hachureGap=4;jiggle=2;curveFitting=1;fontFamily=Architects Daughter;fontSource=https%3A%2F%2Ffonts.googleapis.com%2Fcss%3Ffamily%3DArchitects%2BDaughter;fontSize=20;" vertex="1" parent="1">
          <mxGeometry x="798.5" y="170" width="153" height="55" as="geometry" />
        </mxCell>
        <mxCell id="IPHe7rW7irAd3t1fSApu-47" value="LB:请求分发" style="text;html=1;align=center;verticalAlign=middle;whiteSpace=wrap;rounded=0;fontSize=20;fontFamily=Architects Daughter;fillColor=#f5f5f5;strokeColor=#FFFFFF;fontColor=#333333;dashed=1;dashPattern=1 4;" vertex="1" parent="1">
          <mxGeometry x="590" y="40" width="123" height="10" as="geometry" />
        </mxCell>
        <mxCell id="IPHe7rW7irAd3t1fSApu-48" style="edgeStyle=orthogonalEdgeStyle;rounded=0;hachureGap=4;orthogonalLoop=1;jettySize=auto;html=1;entryX=0.004;entryY=0.23;entryDx=0;entryDy=0;entryPerimeter=0;fontFamily=Architects Daughter;fontSource=https%3A%2F%2Ffonts.googleapis.com%2Fcss%3Ffamily%3DArchitects%2BDaughter;fontSize=16;" edge="1" parent="1" source="IPHe7rW7irAd3t1fSApu-50">
          <mxGeometry relative="1" as="geometry">
            <mxPoint x="1221" y="352" as="targetPoint" />
          </mxGeometry>
        </mxCell>
        <mxCell id="IPHe7rW7irAd3t1fSApu-49" style="edgeStyle=orthogonalEdgeStyle;rounded=0;hachureGap=4;orthogonalLoop=1;jettySize=auto;html=1;entryX=0;entryY=0.75;entryDx=0;entryDy=0;fontFamily=Architects Daughter;fontSource=https%3A%2F%2Ffonts.googleapis.com%2Fcss%3Ffamily%3DArchitects%2BDaughter;fontSize=16;" edge="1" parent="1" source="IPHe7rW7irAd3t1fSApu-50">
          <mxGeometry relative="1" as="geometry">
            <mxPoint x="1220" y="560" as="targetPoint" />
          </mxGeometry>
        </mxCell>
        <mxCell id="IPHe7rW7irAd3t1fSApu-65" style="edgeStyle=orthogonalEdgeStyle;rounded=0;sketch=1;hachureGap=4;jiggle=2;curveFitting=1;orthogonalLoop=1;jettySize=auto;html=1;fontFamily=Architects Daughter;fontSource=https%3A%2F%2Ffonts.googleapis.com%2Fcss%3Ffamily%3DArchitects%2BDaughter;fontSize=16;endArrow=none;endFill=0;" edge="1" parent="1" source="IPHe7rW7irAd3t1fSApu-50">
          <mxGeometry relative="1" as="geometry">
            <mxPoint x="630" y="130" as="targetPoint" />
            <Array as="points">
              <mxPoint x="630" y="216" />
              <mxPoint x="631" y="216" />
            </Array>
          </mxGeometry>
        </mxCell>
        <mxCell id="IPHe7rW7irAd3t1fSApu-68" style="edgeStyle=orthogonalEdgeStyle;rounded=0;hachureGap=4;orthogonalLoop=1;jettySize=auto;html=1;fontFamily=Architects Daughter;fontSource=https%3A%2F%2Ffonts.googleapis.com%2Fcss%3Ffamily%3DArchitects%2BDaughter;fontSize=16;endArrow=none;endFill=0;startArrow=classic;startFill=1;" edge="1" parent="1" source="IPHe7rW7irAd3t1fSApu-50">
          <mxGeometry relative="1" as="geometry">
            <mxPoint x="230" y="455" as="targetPoint" />
          </mxGeometry>
        </mxCell>
        <mxCell id="IPHe7rW7irAd3t1fSApu-50" value="" style="rounded=0;whiteSpace=wrap;html=1;hachureGap=4;fontFamily=Architects Daughter;fontSource=https%3A%2F%2Ffonts.googleapis.com%2Fcss%3Ffamily%3DArchitects%2BDaughter;fontSize=20;dashed=1;dashPattern=8 8;fillColor=#f5f5f5;fontColor=#333333;strokeColor=#666666;" vertex="1" parent="1">
          <mxGeometry x="320" y="300" width="700" height="310" as="geometry" />
        </mxCell>
        <mxCell id="IPHe7rW7irAd3t1fSApu-51" style="edgeStyle=orthogonalEdgeStyle;rounded=0;hachureGap=4;orthogonalLoop=1;jettySize=auto;html=1;fontFamily=Architects Daughter;fontSource=https%3A%2F%2Ffonts.googleapis.com%2Fcss%3Ffamily%3DArchitects%2BDaughter;fontSize=16;" edge="1" parent="1" source="IPHe7rW7irAd3t1fSApu-53" target="IPHe7rW7irAd3t1fSApu-55">
          <mxGeometry relative="1" as="geometry" />
        </mxCell>
        <mxCell id="IPHe7rW7irAd3t1fSApu-52" value="ws--&amp;gt;wss&lt;br&gt;wss://x.x.x.73/9999" style="text;html=1;align=center;verticalAlign=middle;whiteSpace=wrap;rounded=0;fontSize=20;fontFamily=Architects Daughter;fillColor=#FFFFFF;strokeColor=#FFFFFF;fontColor=#333333;dashed=1;dashPattern=1 4;" vertex="1" parent="1">
          <mxGeometry x="440" y="400" width="160" height="60" as="geometry" />
        </mxCell>
        <mxCell id="IPHe7rW7irAd3t1fSApu-53" value="" style="shape=image;verticalLabelPosition=bottom;labelBackgroundColor=default;verticalAlign=top;aspect=fixed;imageAspect=0;image=data:image/png,iVBORw0KGgoAAAANSUhEUgAAAREAAADiCAYAAABp5fONAAAAAXNSR0IArs4c6QAAIABJREFUeF7svQmYHXd15v2rf61361WSJXm3wRvGYGOwbLwDNsYYmx3MTjYggcy3PAmZmS+TzEyemW++ACGTZBKSkJCME/aEEK8Ys3jfsMF432XZlqxWd9++W+31PefUva22kex0W9iNXVdP60rdVber/lXnrbO85z1WnucF1atagWoFqhVY4QpYFYiscOWq3aoVqFZAV6ACkepGqFagWoFntQIViDyr5Xth7VwUTx/ZWpb1wjrh6mz2yApUILJHlvGF8SEViLwwruNzfRYViDzXK76Kf18FIqv44qziQ6tAZBVfnOf60CoQea5X/IXx+yoQeWFcxz1yFhWI7JFlfNF9SAUiL7pLvvsTrkCkuhlWsgIViKxk1V6g+1Qg8gK9sD/n06pA5Oe8wM/Vx1tanc13/joLyoKtoRhWZkc/NUsOqtyvfBWjDfV/Sz5r+H/LsoffX/oJTz5D+Qj5zNH7053/zt8tB1gsHudztWbV79kzK1CByJ5Zx+f9U6wihySFEZfDtgQ/yLDILHkXtLAwGP3bEqPNc6yiwDEOYsZRmOJ5jn5EluVgCmzbJs9TwqiP5wY4jgCIIUkS4jTD931sI+ACeZEr9MgWo3cFp7xEMduU74vgMQKw8tD0B0/Csed9VasD+LesQAUi/5ZV+gXYRkEkzcSdAGNKSzYg9psKkKidjv6UIEKWieXj4oAYuIHBICHLMpqtgCRLabfncAOXZr1Bt9/DygscxyEIAixsBaQkyYjimHojWPRfloZGpig9FwGnEV1NgaQCkV+AO+uZD7ECkWdeo1+ILUqjzKWRASTsGFqrfFu8kZG9Cnyo35BDkcpfRekZGIvEKnTXwrKwrIK0SIizhDTPKIqMwK8ThSGmsPBdDzs3ZElOzauBYymADJ2O3a6ZGR7IrrmvVS/oL8TN9pSDrEDkF/Gq7eaYNQ+hcPHUgEITHoh3ICDypCTJqInb5IQmxdg2cZHQ6XXITE693sTGEBPrvvLHw9Uvh4I0SnEKG+N5+rESOglQCJjI+9Lw5OkgQrbdCXUvoIvyIjiVCkReIBdZjDUpg4bS05AcxDDVoLiiboJYdblNmYMYbqgJjIwFM6Cb9TGOeDI2W+e38fCWRxQQ1qxZw/577YuDg02BSaBuuTScmiJHGiXYvqfblp7NzvfREktINXo9FVDkUAxDr+gFck1eLKdRgcgL5EqLByC5DzFOAQ/xRRRERgCi70MQKS22zINIDqXIGZiYvkkISVnIe9z78P1ce/ON3H7PXcRJwuTEBKef+joO2e8gDpjclwAHk2XULJemCaAwpJKMLUyZ+xgC1GLPnil/1SjcGYHI0oqRgNPSatEL5NK84E+jApEXyCXOLGvoiSBpUnUybEmPjBKYoxJwkWuIkZuC3NgkpJpA7RGx4PTZ0nmcG26+icuv/D53PXgfhWtTbzQwxqYZNDnulcdyxvGnctTehzFOE4sUohiTWDSDBpaAiIQmmlcpv9T3GeVoluRqcqnGDNd/hGsViPzi3ZAViPziXbNdHnGBRaLGWwKIozmGpXSPTBOmmZURWSmpei4QkRIWCd2ix4XXXsr1t9/M7XffQeJYjK2ZAt/RykuapqRhjoky9pvewMlHb+KUo4/noCnxSlzcAmq5i5uLJ2IpkGgOxbIwS92RJWBSDBFj5I3YVV71F/JurEBklV22f4tmx1OZpaP/x0mGbUomiL6ynLxISfKETP64Btvz6BHTLSKwHAZk3Hj3LVxx7RVcc8f1xF5CYRv1QGT7TPgmQxCIujENt4Yd5nhRwSsOOJyzTn49xx7xCqatFlYvoWF8HGPjWAbPdfEsW/koUX9AENQ1uavnaI8yNyW/RF5Lz2vpOvxb1mSVXcYX1eFUILKKLvczGcsz0dLD/oBava5nlMQxURJiHAvjO8RWTr+IaSd9BiYldAo2z2zlmh/fyHU33ch9Wx/AmbBJnBwcQ+YYcnm3rcUKi2c8wnaXWu4w6Y5BN8ZL4NVHHs1Zx7+OY/Y/nGnTxMcjF9CKY1xjU3ckg2KRZxmWJEVyqRTt/FyjvJadzNqll+SZ1mQVXb4X7aFUILKKLv0zGcyuQGRxn2HOIx4MiLOYRqulLNUBEd08JDeGrhZqCzaHW7nq1hv4/vVXc/eWB8gMuGM+uQ+Zk5EbS78yp9CS7ahMa7BxckOQO9hhQdTuk/dipmpNNrbWcuZRr+XlBx7KkYcezhQTAmVkeUoNl8CURWGhp0nyVbOsi+WaIY3eKWOxZwLLVXTJqkOpNFZX1z2wFER2ZUi7c/fLxGVBEodYtoVlG7XPHiELWZ/UlgDH4XF2cMv9t3Pptd/npjt/rCFNc2oMpx4wyGNCInIjiVeLTBKvwvtQ+x4mK+KEemMMK8oZzPeY8Jusm1zDoN1j6z0Ps3cwzWF7H8CrjzqaY486hkPWHMQYDeRo5NgmvBYuNnZhISxWy5IUcPnxeZJhvCUkuWeQalxdV+7FfTSVJ7KKrv8IRJaCxe7+XQLHTt5nYeXE+QDbdtTf2BF2MIGPweXh/HFuuvs2bnv4Lq677Wbue/xh6tPjjK2bpJcO6IYDCgfNhShoWBJqiBci2VnJV0gZuMByPYpBCHGOMS414+M6Dr7xqFseg8fnKboxTS/gqJcewSnHnsCrDnsF6800HpYCiFcYreSYzCJwfGW+yiuNM2x39419q+gyVYfylBWoQGQV3RJPBREBkKfzSJb+LFO2KSwUXQZZgu80GJBy6/bS87jxrlu4f/sWqHvUp1vYDYf2oEe708byDK3JCfpxIkyNkkMieVlL/JlhPw4Zfr1F1OlowtYJGpjcEA9CbeCbak5gxwV5NybtR/ipYa/mFEcdeAQnHnWsvu/jrqemdDWHoki0PBS4gTJii0x/82I5aWdpuBKHXkW36C4PpQKRVXSFdgciI7CQn4+AZem7JlJNQidbYGBHOF6NNj2+e/1VfP2yb/PgzKPU9hojsgvMmMsgi5jtzWE5NuOTY9ov0+52wK6BVVJNS2KrpkehKMHEMi6SBJXfnefg2Q6O4xENYrKFDl69RcOrExSO5kvCbXOMW3WO2v9wjj7wCE54xXEcsHYjG/29NDuSZam+u8bHFsBMpcsnfxLHZCnXZBVdqupQlqxABSJ78HbYHVHqye3tS5vky18u++WSa1zsHhHm5pC9me/89+hzUgqyIidVEy/IKYjsWAFkgQE/vv82LrziUm6556dETo7V9OlbEabh0c9jEls8CYesKLSCI2DheAFF7uoxCI5oqsLKtfFOvkYvMercEs9h1DHs4LiudvYq76w/oIgzGsalXrjQyygWYtwwZ9MRr+a4I49l08uPZf3YOpzUwi9cfNunZhzsKNV8SQkctgKWAuvoeBYb/KQHqPRaNOIaZm0KyyxKEIz0VZb6MTtpKE9SVFlkyY54K3vwlnhRfFQFInvoMpfM0KES0AhNNJ+wpEdFuRBikEPjGOU08oLEFCQYBCAkf+BglDCmGdIk1xAC1ylzFK4hImEu7mrJtnAt8F2+9/DVfO+WK7n1J7cySEPchq+AkZoCK7Dp5ZFWW1LRGVHQGiVO5SCNduWOBIV2LkvJcF36elKnrlRahqw2ocFr1UWdmEI/zy5svMzCz22sXkHejjl8v0N4+xvO4YQjjlP6vJVarHEatGKXIBfwsEtKfokTWswRGq6Q46Q/qChybCvHVWq/VHly7TROXSktSxaoKKn/yj8ZQszwrbxEpU6CJYC1VJJAK1EV4225JlGByHJXbDfbL4JI+QwfgsfuQERyl4vtcbptRk5fnvwYPAGTOIQwo+nVdxKzohAaHpGV8PDsNmpT42pdt8/dw99/+x+5P3qULe3HGQx6NMaa1Fo1enGfdq9LmEX4jbp6PCpSpO8jACgRZdcgslP2Y3TqP9Pu/yQQEWbszjKtSg/kBjd3GXMb2CFkcwMaua+eyZtOeQOHbXwptdymvgBrgzHqfq38pfKVlscrdi/JX+0jHK5YCRZlc5DgRWi0NVAhwpN/ScwlPx/ReCUME09qCCIiaaDSBEsaeCoQWb5BVCCy/DXb7R5Pkhr8mXxgGevvzG+IcMeS532Rqoeg3yoKXMtgiiGrM8tJ8hg8w9ygQ1ZzyHF4MHmMS678Ltf9+Ca2R7M8kc5qI51tW3g1H+NaRFlMnCbaI2M8d+iBmCH/w5QNcUPRIKGd/6wnsjwQkY/Lh96IhEMlBd9WICHMma6NK4D0nmgTz/TYb90+vO61p3LKMa/lqOnDte8njxPsNFdCmycdxVoCLjBeSVAT50yyNtL1KwGMtB0KDsTD1kM5D7vIMXIcS7zB0b4jxaZFEBlFa6qlUnkiyzWJCkSWu2JPs702tj3l50ujb9UTG7n78nQc3a+aqMyxHItu2BUmBbWgpp80SCINTZyaT0zGgJw5uty6+Xb+5fuX8sObr9NemOn91pFLV76dEiURYdjXxjrbs/ECFxybKIkVNErTKxmio+xC6UCVeZinhi+LTXLD8GuXnsjQcCUJuxRE5GOVpIalXlV/pkMDj/UTa8k7MbNbnqBVa3LY/odx6qbTOOqgIzi0dRC+tPb1O1rlmWyMlxKMeQlQUjWSfI4lYZoe0zDPJK6KhILStzNqOBwmTQojOaSyy1nOXf5Ig6LqmIxARMrcFYgs2yIqEFn2ku16h/IpV2qMjjKBSrnQ2Lx0S0ad97KR3vsjb0VTCakyTTVZKHwNC/pprA1yVuCqFNBWdnDv9s384EdXc8WPrubR+Sdwxn2chk+Yx2iZ1y29lzSLNeHqyv9NoZKHJYCUxzdy6UeF1RJEhj0sT/GilgMimiSWdK9UW8QLMKWiq3xk028QLnRJezEtp8aa5oQ27y3MtpnZNsvaqX049shjOP3Y13L0/oeyD9OMCc81zbRsLPsX0oszZNGOAFvBRKBX8i7a+Dd8yYFr+kM6lnPiJbJHclRuBSJ75O6vQGSPLOMwzzAEkdJsyvt3BCKKGSVna7EJTZ0RMbo8VzHkJB3gBZ7yPBbCPs5YgMFnG3Pc9ug9Shi79vYbuOvR+zATAcF0i34aMsgjHN+l2+lgbEsrJdqOIqGAAEoaE8cxnlcSu0qxAAENe6hAVlY1pFlvV6rrIxDRHpddSSAOk5YSQpQgMgSQYYVnUQdgENIYGyewbDpzbYp+QqtW17Jwnlks9FLSXs56f5yTj3wV5x7/Bl6z/kgaOAw6C7qdcFKMCkvvbOATb0S8N/EozFJXcAjUEq2lJlf5xxGIapiVW0irkFEB2kKXpRKKXr5BVCCy/DXb5R6lonrpiYxARGWMF13rodc9BBI1NSPhTaYgkhUpuZ0TW6l6IH0rIfUttg3aXPWT6/nhT67nmp/ejDPp4UzVIbBIRNKQSD0Y6ZT1/AZZkqrXIfauORjJIEiZeIm2h1G3vwQReYkGiBhP+ixBRDXjRY9Vw7oyRihK3UM1UunqTaOIIsvxjNDfJf+RasevcFuyIiBaiPAGGWvsBgeNbeDo/Q7j5KM2cfSBR5LGCYEV4DsenuUqdd5khXJNNEApkyU7PTw5AImC5NxsqeyUuZPhtxVAFERG36xAZEXWUIHIipbtZ3cq5QnlGSz37dATGWX/R5WGRQZ5+aTObbmpM9IiV13TwrNoJz1Sp6Bvpdz6wJ1cdM3l/Oi+nzKXdbEnatA0ZB700p7mSjTN6NpYwt3IbYhL45WwRoAjS6Tl38J1XTVe/dkQRAQ8ykdvCSLiDalQ0G7CmWfyREoQKbMOpTcyApGhOpLKAKgvU3ppkvxUyBXjd7CcBk7hUEttTCcm3NpmrAh4zeHHcNIxx7HpqE3UjUfLalDHxy0MTgJuJmtuY9vuzpLtMKbREE4ARMdnKKQueokSzlQg8uwNoAKRZ7+G5RNXPZHyUVj2qg5LLWK3oztXDChDvQ7jSyiRqSBQkiWEdkZmOXSIuHvH/Xz/xiu57vZbeLTzBLGfk9cMpuXTzwb04i55OtCWfcs1JYs0t8gjyW662I6jFZrywCRpm2oIpR20+io9kaeCiHpFTwMio6USD+pJLzMUIUpznVMjrySLNbcjiV353DSNhuMsLPWSNMGsxzUEPQEBU8eWDuHUIihsgszFRAVWmGOFGccddRwnHn08mw45hkmaBGnOuAloivRAkqtWykJ3gG3ZNBqeeiWDMKHQdbI1z1TCaK5rISDiCldES8GC/jvlCfbQbfGi+JgKRPbYZR5lS6XkOBz4MtTOWHy064M6A19yEFJpiWlHC3qD26bGLZ27ufr2m/nBtVfxwGMPE3oZzniNvG6ITCKBiyqwa9+JVYKCsh40RLIIapPKSdMkalECx1Jmxc5THQ6lUZAZZW7KcGwEiEuX5alFz92BSBHGKkikpy3VJhvNz+j4CQlzBDTypAQT19LBV/KzOA7JowTjNDBZGebYloNXiI6roYhzrBiSbsLBa/fj1KOP54xXncxhrf3ws5xaZNH06ywkKY2gqZ5NFEVkYczYWEuXvzeIsYNSkb70hMp8iHhPJZ+kzHxXOZHlG0QFIstfs93sUfJASoqlWNEioaEc12DBfLfD2PQEwtrY2tuO15AuW5/Hk8f4zvU/5NLbruW+mS3MLszhj9UIJltEJmauv0CWDbBaNSwrw1b5wQIry7FGs2PELEydRDydLNGwwXYs7Ywt6etimaWPP0oujsxpaEGL5efdhTPP5IlIYtUWAlueq5yieEe6JhK65TlTE5NKsxcDz4t4uF4CMNKMl2O7/qKSs6RKHUsASDwZsCTESQriuT6NxNVcyZtfdSonH3ks+7bWKQ+lm2YatgVW2YtjZ1LuLcM6OR7bKdXoy4qRcEnEa5R/74TJCkSWbxAViCx/zXa7hzxVtbQpHrqOqCzp7cJtSC3Ry3CZjdtEjsgYeszR4eb7fsSVN17NTzffyz2dx4g9C6fm4tY9Eiujn4Tlvr6lIUouxpllSkZzMnmKlrNkpInN2A2yTI4hU0Uz27U1sSlGKsnXRMOVEkR2qq6PFMUMllJDd88TeSYQEfa9lnMlhJJpfBqpDEu8BYRhqBUixxFmqYQ4sR6bhEC265Q5C/EKZA1VkcBW4BMRAcn5iORAkHvQjoi3tZnO62w69CjOOuF1vOKwl1PzxpWTIvolEg7VJfcT5Zjc0hGgpQelGechifXJIFIByMqMoQKRla3bLvfSZKlUWqStfeiSjyoVkaQa5Z6m0A7be+Ye5Ds3fI8rrv+Bznexxn2KcZ/Ek5G6KWESUdgFju9oWCAgEHguiSir5xDYpVqYVCdEm8O2PIrUVmZnIglS6bq1cxUXSoiVsapzYYx8bxjk6PuQ+q6VDgGAn5Up/DeHM0lcMkXLNKf+EvEEXNsjcFz6/T6e46q3UHJXZJ5vrOGXAGURuPoufTeyjtr8Z4aNeMhM4LIcO+mNMYZP77FZBk+0OXj9Abz6yFfy6mM28YoDXs4UTXqDWZq5y7rGFF5uk0hznyRetWIlUZylVaGSEV9WrypFtZUZQwUiK1u3n9lrlFhNdb5t+UQXd1z+GRaxksFEZaxd9Lnqjpv4xne/xd1b76e+tgkth5nuHJFTUBurqxcRxrEmYF3PJhXaeq9HY3yCLIqxc4uaE+iTPunH5FGGZ3m4uacaplqqNbnqhNiBjV131ZOZG0610wY8ER2SJ7MyNEvJQpMKWWuFICJwJKVl7TouAUm6ea3U4FoudS/Q3M1gMEC0YKV64/seQc3Dkql7dkIUGFI7x8rKpGueleO4tJvXlJ5KKrkNXKbrE4y5TeKFPp1tc0TzAw7d5yDecMJpvObwV3LA5Hr289YhE4PppTrqU9ZGQVMSweKNaJfw0taaivK+EnOoQGQlq7aLfUaMVfEBxLj1yWZsBFT6WUg3C7l98z1cdM1lfPeWK5m3+gTrm+Qto+GNlHd7g27peVgFgygkG/RVwNirBzTqdQWMTBTdpaENh3SQkYUJNb+uokD5QloO57YzojwhTCPCIiSVyo+bqwyiGKl09UqCVhvwlCRRlnqt1FWhoRXlRMjxxDCzXMM5AZE8TLRiJMLNSihLy2TwaJSEME0FWSScifyC7aZfHqeUxtMU0kQBRUHENvR7XcbXrFOPYk7IalHBxNgknnFJ233a92/lJWv248h9D+bMV5/KGcecRDN3yOcj1k7upWulIZJem1JGUocBjopNlSTjiqyhApEVLdvP7lSGLQUCIkKVEBARMlSUx7TjHnNZj09/7vfYEs7QcSOYcIichNmwrV25TlMUviwNV8S4AqkkyGS6KNR3V2QEpYyZQC0L8HODCQ2B67P/3gfy0n0P4jWHvUJzJTIiYvv8DA8++jAPPPoQj85upR11yQJD7GTEAiR2SiIRx4gMVljYsavU8ZFMwAhMyved0+kWZRmHzW1lriGniCPNBUkPbQ0PLzL4kcWYaTFWa/GaYzex3977sGH9eqJByJ133smPb7uVBx55iO1xm2JjjcTPccWqM0nMpkpeU69BciO2kfyraqmUTBPhhtjqZbScunJLnIWE3uYdvGzdgXzi7R/hdUedRCN38AuHLB722kieSrRol3giZTKo8kRWYg4ViCxj1XalgVree+XNp+VKfQy7GuvXbZcojUhcuOK+6/jdC/6IHY2QgZeQmEw7WCTcEWMWr0DIYGLTjtLH82H+Qgy+LMVKO/3GYAqzdUDxxIBjDzqKs04/m8MOOYIxt6bz6ITYLp8ckyKdONv6O/jR3bdxy723890brqK5cZKuNWA2a2OP+cQmIU362H6DeuypOpKEDbGUZUdiGyPOvpDNld9RtvCNWLdlF5ulQkfh9h04E2tZ407QuXMr4wOP8177Js474xzWt/bT/EyDmlZEBllHQ70f3Ho9X/j63zLnLWAmPA3pZnvzRDIzJw0ZX7+GTqezqClbNteNZInKErV07AqA+jH4bRjvevzymefzgde9E8Hscae+SMmXfJEcvVLl5biHUgHlVayAZBkmUd73eT4aC7/cXV982z89iOQ66U28gNz2FUSalkuUDRDbvOyBa/jtf/wc25sDQjfTZjl/2D2aWk4pkCwt8+J1iAsvumWjng/lhonnYdEaOGyM6hy3z8s5e9MbeNWhR+OZBnkcMSYSAEYGWxbEcllth0iAJJnnkblt/OiB2/nrb/w9O7J5Nh6xP493t6niWWvNGL1ul0ZWV+9JwCeWTll194X/MmrOK0HEiHcgzXr6MwkNJCyRc5feG5tabYJ0ZsCaeYezX34Kb990FkfucwQZjoZZTVMXlVXyJFZVtHv7W7nwpsv4+4v+Nz23T23NhB5X6hoW4g61iTEGC3MYKQFraXZ075VQVjJuS16Kl1jU5gzjXZ9fPeN8Pnjau9QbasnQLakaSRewwKRVJn3lmikJT9e/6uJdiVVXILKMVft5g4jome0KROIhiEx544QPz3GIt47zTzmPczedyRqmtSdEnux1yUtISASESaIDqBwrUCAR0eZt7OCCy77KN793EX03orXvFHNxm244T9BqYavLY5EIGEq1ZDFnUs6D0UqQekkS2ojiWdn/o+3JQrGPI51yJ8S57kMzHD1+MJ9860d53QHHUydAtMjiIqZuSeiWax+N5/sskHNbeA+/97/+K3dvvxd7rE5es6DmMR8taC4n6S1gvKACkWXcr8/VphWILGOlny2I/NY/fPZpPRFjubsGEWWSG9b6E0SPzHPcukP5pTPew6b9j8aKxbA9Jv0x8mKgrrk0xkdxoqGV5To6uErGZXboS6GX//WvX+AfLv0n9nrJBvKm4eFtmxlfM63iRRpeSaAyDFHKJhcp/Ur1pSi9gHzYXKf9P+WgK3maO8KUjTJcp4HVTjnj4OP49Td/kMPr++OkBs9pERUJTctT4n0cRmReTtfAIzzBFy+7gH+9/hIGkvQVvKh5dNJemRBOo6FmWeWJLOOWfU42rUBkGcv88wYRqV3Ik95TY90ZzoxyIna/oNaBtx51Ch87+wMc5h2ghC0rd2l4DeKkp7N4lfA2ZIuKHICEN5J7aKc9Us/wYPcxvnbZP3PhdZerHsnE3mt4orOdULqIhVuibsewajMsAWubv+qm7swBaQJWpuWJ/IDkJOJEtULqtQm8Lrz9Fa/j42d9kA2MK0nMMh5pmlOzPHwBxlwa41I65GxjgW/edQl/8U9fZCGLFESEN9KTWTo1X0MQAbEqnFnGDfscbVqByDIW+tmCyDPlRHLhVwxBRDIb8pKSrCReJbFaT1zcHTHnvfwUPvHmD3Kov78KOucisGzZSofPhKAVp8rVcIUJakvgIDmOVBOlD809SnNymgfiR/nDv/wjbr7/Nqb32Yu21acbJKoOL4nVnQnGUtxAchhKahvqoWhfofBNpNFvKDwU9CLVh6374yxs3sG7jjmDT7/9k6yRaTOhwQtaFMIjiQt8DYOMttEukDFLny/fexGfu+BPiF2Loi7dyraOAZWZwCLaVKqnVp7IMm7Z52TTCkSWscw/bxBRFkWR4+sgpyUgoqNgDOtrUwwe3MEbX/IaPn7OB3n5+EswqTSRyZPawnP8sgk/TUuDl8+RUGQYnli+w1zWIbENPVKuevBGvnzh17n9oXthrc9CK2bgiTRBKU5UvsQDKZXTpTt55ImMhJ4VRGzxoArqgwS/MDT8cbbf+xjvPvaN/M67P8X4wKaeBwQNoaVbWNJtnCYY2wU7Zc6K2eEM+Mbdl/E//v7zmFZNcyKhTPWzS+1ZBERU3LoCkWXcss/JphWILGOZny2IfPrLf7TbnIgaytOAiFRNxosa4YM7OO+oU/g/3vGrHObvpwOfJHlq2x5hVnIqxBsoCVviLkj8ofRZ0iKWkXNsT9pEbqEZkstu/gH/dNm/8kDvUcL1Nl0v1PBnUeJQ8ioqCy0hSwlIEipp5UjmvDwFRLJeyFhrDem2Hu8//hw++caPUhsUbKitpRslquRuS0pFdE9Eec3OaROx3fT49oPf57/97Wc1sRo5KV3ejkXrAAAgAElEQVSReJSePPFELOmBKS9WVZ1Zxk37HGxagcgyFvmZQEQMTEq8ODV9b1gusZR4Hbj0wat5usTq04GI/Ew8kUmrQfzwHOe97CQ+/b5Psp5x6kWAyV2ywiJTLQ9TtriLUM9QBKnsZiv/I7mRtGaIrZwuKfP0uOTK7/A/v/JXdDcUWFMehWMpSa6svhSadxESmS/ShBIySS4jlzK1jeXJrBfJxsY4YUTLEat3yXaEvG/Tm/nUWR9hHU3qmU9hl7R8N5N5NENFaJOw4GQ8YXXVE/njr/2FhjOJl2uJVyQQxNv5t4QzwleREm993l4s8X7otHfjx1LilQk3gqnSW5RoiVfYvZJDUimFMn9cCTUvwx5Gm1YgsoxFWy0gcu4RJ/I77//Uk0BEfAXpeFVltaFi12gW92KKQ+a25BmJUzAwKZGOybS5Z+Y+LrzxCv7qiv9Nbd9JVUwT8aP6ZJN+PCAOe0xMT+rcXe1KXgQRF8uT8RUliNhRREO4HJlLPhPy/k1v5jfO+gh70dQxEYWRArTBTcoci1qySZi3M2asHl+751L+5KsViCzjllwVm1YgsozL8HyBiEj7STgzQZ1k8zznvOxE9UQ2MqHsT3IRBy1BRLuHhfs1VCQcSp2WZ1lkKgeQOYXmGyKT4do1TV4+0NvCZ7/551x5+zUkDkztPc3MYJ7YZDQn6vRlcNZwTq6AiPQEFaJz6jk6ikFAxEoiGo6v1aJFT+TMEkRqhY+xhCxm6UQ8ne6n40MTFuyc7XT5egUiy7gbV8+mFYgs41o8nyAi4cyEVSdaEs5sYFJJXKZwKUR8RyhnQxBR5XPNi5ZUenmFaUhhG4xnVHM0zNPhdDmLBTPgjrl7+Mzf/Sl3PXIvk/usZaHoE9op7rjPjoXZUi1exi+khYIIIkWg2iBGtVytLKY+9ESKHSHnH/9mPnnGR1gv4cyuQESLTiltk1Ugsoz7cLVtWoHIMq7I8wUisYyOyQ0taiSPzHPeEWVOZAQiItojNRqRCBAQKUdDLsrKL86AEY0O0V/VsEf4HcJkjUMikRrwUu0mvuHhW/jLr/0dP3n4TtYfsT89E7F5x6M01o6pbqoyVHUinyRcy0HeEs5kEs6o5kkZzgiIaE7kKZ6IhjOSUx1VkQVEJJyhx1fvuaQKZ5ZxP66WTSsQWcaVeK5BROUFZOiSdK8XhlYeKIi8RROrn2JvJstwBlc5FMIZKfVWl35pp4iepXQZi9EnSclM9V2POEt1Jo2pGRbyrnoo37r+Yv7hkq8zI6354zazWZc8kIqMSECWgkFZmqrGh20EwAyFhDNDEJFwZpQT+eQbh4nVwse2hIYq4czIS5JdM7p2xhN0+drdl1SJ1WXcj6tl0wpElnElng8Q0aFLQxBpFgHx5nnOPfIkPn3+p9i4BEREFFA4GuXwqHI8gjBXBTjk39q5KhrRnk9/0CdNEpqNMaWrC4g4NZte1qVnh8xkXS770Q+54Lv/zLa8jbe+ofkRGXGh4Yyojon8oWXj2aKqbrQB0MpF2+TJiVWpzkhORKozti00VKnODGkogm0moy8gYnX5SgUiy7gbV8+mFYgs41r8vEGkEA2SHPxhl6yUWKW8OwKRkSdyzpEn8Tvnf4oNTNGiPpx0I16ICBaVyu9i6JLwFJaqNNOJfKocf90EZFmk6mLj9TH9XhjGuL5DkkdkbqFdvHf2H+QrP/g2377+O7TtARMHrGWmM6M9NTInJxcVM+GOOI7+viJJFUTqbg0zrM5oTuSsj7CWJs3Mx7EDbOGajGbfjkBEciICInddwue/XlZnZExG4hki6eSR0CtPtRw7emlJdjiIvPRrypmYbjoq8br86hnv52dKvJJc1qTwkhLvUEqkKvEuwxiWbFqByArWbVGUZ6glor0qSsoa8kTcms6SWZQCcOHSB67md77yebbVe/TtRKUAakMhZ5EC0BGPUvEsIFCJwbJLVjRHY7m7c4spu6mJ1XMOPZF//8HfZKMls2rrCNNV57dYQjuXOSqGNM5xgga9POP+bY+SujA9PYmTZ3pcvR3zTLUmtev2kW3bWLtmLy27dgddQlfm4tS5M7qfv/jGl7j81u9jTwdEfkbuF3Tjvk6aqDXq9MKBzGegOTHJoNOlaQd4IqCyPeSdJ53DJ974YaYFRHKfpmmU4s0lk15tPzUZodLee3ztzov54298gX7NZuBnRI5M5YvxhKmaC2iVuwqoKn4MPS/hnejALFFFE9Gm2ZEUwPv50OnvIogtxry6Vq2kLaAEERE/cnQ0hX5UKYlS8URWYg+VnsjyV+3nCSKS7qypYHJJexfxohGITJumks3OOexE/v0HfpO9jZhnvSypWqLovoAn7f+xIQoz3KDFQp5y5U9v4sY7buWNZ7+R9RPj1MKctY0xsn5CkhbUxyaYb3dpOgFB3VEm63zWZd50uXXLXXzrygu5/Jbv46ypUbQcoiKil0fYrvBEjAota+gUZbScgFrkUsyEvOvEc/i1s0oQaRQ+Y9ZOENHhe+JlWRkRGQv0+PrtF/NH3/wC3YZNP8iIpTdnCCKiYSJe2sgzK52QckBYIIkcCdjcXFj0S0DkfXzo9HcvAZFCVdGUbCaZJAURHcBZgcjyzWBxj8oTWcHirUoQkUe8CcthVrG02afg+8S+y79eewV/9qUvcMrpJ/Hed7ydycLFDQum65MM+jF4DR20UHRjGqI4b+Dxznayltioy+UPfp+//saXuH/HZpEIw2o69POIQR7jN+oY16Hf66ke6ghE8pmYd5z4Zj521keYps4YQRl6DT2RCkRWcOOt0l0qEFnBhVmtIGKMtN8lOnJShMdiKeX6PpfffT2//9k/IGgFvO+d7+Tc404n6fSY8iZo+GM8um2WffdaR9YfTtULoCvehjXQCswWtnL1XTfwt/98AdsG28kaNjQ91Y7NXXBrgSq5yXDuhhl6ItsHvOOk0hMR2nsDX0MvzYcMyaojTyQhU/p95Yms4GZcBbtUILKCi7A6QURU0QuiuI+ViNBzQDvt0/fhhodv4w/+9A9VnNnJC37ro5/gtENPZCAT+WpT2HadTLSjXYj74IrDYKCddYhEGRpbZ+V87bpvcvG1V3DP9ofx17aIfegRk7sipFyOr6gbn1pkkz0R8o6Tz1ZPZB1jNPFlem7ZzzMcErgURPTzq3BmBXfj879LBSIruAarFURUlV0qO0mGF7gsZAMeT+e48fG7+H//8nP4Yz5btzzCUfu8lE//2v/JYRMvpdsdsKa5XsTVGZPEomgpSuLShjAbkDmiCp/TYUCbPn9/yT/wL9dczjx9rIma6sVKH46UkUUuoGEH+ANDvl1A5Bw+dtaHWMuYeiItARElwpWLLiCSDXMiFYis4EZcJbtUILKCC7E6QaQkqboCAHGG49n0iXgk3c61j/+UP/iLz5D4Ga1GjZl7tvC6o0/m4+/+FdbU98K3Wky7dUwEvgVxlGpJ1a+75HbGQtShk3dpNCa4aeY2vnXVpfzwtut5ouiSS6LVEXV4EQ0qaBgfNzRkT/R5x0lv4eNnS2JVJtYFNJGRFDulSkYgEpOpp/PVyhNZwd34/O9SgcgKrsFqBZE4yaj5NlE3wvEsIi9VJug122/jd//sD1SQaHJqHOZjFh6a4f1nvoePvfdjONTxC59py0U4pWFPensLgpq0/Wa0RSS56TITzVKrT3Djjtv4wjf/jps23wETPrQ8Urug029TMz5eCKmAyMlv4WNnf7TkiRBQx8VdCiK2EOFyHfLZZsBX77iQP/rGX1XVmRXck8/nLhWIrGD1f94gEqRCpFqqbCZMVKPtdtLFe97LThl28U6VDXh5Oe1evkRRRLgShREB5AGzVsSlj1zLf/niH9LzI3KrYGNrimxHBDMZb33DWzn/zR9kigkCCp1d055dYO3kmHJWuvMLNBo1LcUOrJjZrEM/gBse+jF//e0vc/tj9+FM1tXrEdZr0g+Z9sbJZwa85YSz+I2zf4UWroKIDLSqDSdiidekwkfCFSFjTjyRZwkiqZPh5ob6nM1Yx+NX3nA+Hzj9ndQiw7jfUA2TqsS7ghv+GXapQGQFa/qLAiI9K2TOhFz8yLX857/5Q/pjIjIEdZlmOzCY+Zz9JvbhjFPfxNnHvZFaAuN2jZbxGXQ6ZZI08Ija/XKub8NhPuky8AqeoMN3bv0h/3LVZTw08xj2hE9kRQzCHuOmQbK1y7mvfROfetsnmKBGC0+n0PnKMitDrxJEhFlbVCCygvtwtexSgcgKrsRqBRGhtgvtypOCisnpEzJnh1yy+Tr+099+hk4zxR0LiDs93LhgPGvQe6LLARsP4n1veQ/nHPY6tm3dzEHrD9DQYzC3wNrWBMQ5aZriNDwGJHRNSGY5PM4Ovn7Vt7noB5czE88pGW0Q9RmjRvfRec45/kx+810fF/019USCwl4EEVEYE9ZobjIFEUnUVp7ICm7GVbBLBSIruAirEUQEQORLwhkvKfvsY0Lm3ZgLH7qO3/3SZ5gJBtTXNel1Fyh6Cev8KeL2gCK0eNm+L+W3P/ybrHFb5P2E/Sf2poFHNNtlenyiHEYj2kc2zGc9QlWFt7i7/yDf+s6FXHTt5bBWJtzFTLvj9B9b4I2veT2feMcvl+XdIqBeeHjD4dkCIuqJyFzgoSfytTsuelY5kSqcWcHNvAd2qUBkBYu4KkFEKOTS6k+BLyAimqtFyJyfctEDN/C7f/sZtrcGJA1Rks+wMqHXuwSFQxrm2J2U4w8+mv/rw7+hYYw7sNi/vhEZM+VEqvOsbo7oq+YedIoB7aKHMS5377iXr333W3zv7mu0r2ZtbZpsPuLsTWfwK2/7EI3MY8w0CDIXd9Qzk+VkouGqc25y9UQqEFnBzbgKdqlAZAUXYfWCSKKq7H48pITmKW0/5V8fuJ7/+KXP0FlrsSOewWl6NGo+3Zk2Tmox3hwjCA3FY11OPHITn/zIx9mXjTL1hinGdU5MIN23NvS7MfVxj8iCLe3HcMYFZjxum7+T/37B53lg68P4iYvdg/NOezO/9LYP0kgCpt0xVZ9XELEg1S7jjMLRIReaE/n6HRdXnsgK7sfne5cKRFZwBVYniEipNMVVT0QylzbCIOv4GRfef5OCSHutxUy+A9Ow8VyLqN3RQVfjrQmmTAOzPWLHvY/zyY/8Ou8+7V04aUaraGrjnICIqJHFYYFTs5TuPtObJbET/KBGh5Bv3X8Zl1x5BY/f9wjpbMw7Xn8uH3nr+/FjT0eAGhHCH3bzZ3lezvutQGQFd+Dq2qUCkRVcj9UKIskQRDSxqrJoOW0FEQlnPscTYyHphEVUDMjjPo5x8IxNlhX4qWE8sZm2x+luX+CdZ76dXzrtI2VDXy9nQ2MCf0hZz5OCXtxTBqyQzOajNgNP1NICLrjmK1z3vauYfXSWt73+LbzvvPfg9C3WNCZKT0THWognIhP5MvVuJJwRKYCv3nEJn//mF+nXLAZ+odP4ZDtHJuw9VQpAcyulCNOiFICd4WWGoL2kxHvaOwliw6TXUDJckeXEhSyQhGgOxsj4irKLtxSlHQ3tWsGN8SLdpQKRZVz4ZxIlkpks0mae2742pC3qiXhw2QPXIMOrnmj0lSqeWgm+SIBYIhzk6GwVcevl75XyRFIrUqFEJykFOyRcmHdTLnrwBn73b/6QhYmM0E9VYV1kDsuRmDIA3GgHrun32DC5hi33Psba5l789q/935yy/iSybMDavEUzcWiJ1csAF5k/lfTo5j2dm2ucgFirLG1uueFH/M/P/QnHH/0afve3/h/C3oDxoKHaHVZRaqUICcWSHIv8KXLmrJC/v+MiPvOVL2CN+SSB0SbAxOS4rk0ShzoSdJEzr0dQujWihC/ft2WQVpjRCmtM9Gu8/5S388HT3k2zcGnI/F/ZWKpChcCWTAe0hxMCZQzpCD8qEFmGSeimFYgsY8VWO4hIB6+xZLC2lGkKBkVK20m46KHr+b2//QzdsZzITyiGIGJyh1wSsDJqs8ipmVQVyuzcw45cDl5zMO854x28Yd+T8YucNVmNugiNyfS6PMbUPeXJ9wiZ7c9T2A7j/gTbOzP85Z//FdPjk3z4Ax/ELmwcy1ALAtUdERKbgNgiiGQZc3bE391xCZ/56p9jmjWyGvSyhMhOsT2XNO3rGE31jGR/dRpkMl4JJrmIDImI9BBExgZDEDn13UOyWwkiApaj6X7I8C3LorBEo20ocF15IsuwiHLTCkSWsWS/MCAiTXQOTwIR4Yn0dgMiqRhfkTPmGQYLXabG1hC1I2Ye2MHrjz2Nj7/twxw2fgCNQUErc2np5DiRoC90hk1kZSqelIu8o9aHCu699x6i7oANe22kWWsyMTauBmtKEy5BRFi24onkGTtMyAV3XFqByDLux9WyaQUiy7gSqx1ERAXMNuCKSKpdgsisE3PpQ2U40x8vCIMErDKcsQpH5+oKiIiH4BUpNdejSAuKAeT9HH9g87qjXstH3/xeDqytI+jnjBmfZm0Msoxev4flOnj1QMGhE3V1RRt+g8EgJB7EtBpNbMvCdXyVjdb2GatUjpf/CYjMmgEX3HkJn/1K5Yks45ZcFZtWILKMy7DaQSQhVj9A5tGKl9AvUubchEsevF4Zq72JQsOZ3YFIHodMTkwwv6ONa9lsGN+LmQcfZ7qo8943nMf5p55LPTE0EoemXafuNUq0yiFKI9WNlWFWwm6VRp40ShkfG9cV3rZtO2vXrtV/qxK9cEQURFKVV5y1+/zjnZdWILKM+3G1bFqByDKuxGoHkbiItITqRTrNgZ5opToJFz90Pf/pi39IfxIFkdxKsIeeyCgnooadpniuSxrJDJmCllfDiQr8sGCtafKrb/0Axx54JAf6G8nDBC91GWtMKoj0Ov2y9IsIKpeDxQe9kFqthh94dLshjUYwHGch4zOlDiJbp+qJzBkBkYsrEFnG/bhaNq1AZBlX4hcRROacmEuG4cxgYvcgIuMlFAKyDFdGM0gCNE0Z92r4sUW4bY6jNr6UN59wBmcccwrTTGAGFi3hkDiB8NKQzOXc3Ax1v45fr5PHGYNBhOO4qk0y0iNSmdUlICIDtObsPl+twpll3I2rZ9MKRJZxLX4RQEQ8DAlnJN/Qt7In5UQERAajcMYUSHVGSryJzHUZzqrRsZhFgmsbGoFD0uupgPOkXaf7yA6OP/RVvP3kczj98JOZZpJcRlOERhmwaRaRJBG1WpMsSbCNX/bbZMILKXA9IdyXkgXS5yOgItyWNIs1nPnaHZfx2a/+WVWdWcY9uRo2rUBkGVfh2YLIb//j59jeHChPRPIHwhORl/BEZBSCVDUkNlg6MiKVBjXbVj2R8Twg27LAW488ld9576dYz4TqiejYSkvGLwjtvcCOyqSlhDNzXsJlD92oOZEynJF2t5gsTxREbNtVEJGeGI2BrHJ+nrBM5MstCpw8VzKayBu2H9jOiUds4lff9ku8cs3LcHOHZl7DyQy2ybX6IgdjuW6JEpIviRJcX4aOlw18Eu2Mxs9ERUyaxsy5A/7h1gv5s3/5InngErmpjoyQEq9mi4mfscQr8oxC4xeeSL3j8r6T38ZHXn8+Y3g0CldLvDJ2QoIoeWlptyrxLsMCdr1pBSLLWMLnG0RGokTnHnHyzoHeheiW+oviPhKSSBev8Ca6RULblZzIDfz+35QgEgdSio3JsxJELMclN4ZU9T1K0pYZgYiVqG6qI1+ZoWUCou096qHHmzadwYfeeD4bvHXknYQNrXWk/Z6O5bTlbynnylwX2yk5YdIvI7Y7nDcjnohmRIpEh0nNOwO+fPtFfP7rf0nq2coTSR1DKFx525BL0jYryXi744lUILKMm3kPblqByDIW8/kGkSmrQfTQLG85XAZ6f5IN1qQOrxqBiJRLxcjcJFcQKROrsYLIqDqTBJJCLUHELlyM6y2CSKZj4JaAiCRJi/IzHXmC9xPW1qfpPNrWprr3nP5W3nbaueztrcPLDY3CwUkLHOOS55AlOb7vYzuGOM6VYi7kMA1ndLyFFnh15OeCHfGPd1/M//cPf0rsWFgth9xz6BWhgojlFpCIh1SByDJu2edk0wpElrHMzzeIiCciE/BGnsje1jQNauUEPKl1mKHBi1vBCEQSLt1chjMLrRQBESnxZuKJ4OI4HrltI+oBYswCIraOBBXh5dJo1TsRG45SWo4IDDXob+swnbd471lv562vPYcWPnI0hCmu6+LbAVmaqTci69bv93Vkp1LOh16IAN0otGjbEV+57zv8t7/7PJEN9rinINLN+jqLF09mf1eeyDJu1+ds0wpElrHUzzeITBQ1BRHRWP0P7/937M00NYn0cxnGnZE5Ul4tcOKSESqJ1baTctmWmxRE5huxgoj0zhTpLkBEdV2lp0aAJNV3mTYlRi8vKdfOPz7D1Pg69qpNMffgE0w7Ld77prfyjmPeormHopNqj0uz3sTBJc9ybXqTiEYARUBKPB7liYgXIh10QNuO+cr9l/M/LvgT9URo2hrOLIKIK4lgiYoqT2QZt+xzsmkFIstY5ucbRMQTGYUz/+GD/459WKOJ1SKzieUJb2cKHm5UlGQzmXHrplyy+UZ+/0ufXfREMit+EohkxpBIS5qChoQuAiLll6Z7h9UUTXCKrkicM+G2tPTb3bKDw/c9mI+e/T5OPWAT4zQUOKQbpWHXSNKULM5o1htKQpPEawlK5e/LBaTynDk35st3Xc4f/9Nfa04k8XNNrIoAtOZEJD9Tgcgy7tbnbtMKRJax1s83iEhOZPDADGcfcoLmRPZ11ypPQ9TeBUREm0N6cp2o7JLt5gkLfsrFD96gDXiDKUs9kRGICO3d2GViVUBEAEOMfAQikg8pqxjlIO04Chlbu4awGxLPyxjOFvVMRJAsDm7twyfO/CVOeMmrRJKZTthlPGgpWAw6AyZaY2RpqqGNJF8VRGToZy6hVcZ8EPNXN/0Lf33Zl7EaASIyPSgyUq/AEhZsNtDB25Unsowb9jnatAKRZSz004OIuOsFaZaBYxMnMYHtEmYRoZvznQev4z9e8DlmmhF9LyE1MtKyLFzIAG0xX3lES3u+lGmlq1ZyHPIzkQmwc8O0PUbnvq28/uDX8Onzf0NBRL7nSsJACrMyuErAIBWtDplaFzFvJ3zngRv4z1/8HPlaV0u8uSVU81JTQ0q8mWUQkaDCLjtsSxCRcqhQ04fSJBZYnkPU6WDXaniWS9TuMuHVqBUuC/dt4/xNb+PDbzmfDa31tBdm2TC2Xj2lXm+B8fqYlme0alOeqvgkxFlMnMfMegl/fOVXueB7/0wwXqeT9FQU2vg2lmeRxANs195ZmVF0k0StFpVLsDOpcmRaob9Y4v3o66TE69DKfTyBIcn9aDhVntfSEq8A8DC6WsZdUW1agcgeugfk5ovDPq7tYHmuhgWdfgfqLn0KrnjkBv77V/6cR5lntuhS+DmWV7bEa97QcnAjT2kaUv4UHY1IJIyNJEIFISzWBNP0N+/g5VMH8hvnfYgz9z+JvD8gmw/ZuGGjNr+5QUAo4JH0iF2bx5jnaz+4kC9d/FVqe08Q2jHyp2yHz5SzIYZkScig9IlS6EerskUJIhp8iNGJ8WluQ/4jYj5l+7x4FvXYxmwd8K7Xv4VzTn8Te5u12HlGI/domTpuYrByC9fYFLbRrt9+kTAoRE46YdZJ+dBnfotZNybJQuXRWI6UqlNS5ZKE2JIrEV6HHIexyxyLsYmSjCIeju9LYNpq0Gwbzj/xXH75tPdSjwvN3TiZ8G3khOXwRQJAmLNDvUY98wpEVmIOFYisZNV2sY8YXp5K+6wYmbTSWnTCHkVg0yHne5uv5z/9xWeYCyKycRsz7hLlIYPevJK7WkGTvCtGaZPalk6Ukxm4aqXSjZKhaulmPmYqrXH6y07gI2e+kyOaB6sf0t6+g8m1U+zoLxDaGY5fZ5YBVz90k86GufbuH1Nb1yIyKbElgyulh6YkpZVfYpziygz1C3dxjmK88lqq7Db6v5DRrJku64MpXn3oKzhz02kcs/5lTNLASQolgQV41Gt1BqRsmdlKfc04NgHb2ME3r/oOX/jeN+nXRGekBA+pImFLCCSq8BnGMaR5puxXERRKMxGjtnBdj6BWUyGorB9S70GjXfDRM97Fr5/6IWoUOtqzYWrl+YmMgWWppycgIt6bkP4lWKo8keUbRAUiy1+z3e6hT7Y8JxNhH9doKJMJmJByzSO38F//5vP0GjnzJqSdd7ECQ9B0KLKEXq8n8+HUOJSIpUroZalWlLtk/KQbGSadJswnSKXmrGNP47zT3sRBtf200iFPUhEIEiiTsZRX3XET//z9i7ltyz3kDQczIepjsXoBQvISt0cVzgREsLWgu1IQEVnCdX6Luc3b1PM4/ZjXcsarT+GQdQeyl5nSWbzpMPAYiGKZ0t4dtuWzfO+6K7nouu9y58JWkhrYnoQpGUkelQJKHrqexrXp9LqauHWDOq5TI0kyEllvbHyRJEgsaj2oL8D7TjuXX379+dRziyC2CZyarqWcqyZ3BaCF8j88Ls25VMJmy7aICkSWvWS73kErGEPxvjSJkR4U6SMRndC+ybht6z381ud+n3TcJRmzGDgpnaxDUsT6YLRdl6iQZ6LI95USfvJlibZobuGIJ2J5tJwGLGTQS9nYXMthBxzK0Ue8kiNfcjhuBq5nsxAPuOW+O/j+zdfyk4fuJAosWuun2BG2S/EgFU6UMEkASoCkjFmeCURGZ74rT0TwTubUmEiOLaOWOuw/voFXHvQyXr7foWyYWscR+x7BQrKgSVrJ39yx+R4u/eF3+fHdt7NARNa0yVypWJf8kUQ6a8QbMQWFA0mellqo4pnZHo7xMdrzg4pAT0vPznyINRspZ+X817+Vd552NuNZnablYeeOehsjunvp5ZUhpb4/jRe2h26TF+THVCCyhy6reA+hpkdF9DfXJGuSJAyyiDSALZ0n+Iuv//Daid4AACAASURBVB03PXAbWwbbmTpwPY01LbbObWXH/A6d5WKN19XFLmdMCnjIV66hjBCtarZPPkiRqqeUTz3LJ+zHGgodvPcBNAtbvaDt7TkennmMubgLDRfTChTMTOAoU7SUBSp5GiUjtQxRtAlvqFv6dMuyKxCRICjq9JmcmCbIbNqPzVC0I9Y31rBhbA01ExD3BzTHWhjPYcegzdb57fSzCKfp4483NMEa5wodmhgW3oscb1KkFHkKSYIzNobvBvQ7EUU/wfPrjNXHaMisnG5GOtPH6WYcue8hvO+st3PiYa/BLwwNq0Yu5DdJxmoehNIDG0pDlue0+1BuD90mL8iPqUBkD11WAZGudKoaQ15kqilapBm9uI8JDO0iYktnGz/88fVceO1l3P34g5iWS2PtuHoj2wazMBmQSx5EYnTlaUi1phRUVhXQVNr0Ha23at8Ljmp2pGnOhN9gHJd0EBGKl+HZIi9G6kIiDW+quRqrEFDJ0djJ/jQ6jU5/62KlY1fLMgKPXYGIJmClga8ocFO0Yc9PHB3XaeQrKfBdDy/w6ScDdnTmSF2LxlRL8z/dfodGvUaaJ+WXiC77Rhv2JA9SSNZXlNmNq5Uqkxi8wsUzLkkvIZnr0eg7HLXvIbz8oCPYdMQrefVhRzNuNcj6iUo0WgLOw1cp1VgS6wTwS1fE3UN3w4vrYyoQ2UPXW0BkIJUKyyKOE3zj4NgWYRhqmTIxCZ0i1nLqT7bfxVcv+Sd+8KNriO2Uib2myFoOjyc7tHtVvYORqy3GPvx3HMdMT0yLHCq9TqhPTsdylSHacHz629sKXm7gYzyXQZ7QjqWDpsAKHCzpXRmWcUssKXkhewpECtcm6/ZBuna9OmOuJFXBziw8yybsD4hTCVEy3LqH2wooHIuFsMug36Xu+hpiST5I1e/FYxhWUQT0an6dwXwPO7aY8MdUXS3tRSSdGC8yHL33YZx1/Ot55WEvY++xDToTWJOtYarei4SYJQAKcEjZPC+7nkfizJa7WI3aQ7fFi+JjKhDZQ5dZQCTWDD/0egPVKq3rqIMc44hBFPSzPp08IvMs+qRc/8DN/PN3LuTWu2+n74R4G5uEjngLIg8gT2QZNSkufaFAIK9AntbCA4lT6kFDjSLsheRRRt0JcIxNkqUMkhg78PAbon1qEQ46IO35w9BFHB4BEhnhIKGT5mGWcC6W64mIyFBWZBjfVw4JcUo+iDFJTmA8PMcl7PUJGnXVGJHKVZjHODUXyzNkSazJYx0LIdWpIedGKPK2ZbSpz80csp6M4ghoWXWimQ7h3IDDDzyEU151Ame/5g0c3DiAmAHd2XkmahOM1VqaMxkMBvi1QE9LPJAngYgsrYCLZVcgsgJ7qEBkBYu2q13U8EekCvFIxCBGUl56k5ZDk1I7JVKF9JQBGZu7j3HVzddx9U9u4Pq7rqe1YQxvrEE3G2jvS16zlXSVigCyLyMaJPNYQBhKphHLD6i7NTWKNJEwpZxfI8Ynhq1KhcP5Krm4MMNxC9rMNgSRkTev1aUVrofuq6FYSQKT1I6EHSVpzdIcZpxEChLimQmwyixeXZMs1Wl9SJWlVsPYkpQuyXCe4yPV3myQKNdkr+YarHZMe8sODpjam3Nffxann3AKG7310k6IL53EUn+RkCcVEXsRaJIRGkb1X5VkJgnrIalOPBGnZJ1p6Xd0CVe4DC/K3SoQ2YOXXRKTiyVCNZ5huUZARAR50ghLxlfaCbFdkNkCEDFb+k/w4BMPc9+j93DxDy7h9ofuYXK/vfDWjvFIZ4YeMWMb19BNIvKFOa2j2BOTNF2fXrtD2ikV1p3WxGKzXFnCLA2oGFZfhsz2csbKEhAZLcFKAURxQ0Gk9Ja0jKoANSKtjWa6yDLIsKpSXXVUZlUjNxaT4xPs2LFDW/79ekPJaVFnQMOpsc/kOjqPL9B5bDvrvCnesOkUztx0Kges2Zea5VKzAup2A6dQNRMFEVFaElDVnh9ZB0dKx8N80CKIyHhQHYRTgcgKbaECkRUu3C53k6feUp5B2Y6y80vkw1xxD0oOROTLQ9tGnrmSDt0WPsp9Wx7gu9f9kB/++AZmTURrv72I6/DownZMwyeOpTUefN8jixPShTbGOIxPTTIfxiXNQ3jlQwBZepz6VFanaOSFDB2HIYns2S6F5FVHr9FwqTJ8kJcki4c8GmHCCltWD1XKtaWIUbjQpj4xraHLoNPFx2Wi3tLO4Paj21lXm+bYQ4/iDa8+laNfcgRrnQm8wtLtAisg1TYCWz0Lne6nIFJyQYQlm2l7wfAlyW+ZL6yAI7FdBSIrvf4ViKx05Z6yn4KH3qGleOjILVa1wRGYyF0uIKI0dqF8R8RuQeqAKLXHyYC6X2OWDj/48Q18+6or+PHmuxgE4K1pKmEsLEJ6YZ8kGuB5Ds16Ddcy9OOIruQ2bEsTqEv7fNSQRHhZY5vytRTsFsOZZwkmo2HdI+mAEXFNnv7ySuNYj02SvxrWDHNIIyZsnkrvjpDCPLzCIe2EZN2IcaehpeLTjz2RU191Aoc3D1GtExlGPu1JZ4yh1x9oDkjm6wo4KFDqyEyhyJe0fskrSa5lFLRJ9KUgMjrvKpxZkTVUILKiZfvZnXaCSIkjmSUu+3BWrLSoiB0PEpUj1Fm2Q38/sVL6RcwgjRgLaiz021qWNW7APe0tXHTN5Vz1kxt4vDfDbNKlvqaFO1YjKSLCTOjrZfu/sEFj+Z1D3VAFkaERCYtWjKmcZfvkl6YDRo/nJSXQ5S5L2Wsz9GyW5FZGjW7ykyIW4pjBsctB4gImksvRsKcwTDcnNHyRCkzSDbUKs9/0Bk56xSY2vexVHLnP4QQY6tSU2CYeiAJRZg3V0mTpCzz5nkrFSg5oGKooiJTcVMkZyUsARLbTXqBhyFflRJZ75asxmstfsd3sUT7gVPCi1Du1pL2+JDWJgWnlQeIWNVSxGumvKX8YkhJnEb7tIGXcdq9LaGWMT0wRkXP1wzdwydWXc90dP2I+65L5BneyRmQS2mFX2Zz1sRZRIo11Yg+2hgvye0v2a/kloUP587L5bNFbGhlQVoYcK3ntCkRGv2PRMAUwxEPIhmEEBs842pTnWy69rXMIfT7rpzTtgOOOehXnnPpGDt9wiBLG6ngKLMLabdh19av6/UhZq7WGR1T2QuNqiFIMQWQUqmiP7hDcyzPUvLN4LaOc0TC3s5LzfzHvU3kie+jqlzSt0gJTy5ImdgWRsn2udD6kwGhJY4uENWKtQqYSpqt0qop4T5hSr9d1zm2YRyz0F7TT1WrYWMbj+3dfxWXX/4Arb7uWrpfS3HuKLDDMhh3icIAb1BS2VAZkyMbU0EWMVxip4pFoR64+fhdb4Ufhh5U+OxAZhUsSvugTf9jyv8gEHXpH0piskgeqEG80/BCWq5mPdDzFQRsP5OzTzuSUVx7PWqaUxxHg4hZG95EZN67lE/iyqqUA9Gy7zfjUmMCEtvxLiCLno4sxTNyWumjirZUXXWju2nQnV6hM4lTVmRXYQwUiK1i0Xe2yCCLaQ1MCiIgNDu9OfWpKt62Vys1dkjtxBGRENjlVJ0YSillW0uXF6Zach8TyC3mXHf02480p7k+2cPVPb+C7N13FTzbfRceKcVs1qDkM8oHSxYfcNHV2xEg1/2AMUVx2GY9ARIhv2oA2MqplgMhT3X7BRNdylCgndv4kEBn2pEg4Yxvn/2fvzb+tKrNswbn7fdrb0oPYYKgoIKBIL/YaqKFhGN2LjMzIzMisqlc1Ro1Rf0KNUb++epUvm3iZWRmNEZFhGnZhC7agCIoKoogKiPRwud25p9n9rjHXt/flcAUugpH6su51GBeDe8/ZZ+/vm99ac801FwqaDRsmzFBDGsaIPYrFUnyj4yLRe6y+YTmmuyzZEnwZgTjyL/9sSu1FA50c41hZLVr0GTGo06Eihm19rLjQ2TEDEeV3IMAqVaTMT4QgopSrCkSU0cHE1xe9AxMg8kXv2Fl+Xp1zap7JybgkhxHm/bL8ockOVAs2D/lVB4vafJl7oPyBr0iFp/JFT8VjhK30+5tH8NKmDVj32ks40t+HtNdCPNNCXziE0A+kL8QkocjNbWiwbVsiEXqxBiFfLYVm2dBNW1rrozCETql5WyNaDkb5R+b7q1RIRTICRvnG49hNqyhVFSpNS5WivJc3MsLuQnR19Ki/a9DsuYBup4po2Eerv4FpXb1YeOlc/OSbP8SUYg9KNpv3OaZCk34hm16taQSL6txROilDvnzfizeIku/nqZWkZrzGtsa6Cc7jS1zw2UtNgMiXf0/P6xWlkyUjJLl5pTIpnAYjG57uCVoBh2YnoLycrMIwGti550Ns2vom3tq3HZsH3kPxog64rot6oybuZW7JFvvBweFBlMtlSkJh2pbYIvpxgibLwix12hwupcquOS9CsnN0E4rBspqsp1IhFXEoJBS7MDixgYLtoOl7CGpD0EplTJk0WWb7njhwBB2lDvS4nTC8FPXDg7A9A4uunIc7Vt2CJVctRtkz0et2wbEcxGy442uaTnYfEmkpyK+vXY8zesPbeJ7zeggTv3Red2ACRM7rtn35v0QQ4R6JqXbNQIQbRUU2SpylGaYASgs+akEDKdMdGDhWO4GPju3Giztfxes7N2P/0YPomdqL6pQe1Pwahpp1pLaqToRs7LMtGd/Anjb29hCuOB+Gk+jUBDz1JSAyeraT59BVH09GzErklIm3CERaIIgnQ8GZYkR+hKDpoeS4mFzpQv3YMILBBgqhjfkXX4U116/EkqsXY5b0uZSkelOxS+INErNzN02FeJX2/Yw0/RyIjHkUE5HGl782x3vFCRAZ7w79u/19Npy2PZ2RUF3F6zKMqtVEsVISrqUeN1APPBgOh09paMR1HK4fwtZdW/Hqm29g14HdqBsR9A4badESt7PEMdGMPCQRS62mDNpmr00apTJW02DTW5YltH9s8SXN7BFVKJBVNDIAIcdAfiGJNDimjTSMEPshKoUiOotlBENNDB3qk56XyyZdhOXzluDGRctxxeQ5wnUQIqzUgBXpKJiuOMOFUSggQrtJGXolPTQnI5H8+tqrSRMA8u+2WE95owkQ+Wru+2nfVbiSdu254Efej5IiYejA/g82qFEhQi9WRiZRgDD0UCiQ0G1hz4nDeOHt1/D0llfw4dG9CDsslKZ3I3I0pK4pZtKe35S0xbUd6eLlcCnbJZWZj3RQl5jrSMR0Kc6MljP+ZnQjJ7RWJMoYcHQKvnRoQQTNS2BHqVReipGJm65bhZsWr8DC6fOk4pI0fFSdKkqmK2MlWN3JtSwySIvl2owUPtNjOt+S9Nfosf8PfykTIPJ1eoTUUBA0mEbkhGF7wYA9IHGEhu9J1YZSbiowDSo8dQ0WAjT9EXgWMKwH2PLpB3hy0wt4c897GNCaGIpbcLsrsCmfj3wEgS92BY5pCWHqR75wHXk0IrjQdn+4sZV1jxr7oMrJJG+pDjVhGQ6ieoiiaaNk2GgeH0Qy4mP1tTfg27euxeKL5kvkYZNW8TWU7aL4njKKqY804Badz/u3coRmBlrjVU8mAOWrWcwTIPLV3PfTvqt0l0qPyVgQUQxmRP7C0GE6rhqMTQ+TIBRHsoJlIhweglsuiHt6f9RAUrAwjBDrPt6Ix158Goca/RiOlJDNcFUzmh8FMvayWCmg0aqf9HcVkvLUqIQEqsbOXCmhUrbOMqoSkBmJASdxUYCJsO7DDGLMnX05bl96IxbOuQZdVgnTjF7Evo+iXkDVKoo+I2rFUvI2isqmQNVXMjNoKcsqwZzoXPLU7gzPrF3w9jV6rP/hL2UCRL42j5jVDzXcSZrkpAs2K39IlaRNmh0lqh+EPiUZaxK1IrgWx1SyqBGjnvpoGiFaeohBNNGfjODJl57Dlg/fxadH98GqujBLNgabNYRxgEK1JG354oBOxTi/i/q2rUSq5Q1rFIgZMNluH7PfRYMVGtBrMYqphandk7HwinlYvegGXDPlCnSjQrig3hQluEKcphw6HlGKT41/lrWJKj9L37LPmyaJEsmxGddQrfpju42lkttW2v3aPNL/n1zIBIh8TR60UnmKTfPJDZGF8SoyyeupSgWbk4inbKhMCMu/o+iMxkYUstG7hNEJ+123Hn0Xz296CVs+fAf9/hBQpEeJDj+lhH4Epe4OsSNsRZ64jzHFEVvGclmsFwsWtaMmUi+C5ifSRUvnMssDig0DN1+/CreuugmXTp0l/S0FWCjBEakYR0ZIxSeRKVvq63NEbvYXY/7//PNOgMjXZMG2XcYEiHxNnonoLjIYOQkXee+N9PerK812k/AWYxrelMpDGSKJCaA4lsUIZc5Mgr5GP8wOF4NpA+98sgMvvLUBO/buwlBQR2TrsDsK4nfqRcowGY4hQjfO06XylRaD3nADBd1Gb6kLup/AGxxB1S1jTu9FuOf6W3DV9Eswe9JFwn3QQYzRB2GH6Y7I4tuJljG6DtXEmLkmnQZgzgYk/PGJdOarWcwTIPLV3PfPvStBRIZqtx3OIseW/x7rQq6ikfYvAojyAlNmZuKsRm9jMTkWhQhiWg4YEVp6jCG0cLh1Ajv27cLGrVvwzkc7MBjUpHpT6qyKM3wjaiFIqE9RPiBMQapOWdzDwsEm0AhxydSLcdPSlVg57zpcVbkIHVm6QrNljnEomA4s3ZIyskaT6bYPKBWf7KPJCBgJq9o+2Vmikfyzt0diEyDy1SzmCRD5au77aUBEKVOVpCv/yv+Ug0m+BxWI5MGI2JOAvSPqi21p7B2h67o05VDBJo5iPgJaElopEkvn5An0YQgfHtyNXQf24IkXnsaJxhB0+nKUbNTDFnTHhFNylCiNPT9eJCZBPYUqVlxzA+5YeTPmTr0CVaYqgQeXLcWxcrq3DBuurQZG0ZHeyhrm8oBKUpOsAsTPYLLzth0dzwAi+e+LGK/tZyaqM1/NYp4Aka/mvp/2XXPzns/bFGa+JLl+lD6qNOLKRGD593zCnDLa0aARWQggYj8Qq1TB4ojOBE34aOmR6E18xGgiwDu738eW997Gzt0foa/Wj4FWTXgRp+yK0THCVAZ0X3PJlbhr5S1YdeVSIU2F3vUD2IkudgYGHT1EkMbGP03sU6MohuOc9DAd5XQykyBJ2MQU9ty+2vUr5/YbEz/1x7oDEyDyx7qz5/G6+dSXz/eSfj6d+fzLq6l5MkNFeSSqU10acjIdvbiqpWj5TanEGEX20mrS/VqL6zCNMj6q7cXOPbvw3q738faH7+FI/zERoZVKJcycOhNL5i3GzdevxuXubBQoT/c8EZOVnKIqxYrxkSrN8v1P8TmSstPJK1fxFCsv2QCtUwjkL3YDJ9SqX+x+fZk/PQEiX+bdvIDXOlND2Tm/JH0z2LQmdu4EC4JI1gLPzQzA8wMUS/ao2iIIObNPjdGUAVIah15YqKOFvX2f4Z0P38OHez4STJo2bRpWLVuBWZVp6EQZqe+hErvocrskzQEn81ERSxl9jl955JRdTp6qCHch/+aDR3PYPPtA8fHuxQSQjHeH/jh//x8SRPJc+Yt+/7Ju8Rd931Ny+bNwAme9PhkHwZRFubyraEBtV0rSZYOJcCsTbyGRXhmBlyiWOTC+nkp04qeBBDAElL54UCKX7mI3imySQyjOYWU4KKU2mVpFyDAAySvRmaRFiNOMt8g8f+QapIdPStm5aVD+Q+2l7C/+NCZA5Ivfsy/jN/5DgciFEmsXuggv9P3P9kDbOYDTgZT63bFsikqD8s81dvxlPjicyMImOjWdV3UMs9s3TlXXbyTDxVOUCyVBIY5joLspkyEOljrpanSKdYd679N8qPbaUvvgTmVueOav8cD5y9gQ/yO/xle1fidApG3VfFUPIb+EC33/8TbA6UHkpAcrRywoKFIOYAQONSNGQQHHUArvIRaxurjM87ts7mw0w3jXMPH3f7w7cKHr53wPwQkQmQCRk2bOGYjIYpSUKIttsj/nhs8iydc0cWyXKswEiPzxkOELvPIEiHyBm3WmHz1fJP2yIoGv+v3P5RaeNRo5DYhwep6kUrnRc+ZilkciEyByLnf93+dnJkDkS7jPX/Um/qrf/1xv4SkjErJxEsJftIFIe29OO6ciaQstCzRN0pkcRMQmgFYFE19f2R2YAJEv4dZ/1Zv4q37/8W5h3lLPn2ufkCcAkoGD/DkziOafyYnki1O6aMeAiLxWNh5zAkTGewJ/3L+fAJE/7v2dePUcKNrm0IymcfkYyXzsZFtjXPvEOM7DSUSPcmokwv+eiES++iU2ASJf/TP4D38F+czbfJjVWBDJ05l8sNUosdo2IW4CRL6+y+RrASLti6x9gbWPYWwPhcf+Of/9r+ttzn07z/YZvg7X3n4f2/98ulm67dd7wfc/n92blXjzsZtS8s3cxXIOhN/pSi9pUSYGEYA5h692TmYs0Xu2X7/gz3cO13a2H8mvNZ9tnK8j3icB3MwX9kyvkf/+eJ/5dJ+zPRU94zWSBM/nGWXR5eh7Zo75kq6OGdye/7doftpS3bHvc6b7f0qJdzwQOdvDH+/GXODz+1J+/XQ34Ytc9+nuT/tNP9dFdK4fZuz1fpFrPdf3aP+5nNsQXQid06Qyk42ebNsgdD3lF/tuclBRUcvppGWnv5LzAZI/NoiM9/pnAotzBZGxd2LsPRjv/cd9phcIIvlzzd/nXK/vC4HIKQuuLcQ9V4Qd9yZc4A+MF86NZ/g7HjHa/pBP95mp8DzbF0chnPWka/vLM0Uj53JSnu9tzPUeudhsbCSSg2SuEyGI8CtffOPd/7NtorOdgPnvXfAmG+fGjPf6+egKvszYA0UAd8wJP/btxh4yYw+FCz0k8vs/3uFzpkhk7Po/1+v7wiBythe+0Jtwvos//73xTsL2TXw65/DxQETIw3z2yZjv53IS5yB2ps851ilwLJD8se+vDPmkp2l7JJIPwU6V12k7aIyNRMYDkdNFcn/sz3Sha+rL/P3xQOR07/VF7k87iJyJ/2oHwLHg/O8CInnYdrpT41yQ+Mt8IKd7rfFAZLwHMh6IjBeJnHswf/o7kYPImaKQ8a7/Qu/veJHI6MLMuJCxkch49/909+9cIpAL/Vzn+vvj3d/xIo3x3me8COFCObu8VeF079P+2c4UiZwtnTlrBJwkJx0fxuNEchA5Uz57oTd5vIcw3t+Pl060//7p0pHxQGS89x/vJB7v9/P3PxOItIP4eK91Xn+fEatyH3VN+mLyEm/7NZ0vJzLeJhrvmsfb5OP9/oX+Pa9/7LrJP9P5rP2xn4fDwfIv4ZpOE+2e7TPkIH6m+5y/3lcKIu0frP3DXujD+bJ+n4v/bKxE/pDyz9H+/Vz8OU+H5nwgowvpNOMMTgdcp/u8+fufDxeSv9541Zvx7jNLvDwNz0Ssji7qM0Qi44HoKKdyGj5tvGv794hYzpUYHwvm+e+NByTtIHS6z3O69flFPndeRePvnI6zGQ9Ecv3Pmfb2mUD81Aa8fCr86NCCzH076+YUfwjxpaCd+MkMXibFS9u3DA5RrttQNsNCwo1Oc2MTxqlBf24JqC48KzGN8c48lwXGn8nnk/AaY86JlV9Urlm8ujAOs7kuSq5taKZUGCyOMGj7krBwDCAor7C2kXAc8ZBtOGUeliLW2Eg/5qvt82Z3RH5g1Mf9NDmQLLYMDkc/Rfss3OwtcjtB6ZdLAdtUA6BOfo0nQ1fzXEYvMVKSdgFjPUVq6jJ/hp+K1oujbvIcXsUnnOjyndYAMqeubU3k16CARb1PxCHd8mbtVR0Znpk9qZOr4JR1k72YpMzZsstf99TldObPe0aAG9X0pwjiQFzWTveVdy5zcJeuyac/6XPAG8PnzzvFdZftE/GPbZ8imHVAszQuEwSz2UL8XLzydpBlVUzWSRaR5M9p7PeT9zkZbaSU1T5a4lX3Vp5N1kgp15n9oppbpJ5sXqJXM9t5fbryftGM0c7tU+9NNmgsT2dyg5g0iqBxoBDtqaJIudiYVCrG0GwLA14diZHCsCzlf5P9GyCABTcbsMjxihHMUIOjGXSdAEIa5sitUiueYyC5QHX2XPAmyuP5vCFF++Zu26ISAbRtLD4QLmaYGo40+hGaKWy3ICY6nPsaRA0UzWJmhWyIR0bSCNGpF1E2ikCQAAU1SIlncagRFBQcZsMOxEg4bHmwXEesyVuthvycWbDhJSFM3UIs2039Iw9TptmrUZB8ePmf1SfOYYXDFRTc8beYRKg/KQjh/+aUZigLQNHCaZSgaBZkJEMYBTCiGCW3qDzDkhiGnoNK5iuSLayTcKAGVGlpAj3REI+EsEpluQe1uhov0d8Yglkq4uPje3BiaBiVahWVYhldhSqmWb3wWw34A3XMmjET9VoDRdeFbloY7h9EuVKRAVuameLQwBEUKg5MS2A7+7R0Y3XkmQdBIP6vAsx+iK5SBUkQI/QDOMUS4iCEYVtICW4C8Or+ZLZLkDnGYkuvXoP/KfKNbDOqbaMhyshhk87zsnEA3w/hxz7skiGu+HyC4qwi4ys4nIvfFHA6OucGJyjZJTGkjpuh2gvcN0UTYdJCnWDkGBiJAwRahKJelmfP58QhXlqcwEwANzVkzZpy7SZgmGIQJeba7EOys8NNBqeT1KdFXGbS0jYyRG2RzNmORlOphtD35btlu3JfoiiCaRsIUjVTKKQLnkUPXK62GJxQZGX/BHTdDSIUrZKsUXrrmgTOVBf/GDGzkmsS9ERbJMLxjQnSKIRm2Aplw2yAiclNF6mbYnFqmYMWPPQNH8dwYwhBy8NwfQR+EKK3exIumnIRJpe74aQ60mYEJzHg8pTkiuXNMbPxiFokr5twniyn1MtckrOcnvkplKUQ7TkgQWTg6HFMnjkdQ/BRg4ehpIajfQfhDQ+jWRuSyIMLe/L0mZhWniFDlTj20abtOdekpWy3uIUDYmgWGRHe6OalRzF05q2mrn5OixFwnos3A2ErpQAAIABJREFUjIN9h9HR1SERkC4uX6lMqeNLqBOakYs69TmDRR4IT3AaKvM+aYAnD4UbI4MUici40RkZEOdiJHyIpi0zYDQ/RtzihutAt1VFGvtwdFOtQc0YBZE45jPL+l6yU0qduHxtlY6ZCT8fZ0rE8OMWUDYlEtm6bxt2Hd2Hjds249jAAErVCiZ19uKKiy7DTQtX4tLKTBkSYfFzwECz0ZAFx8VpOhZq9SG4nK4HDzxoTvgnMDA8BN8LYKYOSnYFk6tT0FnqRIBQ5tREYYCSaUMLU2hRAs1x1CFkKevFmNecAS3vlQTHcrRyJIUCETl9udbkZwnJCYLo5BlMaM9TUf4c8aeFJgZaA2g0Gur5EUjiCCW3hO5KB4rgIRQjrEeYVO6BRmf7VqLWg0av6joCI0ZIwzddx57Bg9i59yMZBVItV1A0LMyeMhOzK5MFTtBUn7dg2YBmAQH1OaY6mTOrWvVBsuj/lDBAHTcnz1WCSKBAkx4wQmvRHtOQyDIIQ7l/jbAFWDps08UwRrD/yH4M1YZlxsj+A/swa/oMzJw+Cz3lHtiajaTFAWUWOosdiAI1f8jMrSFkSMlYEOHpy0FFRMQcRGTTA/UkQKrbOOL3yxjGj/ftxid7d2OwdgJes4VafQSd3b3oqnZhWvdUXDJjNuZdeiXmTJ4tN6w1XIdruijYDle4supjhJCG8la8OIsP5WxfGYjkuV++CPLvcRjBLLr4rHUc7376AbZ/8j527/0QSbOFMGjK2U8QmTZrNhbNW4zFVy5Aj16BU4tgJxrMSkmuK9Y0SdvaQYTP1CSA8DSIeXIF0F0Lfd4Q3np/O7Z9uF2AhA+DG1bPgIbL9hTFJ9dJSlRXaYCEyamuIgJHRQ5c8jpPHmmGI1hlM3FNCxEdx+IEDue5JAaiZoDLZl6M21beiJld0+SES2LAtRwBkTAKBbxt2xag5OupKC4P21WcI9eT2gg5GoJ71kyw88DHePylP2DPiUM4MHAEVrWCmKszStDpVLDi6iX45oqbMbtzBoaPn8D0yTPgtTwZj1mplCRIPj7Uh2pnFYdbR/DW+29i36F9OHz8GMIwhpnaKFklzJgyG5fMnI2rr7oKk0u9KgoLIjm5Td5vmj9ne0ZSxzOCSDagWNJMZZgkEn7xmE3Q8kM4ro0IKZoBgYKbycFIMIKjg8fw6fH9+PizT7B//374fktOW9s0MXvmRZhz8SWYPWM2pnT2oqiXUDWqckqHrQgFxwHrE17aQGoBHx/9FBvffhPv79+N/kYNjaAp93x6z1TM7JmMBZddKXtjcqUbRqTSmqLtImxGsC0XusXNryIORiC58G804hi7R2TMKh9uBPIqfC/dNOXwCiPOW2Z0lSI2UzhmAXU08N7u9/H2B9tx8Oh+DIwMo9GowbFNVAslzJo2E3Mvn4u5l16NKZ1TYHP4WGSo0amaDpOgyzWUeeSeyokQRJJQNjTPlSiMYVi6DGAcjhsIDR0vvbMRG9/ZjAPHD8rN4fM1TA1hGEokxhMyDRKUDRdLFyzB2jW34+LOmfCaDViaBddwZAo9P6hsnDzw4GmY5YlnxJFRoxy1EXL5Mf/MblPTtjAYj+CFdzdhw3ubsfvwHjkJuytFGXhNsIti5vcGLr/4cty1+nZcf/l89CZF2CGyFI3XpavB1nkkwoyOiMtWeUNDFHgydjJyDbz/2Ud4+uUX8N5HO6AXyCGQwVeblJ+P83Xl/OOD1bMcM3NjJ3jkeTEjkWbAkCj3IG1LabK82uAgb0NHvd6ElmgomS7CVoDZU2fhrtW3YtW8JehwytB1U9aUpdtICXyJAYsLM8MN8VnNQERy+IwLS0MNqcEFaOBo8zgefeEpPP/Gevgu4PZUkNgGwiSFX/eQNHxMtbuwdvXtWLvidhmlCT9BtVhFHCUwTQNeGmLEH0ETLTz96rPY+sFW9DcG0PSbErqbqSXRT8WtyMl3+5pbsejqBehxOsRFnp/PltRarYicXzgJInnqp9zW5BSOU3DfMY+X4zxbX0xbvMCHXXAkXWkkTWi6IdHPjl3b8Opbm/Dx4X0YatUQZUPOuYHDwBOuqVqo4OLps7Bm2SpcPedqdOvdSDgLwweqhTKafguJG2Dv0U/xwqaNeH7Ty2joCXpnTkOYhJJOeLUmSrqFKeVezJ19mTjnXznnGyibJURhCDOyYBu2OMhJgsK0jOuGHyOT1p/cGxmqjkZhTHdSRLwmriHDksi1FTFWTpHaTKRSDHqDePejHXjtzdfx2dEDSKxUphw2GiPoKhXQGK4BoYaLp12MVUtW48brV2KKM1VAlUEAR6jao252vNHJyXRGPaBUuALmPYIzcSgXw7kkx8IhvPfpLqzf9DJ2fLoTZsVBscr8m5cYyoZpclYrRwd4MZr9IyjrRSy5eiFuW34T5s24BmESwNFtGQTNm2PpBow8Z42T7OI+zzSOcl/Zz+Yne36TmeeSWwn0GDsP7sbvNz6LDw5+gsAMAT1GlXl6EqNULAoynxioyXT7Zddcj7tX3oZ5XZfBZprBkFykwyoyYOysyGGifBZaG0w7QsSWJoD10tZNWP/6Kzg83Idyb0nmuCRM0WTqHAFJQo3T4KICEO6MPBIxXVulM8QqLp4s180HPPlJgnKlCs8LkASJAEajNiIzcb8x7RI8eOu3cMWMOSjqRSEJeXI4JiMQXURkJheivGe2ITMgkQGe3H8x07NIwvOdBz7EYy88iU+OfQbPieHbQD1qQbdsFHQHbmoj7mtg8eXz8eP7vo9phSmoDw9jcsdk8WVl/u5xqHjqYfue7fjlow9hMByEVtBlIBZTPZ1pXWQi9ugWH2PurG/gjtW3YOE3roERAUXNRsGwEIcJDFMleZLojUYinwcRfk41rItHkhpwzl/iluMm4kzi1FIp0FA6JOC/4Y1X8e7HHyAqWDBKLhzXytI/pjOJ8GBh00NzqI5lC5Zg+XXLcd3V16FL60AYBCjbFZnrM4JB/OvTv8Nr27ZiMGjAndyF1NExWBtGd3c3WkMNVDmKtL+O1sAw5l42F9+6ay3mz7lG+MAS1KCvnBTNCU45FITgbF9GiuPhh8vPYaEjMq6QmE7+w09jOdh4P/riE3hi3VN4ZcurknZVejvkMGT6alkmHNIKET9vjKQeY2b3DNx1051YPm+ZTFPmXCELNmzaYmZTSBg1jkYiiqwiHMRCcfJiONpI00zU4eNQ4zgee/kZvLt7B/qagyj1VpDoEQZHhhBFHgzLREdHF6IwQcGwYUcmRvpqcEIDa65fhXtv+Sa6C90oy4hnnor88Abs7A5EHA5tcWN9nh3PQUSRQG2eoBk3wigk1GM5pV/88DU89NyjODByDE53AVHqA0GIoNlAuVxGqVRBlOoYPlHD1FIPHrhpLW5dsAql1ESB82NlbIuRkWl5pJC5qMuQ7AShkcrwpx0HP8HTG17Atj07EdkprKqZgYiKPJiGcN8y5+b3z+lYRvkfBVoBUw8Zgcl0hkCSkbNZpYg5fbFUQRBEiIIQVbckUZ9fa6GSuvj2yrVYsWAZZnXPEMA2JFopStgdMJS3slO9/WSXSIQksqKjyFy0Ug8b33kdDz/7CMISELgpBsIGjHJBhn3roYbeQhcahwYwozQJP77/P+EqgpfmwtJM+EEEx3WEAj4eDuDJl57Ey1tfQdNqwShbMs4zjCNoiQmTXICvI20kKHom1q6+A2tvvh1VswAzBkpGQUg+2zaFBBVwz4hl0qACuvJ5suhP/V9ZytgGIox6LaC/2UBqx9BMA+8d2o4n1j2BDz/dBatShM900jFliDl5EaaU5VJJImdGWeGIByPUceWsOfjh/T/EFT2Xo+U3JKIquy52DezErx7/DfYeOwDPAiJHg6+lOD7YL2uvq9gBk4AYpEhbkfBQ5EhWLFuJ5fNuQAUl4QX5PHi4qpKEKjkIq3am8yiPKmOuNx2JrgkPw73sI0ItaWE4GMEzLz+HbZ/swGd9B2FXHTgdLkaCJpreCExTR8myUXEKKBoFjByvwfJN3LbsFty1+g70OD2wU1MmHNpCsqoMStLvvDqTlzS5SEiDsGTJTIogMoQG9g4exM9+93McHjmOphnAKJvwEx9h7MF2LMnBeJKNjNRhpzZ6K13QvBRxLcDsrhmYN+ca3LTkRkyp9KJTq0i9gvNZLRI1XBzkK4WMPgkiY8ty7bJeKU1lICKAZ0SIdA1PbVuHXz37CAbQRGVqJ4LIg5kkwpkODg7CcQood3bDG/FheRq+veab+M71a2UEAmMQIzWg8wFmnLLiH7MzUE/hG5FUbfY1j+D5za/gxbc24HhzGGbVRmiGEhHluauka1kNUviutvJkO1SORlqmAi+WAFU0cvLk4SbnYCj+XxxJyRPS4ZhKzYSVGiiEFmbZU3H70ltw7TULZPMpR3ZLIj9DmPUsL+Kb5+XH3JCZH1TXBAQ9+Hj6jWfxs9/9vyhMq0DvcDCcNpFyg4UxWsNNzOiYCgx4mOx04qff+wkWzZgPJ6sSRXEMw7Fl6R/yj+G/PfT3OFA7BN8J0NRaCDSO9FQnqZ7YQtwV4gLiYy2sXrgc37/nAUx1e4AoRMVkFSSFaWjnCCK8N9yAliI+80iEn9MCGkmAWlLHZ/2f4ZV3NmDTto2oR3V0Tp+C/QODMkKUp7KUOOWUTSXqi/0AM7unoe/AcfS4HfjRfT/A6qtWIoh8GJEOw9Ww8YNX8cgLj6OphRiOfdRiD90zpsILA0lNfHJztSa63Aqmdk2W9Gbo2AAuv3QObl52ExZfOk+id9dyhXBlHMx/eOhya2RZ58lFMaZPgu9hGDrCNIaXBnLYNRIfHx3ajZ2ffYxHnn4UdncRZsWAp4Xw4SO1NKQm2x0ihATOMEbVqUJvAnoLWHntCqxd/U3MrE6Hy3iEQMIo73QgorZvKiUwcoKiDdBICuo4kY5gz4nP8De/+pkAim/H8I0AQcock0w80GzWYdgO0kSTUNSMDQmBpAISu7BDHT/+9o9w8ZSLMLM0VXKrxE/kBjlC1OT8yOlBpL2cmwOInD9Z2TI0IyGMnn5zHX738lMYMQM43WUMDPfDSiOUCkVYhomBoWGUyp1IQ8BsaLh/zV343rJ7pDhtcRskrGqospvsfxlDyZJhjGbkI7QTpKaFD/p345H1T+KtT95HWjRhVWx4uo/EiLN8XC1AAmucRKoCYpoSnbRrUHIAkZSFKUwGIgSx9ixICEXo8JMIjuPCsizEDQ9xQIJSg+3pqDRd3LX8Dqy8YQWmV6dKzMeVx6iwaDnq5FCFn9FJdHkEyqoSAZClPgLJi9texn9/+F9QmtGBET3A0cYJiURI0LaGfMzonAL0B6imLv78O3+CpZculGfJA4R8xEjUkFPhWNSP//Nv/i8MpzX4hQgDwRACPYRbKgKpiaDB0qKNbrsbxokECy+5Bt+/70HMKk1GEnrosioS4pMOEy4nS2fynSTlcMEjNeyCWgeCyGiUk+EmQXio1ZSRoIf9w3j2teewcfsGDIbD0AqMGBKkhRKaQSgcETkk7lGWlgnGJauA1EuQjITotCq4c+Wtcij2Wt2yuWoYxpt738Tf/PLvkBYtWN1V9DWHoBcd1ENfXo/ppaub0BnVNDwh1sm1kAIoJBb+83f/UgCqq9QJF66U+pldcq+wukkQGauqPkU3Q7MoU4MXhxiJWkgcoK85gE3btuCltzagHrfQ7w2hpXkwK4y6+LM+wpSELqcY8tk20OV2wAkttE40sOCSBXjwjvsxb/LVciiMCyKCvXEM3TAQRj40loRUlozX9r6Ff3z4F2g5ETw7QGhFSHRShiGg5doIngAqALMSC3aqwwwNWKEJO7TQZXXgzx78Ea6dsQCtxojc/K5CWTa0ZDUGxzCetO4bJU4zo2CeDgS5HDjaI5NA81HX63huy4v49frHEFZ0BBZL+RH0MBAAkUWRpDBMF0ZqIhkI8MO7vo17F92KCgoCgK5e5CRZWTxaHKm5Kjydo1CiELPg4tPmUTy+4Vm8um0zWmYIq1rASNxEYqdS8p40abKUvf2Wh5JbQLPZhM1UQtGDqmJA7kVXaoccIJXAJ4tEWJbN0p38Z4ZbDXT2dAvnEHB8JStdYSynZKdZhdmvoYIi7r/rXtyx6Faw3o9GiKmlSWpurxcJD6WTqctOaJmZJxUP6nUiiUL4NNe99QJ+8cRDMHpcDBtNuZchK/AURoUGyomNom+hFNr4q+/+GZZculB0D9wosp1ZkgawZ/hT/Ldf/z0ONY7CL0ZoGj4CnjJEBYr8Inq1OqiijPh4iMWXzcdffP/HqBoFVGBDnkaswxgtK55MaYRAHAWRBGHswyIRy6pJEIvMicIwlqolxDcUiK1/Yz2ee2OdbHynx0UzbmDEb0FzOJxLVXRykSKfh7ArsQ4rMiQ9j4Z93LPmm7j35rtRku1uC3n8+ieb8PsXHkdfcxiFyd04OHwcHnUinVUMDQ1I0cGmdiOrzFGsp8WsiKawQwMLp34D37p5LeZedCWimLofAyWJShzYmoE0zHxsBUnVOpIQhVFOEMB2HQw36tALJgzDwsHmUax7/UVsfm8LjtRPwKzY8K0IoRELkHP/SqCQlfs7SmX0H+5Db6kbhdSF19fAqgWr8OBt92FSoQcVrSJRr52Yo/qwU9KZUXabJRbDQBT7Uq2oCxUFvLbnLfz3R/4Fvh2hZUWIrAgxL0Tj3+YcgNIKjP5DIU1syM0nkGj1GPMuuRr33Xovrpl2FXyvCSsy0Vksodn04TjWKIjkqQqjo5OqvUxIlEUfY0GkqdfxzJvr8dvnnxAQ8WyerhF0su0EEZZS4xS65cJKTESDAX5057dx7+JbhatJCXokjkh2MhKQO8SjLIQXB6inLehuAa99+jYefekP+HTgCCI3Rcjw3E6ROhRp1VB0CzBF0JCg6BRVdKHpEs4KcWtkYjEBEzXX5STXDinTqhJwBju5Utg2hW1vhYEQjQSROPSRBhEqZgXJiQhlFLHgivm4deVNmDtljoTFVqyhwygh8gLYmiWHRJ44ci3GUhlNYOiRkKFcVM+9uQ6/fOI30CbZGNFb8KxUQESGdIcaiokrIFIOFIgsvWyhIt5SU0AkNhSI7M5BpHlYIhEBETMDkZjEqi56hLKASHxaEBG6S6ot7RWaDJBHdc4ZkU0IFAEmlaW23FsSjM00QDPx8Pq7r+Olra/i8PBhJBXSMT5aSQu6bSFOOXA8V96qXFKBCNcxFIhEBqKhEPesuRPfWnOPAhGdYkMP+5oH8A8P/zM+2PcxqtMnoWnGaKUBNNeGH3pKPsE0NVP6ilaIjIemwY1N6MdbWDjnGiy/fgUWX3UturQqkiRGOOKjYLoo2owmyTWoihp5HeEe0lgqMc3Qh1m0hfj/5OCneGvHVry3dyeOjRyHZ4SIXchBSC4zFNGemoMs0XGayjB2Vt66i11wIxtGI8WKectw75q7McWZJOkqI3UzFUXXKNE7yomoMEm0yVLGTGJfbixBRCKR3QpEPDuCRzSzIqR6iFjzoYvkV4l6UjK3Eo1ocirpMR+ACZvpTWILR7Jy/lLcveZOTClPhhnq6CxUZJOxDJZLm9v5DlXvV1L10d6Ok5mh3IBQ89HUa3h2y3r8Zh1BxIBvxYiNWHJrS1ImXQmxyBdwsQ8E+E93fhv3XXerMONSyOWJkwCOlBYVBc1oy9dD1NIW+tMGHnnxaax740VoHS70ooGh5hBcko4Ga/IBNOokCkUkrQhRK0TBogbAQ7FQGAVEJWrLowDFQeUpLt+f15qHrqxkcKNHzOkJGtQjmRpikpNIlJbCT6E3SQ4TIA0snbcYP/jmg5iMbnitOnoLHYAfSZmdp5SASFa1UDwOQYT8YQuJnuD5LS/g53/4ZRaJtODZMSIpVRFEDJQIIp6FSmDjrx/8CZZcfi0cgkiiI2Kp0eCg8BR7hvcJJ3KwdURApGW0EBqJVGc0Io2AiCvgRxBZNOfzkcgpINJ2z/LILq9iKSWvkumrjE1pf1sIMJK2sHn7Frz05iv4cP9HsLpsUZjWwppEKE6BSlT1imoNZoI1rgpGWLE2CiLxYIh7brwD37r5XpRSgoiDIPHRlwzgV0/+Fq+99xa0ioOwoAsvQt2NWy6Julf6U2KmYKrCwWfB9e0kJpLjdZgtYO6lV+L21bfg2ivmowMl6LEGPaCWpCi/y/Uug9N5CFEjzRIyEknJWDr/rH8f1m98GZu3v4mhqA6r6kAr6hiJmohNVa3JwSPfRkzeIi9E2S3DTSz4gx6mFCfhm6vuwJqFK1HRy3AkuyBvZ0oQlFeLvhCI/OO/qXTGtwLEpopESL/qSgkhdR3pMMleXVBWlJl8CDp6C50Ih30YTeCGa67DA3fcj2mFSfC8FqpuRWTcsnFEIKR0IPJQKd46RxB5bst6/DoHEZtEJ0EkFhAhuImST2eIaCHu9/HDO7+Nb113i0QiBopCWBpxCpuCuziWiCzQE2Hah+Bh80fv4JGXnsJHh3ejPLkTmquj0arBdEy0Ah+FAqsJIXpKnWgNN1DvH8GUrkkI6k2kVGCO9jEonUzOnbYL0hjmCrkqlSIlfOPGi1gBdk0UO0oidhuuD6LoOnCpDB2so2B3SIRVOzqEiyfNwJ/c+11cd/G1sJIUFa0II0wlElEgoqt+Hz432YWKfGZKQDB8fss6/PzJh05GInaMUNS3Y0HExV8/+KdYevki2KwO8B6T/G0Dkb9hOtMkiIRoGR4iCfNUOiORCAgiZcR9Pha2gUhVFMXUkmTCMZGHq3RGVWnUlyr+EiN92CbFZDFasYdEZg0DA0kNhweP4ee/+wUODx9H5KTQSiZqfk2uhW0LYehnhx/v+Um3Gb4CQYSVLofXGlly+KxdcxfuW7MWJa0gvF+QRmjoTbz09qtYt+lVfDZ4FCjbCJxEjuHUiIVPEk0OCwICBtmH4PiN1MAUtwMDB47C1VzMvegKLLl6EVZcuxSTzF5R8SrZvAaLinJeY5oKpxGzhYPVIGjYPbAPW97ZjC3vvY2jQyeAog69ZCIyYom4cgDJU+e8b0c4yQDornTBH2rBO9HEdVcuwoN33o+rJl8hUSx5IdH25L1PQs63KVZHIxESiRRUxeRELDQlndGxafcWEESYzhBEIpPNVFyClKJl3QaamfWbnER01g0Zl7BCoIc6qkYRzRN1TCn34IHbv4Vl85ZI6hA3Y3Q5VSlqfa7bkCItqZWSoT/JieQLSZWjfbT0IRBEHlqvIhGengIiYazIW81AQuaeopnEVCByxwO473qmMw50CrhZdmRmzDA/8EVRS01IZOn4zD+Gh556GJs+fAdpCWB9OjF5gquc1Pd9dFSrSPxYxHZJI0LVLGPxvIUoGi6ipq/KdRnIEiBGe2yy4de8c7noTngMBodsXzBSfLh/Nw4OHIavRzCKFoKoJe0WVBo2mh5Mpypq0XCohXJiYfnc67B21W24qvtysNOJUR/Lc+zx4dajbkK6RLIyO5dHkHhyz5jOEET0Xhs1vSVkOmd3U/lkBAbKsYtSy0ElbI9ECCJS05Brlkiktg//z69/hsONI8KJtHQFUrKIJZ3RYKOgIpE+/9RIRCMxb0ET9FJdMnlVKb/mXC3B+xb6Hkzblo1VDxuiSSHDs+Ozndj8/la89vYmxHaCYk8HYiPFiZEBIX/doqN4Kx5WIg861bKKa1KBiCnRCLm0b66+E/ffdDeKWgllzRWRpm7o+HRoH57esB6vvPMGPBsoTa5iKBzBieEBVLvLsjFUjU0VL5RQkjJjDd0UrQ3Wpeesqpcwu3emkLdLrlwsYEpqgBJ5Q7MQpIFE7ix9kEwlMf7R0H68/NYGvPn2WxgJ63A6igIejdhDoAWiolb8h2oAVAeVIpCZ8patMuJGiKgWSAGEn5FaqioqolKWokO+P/O0vF1sJie+tB8yCaRcVoEI0xm2jb2+503807/9XHiG0FQgouQ7gQSNEkIKiGQnRTabVSEdIxJpDoEVKyAxWsDkUjfW3nwXls29QXp2ymkBTmqL0Cf/UuKZrOuTNfBxQOTZN1Uk4lcMBBKCp1k6Q00C+0oYCrIKYyPp8ySduef6W1AlJxIZKFCfIFWZGAnlwkxRzBR1LcDGXVvx6+d+j4MjR9E1vQeNsIEo8VEqumjUarBtB47hIGr4qrnPqmLJvEW4ffnNmNzRqwZgZ6neSatGde9UEVl9binnZSIi3mFCNHWHWz55B394+Vns2LsTnVM6UO4qodFqSHnOLhdRC0LEkYYiT6x6gF6rC3cvuwW33bBGwmKTG1azYEnzmbSCZc9N3W1bqj8BIj3G8wSRP/xSQGTIOAkiol4IVDpTbjkoB4xEfoIbLr8WFiKpFPF1I2kbSPFJnenMz3CIICLpjC/p0iiIhKqKV9aKSCQSmYe/+N6fik6kI3VQoLijHUQyZfvpQIT3jYraRtQQMVVsJDjQOIT1m17EC5tfhttZxKA3gtTWYBQchEmMgOS5YUkpnroQRXyfnLUjz4ORSKrBiS2pMob9TGfuwr1r1qKiF1HSXKRRLM13lm1h+8GP8cRLz+DdvR/Cs2JobOyz2LvjKREtqYysXK9UzawqsYytI/EjFFMHdmzCaum4pPci3LJ0jWxmKzZQNIpSJWnFTfk9zeRzDDEYjODRDU9j66538NmRQ6h0l1HormLYG0EjqMN0LUWeZ/IFKfkzIGQ1NYUUQqpGGUMH+0Wecc+ta3HbDbegABtxPUB3qVuaVGXdSk8Ye8OoL2oTmwmIsGckq86wq5HdvI0cRPa+iX96+JcSiQRmgGQURNhhwgnyfFFL8mEZAi3D4jPdf1bzZkdvOBKgy67A9DV4/SOYe8mVWHvbXVhw0dUo+JYIllgKZeQhr9nm10FC8Gwg0tSHhFj99fonEBBEKOk1YgEopidswJPqjF5QkcgJDz+64zu49/qbUWGRN9BRYt4pUQgT5ESijRNBHQfqx/HbF57Ats8+BIXcbrd+riU5AAAgAElEQVSLIGxJJOaYppCmxUJJGHQz0BHUmrh82hw8cPvduPbia4SrABds9g8XbZ7O5CpDqqEIHgIl2ecme05dhU+pNnw88erTWLfpRSnTdfRWRezUClpSATgResJLcWFbzRhWA1gw60rctfxmzL9kLooJeX5H9UbJEaBMmFUjONMKXZ1wWozn31qHf8lAZFgikRSBcBkKRMpxEaWWjXLo4H8iJ3JZBiICegQSFel80jgJImEhkUhEOre5mCNGIgQREqslJCdILM7DXxJEDAUiLkGEYU17JELOOoue8nSQpynvWzMM5dSNzQT7a4fw2nubsPn9Lfhs4CBKkzpQD5qoB550BDtuEX4YiUDSdV2kbDxsA5E80uUzIyfCA87yNUQDIdauuhP33Xy3gB9BRI8TqTiWq2U0EGPr3u14ZtOL2LbnfUQO0DmlU+QGEAmAqqyo1ELZG4gOyNZFO0WgKiQ2tJFESvcLLr0aa5aswqXTL0FPpVt6bUnk0q6BR9C+g/uxbc8OPL/tFQzFNXkto2gitgAvZCYRw7BVIx45GYKGVJvYL8bKF/87NFCJi6joBVx71XzcvupWzK7Okl4qrZWgq9zJ0ElFgzyYSTmQXzm1AU+BCHtL2JofxKGgJbt1+buszvzskV8JJ0IQYQ6iqDNGJMrIRtKFVJ1uXEApCdrMNVyagfxAmG7DT9HtdAgjPXxsANdcOhd/9sCfYnZxGopaURSCqmU+8zjIyrqmYYklgRIq5R2uSl/BEq+nqepMDiJMZ4R5jgMBEVHzMZ1hJBLbiE4wEvkO7rvuZomCjMhEyXLkRlPhSpIgdgx8OnwYOw7vxj8//mvERcDTAyHSpMWB3dvsfKYCN0pF8s8OTy62JVctwg/Xfg+dqKA21I/ejkmSX4vlAXNJcVIXNiRrVFeEp2o6IJJRq5OIGpdPge0HO47uxDOvrsP2Pe9DL2hC2rUCT+TVTSmRmyiwazo0YTUSdOolrJm/HN9cdTu6HbIMLBfyfcg7UWR00qOD90dESlqM57YynVGRyLCREatMQ3gghJakM0VPRSJ/+b2fYOkl18JlJCIAoowMuDp21/fjbx9iifcYgjwSyU5Elc6cCiKLLpuHv/j+n6BqlCCciOaIVkLKdurmfI4TUX9Bu4cYI14doO7DCLBh++t47MXHcWjkGKZeMg0HThxGtadLyvUt34PrlCTwDvwYrmMjDT3V7zsa7eShvyEntpvYsAIN4YCPu1ffiftuvAcVvSQgwjO1aOqoteqIXUbkGrbs24ZnNq7H7iOfIrUT0RBxQ8e8x4wfWOLnaU6xV2b0bDHV9FOxrejQCvBONGD6kNTmu9/6DmZOnoaKW1ZCUOgSaWzc9DqeevUZHI77UZ3WiULJlfvASp60UliaVIfInAuZy5Q9AmwpWxNIACey0BFVsGz+DVizfCVmdk8XCwBW3Mp2UT0DeQ4ZiGSkHVsQ2hrwlLZaxrFKV3LCZyGbhR90wydv4r8++RBqdoDAoDaEbcwq/OPJxfPMgQG/yRKhjo7OLgy3WtJUVumuou43hRHWNV6YIaG11UpRSguY0jEZMyvT8f07v49ut0u4EeUtEqkPwtOPoR7lwgQRwhpRmKVSVgKom9AYhkd4assL+NXzjyJiJOLG8uDAm2kostYgkx6SbyoJJ/LdW76FHyxbiwJVk1oJYSNAgfDlGqg1+9EoJDik1/Bff/tP2HXoY1hFCw5V+3EoEvDU0uETd5IETosEpo3+/cexav4y/PjeH2JGdZoQbyyLmRqZ0Rwm+D1Xf2U63QwcWakSoVlCXUwopB19KZqaD8N08NLOjXj42d/jWGsAhUkVIQd9BKiHdfR0daM+UIMVANMqkxCcaGJqaTIeuO0eLL9yqZR8tSCR098yi+qN/UgIW4anR2rHUeoo44m3nsKvnvk1gkqKoJAgsGIk7FFgiTxgI02CSc5kpMMx/o+f/u+YP/lKZs6igeBBlFDaTp3I4Kf429/8Aw43j7VxIqrEq6ozWTqDInDCw+I51+LPf/AnciKS7OZ18mjlkSK6P0XLqOqAKJ0j9Wy1FMNRE6lpCov3ys6N+J3coz50TOuEl/jio8H2DK4DKm8dp4ggjFFvtDCpuwdxvQVbIoREekooY2HLgpCgQYyC4Qh3E/a1cOeK2/CdW+5HKWEfkYMilcOZC1czpjKXFb0E+/oP4bmNL2D9hvXomtYjqZZdcZC6qfTXpCX6hugYHBxGt90hHBG5V0Y/FO+JpiSk3irBpVNmSZSwcslydKATh8OjeHHDK3j3ve04Wj8OfbKLUA9p5gMkkcoIuFtY2RNri1T5iqQWirqNYmTA8BIUYgMdqOCbN9yFBZctwCWzLpKDNPVjESmKT44fjBY3FJBkYEKq4aTHKh+qqvAK05smKDLMinwkZoyXP9mK//vJX2KI1RnDF4VgIcshfaYMrDNHCQq6Cc9j+ZcGPRpiQ4NVcjAk5ja2hP+MM8hGGy0NhgepSZOdv2nxzVh13QpM65wiFQ6mPQyxpQIZpuq7QAjBIcvJdIKI2mTcTM9sfgG/IIhUNQQOF3M4CiKMFpiihYGOglFC0u/jwTYQMSNHulFJsLE90zcDHNNG8OT2V/HIhmdELm3a5ByY8GcPyTZQ5zqPY/TCReNwP6YUe/DtW+7FmgXLUdHKokZMA6DgklhTHcLqS3VB5jUatvhLaZx+HHm/RJLI52NEUk+aiG0Nnw0dwvq3NmDTjjfRH9agFSw04iZ0O0W1WkZQ96TFnPevdaKOql7G8gVLceOiFbi4dyY6zAr0IIUrICLkhdJUFwwcb56AU3Tx6BtP4DfPPYywksJ3QjR1X5lQ6abUTNDU0G12Iakl+M8/+V+wcOZcdDICSk1ycCKnZu1uz+A+/J2UeI8hLARomj5CndWKHETI0zgikkNfgEWXz8eff/9PUW4HEebtEkaru8bXpwmTaxqZt0UiEQDJX/Jdm/ZuweMvPo0DI0cQ2rF07HKHS3c19RWpDnqsmIYjkVuj5YuupyRAoAsFE1FkaaqoXNLNIIajWZIqBsdauGvl7bJ2ikkBpdgRJaoR+sJRsNTqsc/K0DAU1/Hexx+IVcSLr7+E6ZdOl+dIpazVXZTnN+SNYMqkyUAdUnwQroN+MGy753FKU6AwgT/UwA0LF2PlDctQLJbx3gfvY8vbW1FrNOH2ljAQDcm9ZZvHaOMoIx1J/wypVnliNlRAxSwi6q8j6BvBpT0zsOiyBbjz+rWY3jUd1WJZGgvjkP1WthziQnPkRQEBkOxhfNkgYvqhaD7qIy1pdHMKFfQPD0kjH1wNPjd73JIThOIZR7Ohe0DajGH4FqaVp2LNdaux8rplmFTslAYlLiZRkLZCpYfIbOjySIQGNWw2UpHI+YOIm1rQAlMWg2UYaNT7YVRt7Bzeh//y+5/jg2OfwGC9XY/hcLOz5ZzVFduQlm/2s8x0u3Bs1z7csvRGfH/tdzDLnixkmBWbqgphses5sxwSi0mlz8hBRAnO6NmQgYiUHrIGOaYzRoQhvy7l5g8OfoRH1j2Jjw/tQXlSB9KigeP143AKjhwGfE9KlMNhT9SQ06pTcN8d38J1V1yLTlSFEKagtcMtSuoYUWSop8Lq666JJzY+hd+/8gRQ1REXNTRSD5pO5agqyUa1EMWkCNM38Nc//ikWz5gPM/LlPWUJW+REgN1Dn+Jvf/V3ONA8iqgYnhFEyC2kfQGum6NApJqBCIvxEv0QRrI0I6C7AY8oLZbINgkjtFJfUrpd/Xvx6PN/wKYdW2B2F2B1FTDsDYuRkWsrO4iCXZBScGOE6YuBcrUqG7Y1VBMLA27+dhAR5AoTOfjOBiJpswWrYCExdTSYcGhKpzKYDuLIYB/+9bF/xcG+AwIiRtUStXMtbkrp3rQs0d/Q4kFc2Ch8ZFWSnkdMweMU9b4hTOvuxfRp08R35MRAP470HUeiG3C7ixiJRqSyxsZNXRpcs5TZYPVGR0BHNd2UvWcEOpLBBrrNElYtWIqbF6/GnN4r4IjcnrWIUDxDTFbjRC7F18vEIblIJLdw/DIjEcOLpNU/akWYe+XVmD5tFt7dvg0Hjx1G7/TJEso1goZ0cNKjgZUQ5meUNdsRiSRI3v7g3ffjxqtWiKUhGgGmdUwmH6XcrRhmsRIkfAtRlv0erF6wkhKddyRCdy7EtjDWrkGCronBqIYXd7yOf934DAYND3qRnaQBDHZiilDIkAXTZDIXJpiUuigEGr679gGsvGqJqBnLJGx9nvoFEbKN+m62mQIpepMxlqpCCfkqTmHZF1O4jDk84Q/TtAV94SCe27ger27dhCYtFjoL6Gv1S4QmdgsUqwWa5L1mpItD1aKr5uNW2jJcPE8tsIjX5ShbySRWfT6GkkU/+dJTePyVpxDaKZJiKn1DJpvqklQa5vyaDze20Wl34M9+8GPccPl10HxP+JaUnpyWoSKR4X0CIvsbR8YFkSSLRH5KYlWn7L0g1QFep6JNAZ8+uRbVdox0PAzXhoSILxVL2Nfcj98+9Qje3rUNoauhrgeIrQRm2YEf+lIe9etNVEtlsTc8sv+oKIoXLFiIQqmI11/fCNM2EUvFgw1siZRFpZIUkfOCgEh43JN05ru33ieRSDlRqlUjJNGgPEzqCcuqKXSWYxGigRb2Ht2Lh594GB/u+xDF3jJCl+ZPMSJHx1B9RIykSAW09V1K6wOBhCK+kmHDqzekg9u2HJG5s5DBNgjyK+xOpgcKbS+UoE0pCpXNB9VcdAAtSftDMOxhZnkybly0FGsWL8Nl1UszS1RdDmvuT4n+Mk2LxB15PZ3gkf/b3sUr5rkXmM7YPMxCTRbYqqWrsGLpKmzfvh2btmwScVR5UhmNqIUWm4PEQ5DEnuq1KWgFYaO1ZoIF37gad990O66YejGsEKikNiokdzyCiJo3KlGA/Es+gJEIQSTEM5vXn1c6I12TqYEkYhczBT0aNu9+B7978XHsaR3HiOEjdXXV0xDE0hYtZTqeYFwsbOgbDHD7ktVie9Chl9BtllHVSiIldouq1q68SpTcOE9pBERISelSvVd9CaJazTrOMicyKaib/Kyqzfvj45/iiXV/wJvb3xXlrF4wpETLHJYnWhJEqDpF6U1pDowI8Xvrqptx88qbMXvSLJEx873DMBLimc5wlmOiETXx/Osv4NkN66WFPHF1eBRj6crromg6QiCzDNlb6cG9d96NhVfMkzybxOD5gAgJ9eREIP4krM50agUpuxNExDaQV8pN6ljSdcqytwdPRGX0vWEV7t+efwSvvLMRQ2ED1Wm9GIxGJHIrlAryrLixHDazpaZcf2OwjoXXXIsbV9+Eo33H8chTj8k9TCxDQIT+NAQRMZPiDgySz4FIKS1m6QwPIOUdzAfoJfRX5XPl5k3QREMi8l2f7cIf1j2F9/fsRGlKVSo3LDs71QJaMRXgJ1XMwp5lwkPqrFyKBAkOMtpDQ0jQZ4pmm/Lc/KghVhr8nBKJSBNnpq9JdWn0C1ohgmEfPW4VqxbcgDtW3IRLqjMVvxSw3cMUALEtEgk8W9TBbbCKkI9SbQMQCU6+zEiE5CSVoIOH+rFkwfX44QM/ROiFeH7ds9j09hZUesvw9QC+mQgjHVFxF5H80eEytWmmmFLqwsjxAVwx/RL89fd+gsvKM9GqDUo4Tss8Lc5yVOZ4AiKMyrN0xgguCERI3EnYJo1xKX73wqN4YuOzwOQiBsIRGFT+sf8hZAOkAj/uc4atlAS7tRj/24/+CtddshB+Y0Qa38j/eDUPrqusF4UJkYWiUpnc1T0HEVa38iY85bmSEYhiGBXBcByMhA1Z6Pzaumc7tn2wXYx+DFdXPh0s7FDnEibSx8PIxK+3hPS+4tI5uOrSqzC9h7Z3NqLQF4FauVBEy2uJDwhbLnd99gne37NLhEp2yVZS9igSkrHsFiRPT1ohKnYJV13+DcycNF2iH3Im55POEESigQCL58wHI5EuFNBJYpUafwERkrBkxB3RJpzwh2DQggImjjSOiGvab558CKUpFWl/b2ox7K4Sal4TI/U6uru64NXq6C12IhxqIm3FmN41Gd++537Mmz0fj294Cs9sXAeUTNmUYerD16JREKHYjERjHomQE/nebfefEoloTAEyOTp1PUnmf8NKipd6ksozjdp5cKeYA7235wNRlNrVosgRmOYwleIByfVAXpJf1N6QGyHwsXLJZk6u01YYiRhSMy1RTId+U0BEomSCj3Smq6ZIZSigozHQQKddxYprb8BtS2/C5V20LwW8VgtFt0O1W+Tu81EsBQNJaQgi+ZjQUb27Ws9fKojwgRd1F0OHB3HtnAX48Xd/hFn2dLy37128vuUN7Pj0fbT0EKGTIOKCNw34YohDrwtD/D16ixUMHDiGQmTg3hvvwK2LVmBasUtpSyJN+ghSIoeumqUY/uWcSGB65w0iPJMDElK6AR8eduzegcdffAYfHfuUOZbkruQKuDl5KvAUJ9LTUpBiJaoWF82Yix/e/R1MdXsR+x56nIpUFuJWAMNylFvcqI9HzocQSFTIGbJTM6s65LL3nGCVcrD0TOhoJr440LESwYiE1QiqIPVRVzoeWFloy1M0K5gT0AkARmpJ2ka9QcJSFT1YS0V4vic+IKJNSQKMBB4iI4XNNvjM54XVupLO5I82iXXYuomS48I1XLHI1PTzI1ZzECGx+lffzUGE/hW2lDxVowbnYhgSdQ6SZNZ1sX94450teGXzi9h7fDd6ZvWiEQcY8ppwu6oIkwS1Rl3IRDvUUNJshEMNcYC7/pqFWL5oqVQmfvHMb/D8u68ipUF1BiK8ryRWGcWcG4jEwhtJq4I0IapTg/eOJtVe0JJqIX1gth/YgUeefgwHBg+LsvR4YwC+k6hGTkNpbEiwKoMiHRYJoVBFGOqg06FZtihvA04hiHxY3PxMZ8insFs4McUkKm+aoyq8p9SFa78xHzdetxxX9bJBU011kDXCPh52PWdVHIlAspYTAQsJCHOpfp5rf4kgwgWui1rSRTjgYfEVi/DgHd/CJR0XoxXVcLT/GP7xoX/GYFxDTffBKmHg6PBZXeGpruvocIoYPtonzWJOqEGvBeL38eCqe2CmqYShOsuCbKHOnKx5Voes9eue6Fee2fz8eaUzCkQi8d0cikbwGzZSbSc556Cu+VIV8QlXNDgCKxSO9BrQj9LRHXQaZfzpXd/FsisWS68OO3FKhovmcAPFQhGwTIQ0pxG3cp5SeTpDIkyJjaSaRU4km9VDElMSHIIsry9W7QXUy1DPcbS/D+XODpTMMprJCILhOkocZ5EJmEigy+8kSkzFpLhAMGNLOXUNDj096PdIGE5Vtyk7Xr0GDNdGahqiNaBlgRcEKLguWs2GvAYXddzyUbKV7wX7OdRIAwMhS7wUmpITGdiHv//1P4xbnSGIBIxELp+Pv85ApEss+ag3yOYcGTpaAf1s6JthoYYAW/ZuxYsbX8b7u7dj+pwp2H/8MyS2DatUEImBYVpiREVrw9nd09E6UYMbaPjBvd/Fimuul8PADwM8u3EdHtn0HJKKfgqIcI9xIzHKOlskQjc/0gF5BYngxehN0pvMgY0bnX0ukRYiMVN8fHiPAMm2XR+gPKMDda0hHBStC3Klcg4YQrWTGM1MiQWkRHqujMXJhahZQCoNZvrFxleSwZTL01PGCDWsXrQCty5bg0s7ZstBkDR9UVLbtot6sym6EkYeuf9N3qLBA4IeNqf7OjUSUbIMEPwpCS7R6Sr0kFgxXv54K/7LE7/AsBsrsZnGKoXUBiVPJ0jxZKNklyAy76K5+J+/91N0WSUZi8DxCm9s24xH1z+FY0E/nElVHKixQchFeVI3jvUdl/Jah+2gpDuIh5sCIpf2zMRdy26STkLqBsiuV1i5gYEGe1F0C5Zro78+gLSU4pnN6/DLdY9JiZfEFUu8KVukeSownzQsRKEhJd50IFAl3qVrhR2gVRw/+0cH9+Lnjz6EQ7Vj0Ksm3J4S9h89KCMQCqWScA60fuwp9ogAif0GaxatwAMr70aXVZR+GeE5OBKA4wBMA/X6sLi561QOim6HW0wYEqEMA4EQN5tMwz/nQ8CEOVJhY5unUK40zT2G+Br0ZhNry1GiVpkM5KOK2FbOayd/QwKUC599PjQ24gJhWgib7mWejBfgSar8Ukk0e3KaR2kgqSel9okXoKvIdvUAITuEZfSBISXYsSByyDuOwPXPWJ0hiDSPN7Fi3hL89Nt/gh6qa4IYZT4QcgGco1Jw0Iqa8G0NTcTYduh94W04liE2Q5hlGg8NwCwWYboF1D2uDxtFu4BoJIDj66hqLm6+fgXuWn0bJuk9qAdD4vj+2At/wKNvPo+4w0AzDmEVDOFEvICpKM3HVQTqxha0oQRrFq/Cn6/9kXCA3WZVpAH5Bm9vElSN4DSSZmoQiQk0O8t1m1FUgF0HPsaGtzZj60dvo4YR2FRCaymavidgwlIq00jyEeRETnZ2JxLBi5lUBiwEdkYqXtMTU+Xeaq800/FfmjstX3CD8HWz3Glo1kdQMQsoOvS/zGz81Nge5TrY1uD4uV62MUjypYIIz8siDXz7Ayy46Br8r98niHTAjFSpqa/eh60fb8djrz6N/cPH0TtnJupJiKNDgyh1FqEbKkRmWlRlOXTEhxMAiy69BisX3oAV37hBLj/mgmXbFk1kEk15jhpsDGzh6TfWC4jEHTp8upDRsiDkYmLYpXQiZwIRtjOd8Ibx8POP4akN69AxswtJEdLtabj0m6BIKYRjF+BoDrRGKk5Xc2fOwffufADzp10J8/9r772/rarzbNG51s75BHKQjIiIIoiigCKoYKTMZXWXXV0db/fte8d4f8b74b3xxut3u+t2377dFcxaKAgqkkQlmBURSSrpcDhp57B2eGPO71p773MI2hb1E+dUOUjn7L3Xd33X/H7C/MzJToyP5TsLTrEsYlQgGFQUQzBhq5REJrZTGdGYYe6KHlbOHrUq80bBXF0USdG17Do1ayNEITibO8oQ1kQwZtSARClvkEyv6XqRcACPKSdnNBrlOsbStgB+FAsFQU84FhMbkl20TLkolfBIKO4CE5nIjrpODNirxaIkE6i6xYJqnejRBiI8YjyeyA8BkQrJZnOvx9MPPYHx4SSiZQuxegD+YBSNckHzQ3lfFZUQcKbUj60fvIM3dm9DupjF2KldKDgZnfJWMCjmdKnowGcFpRnK4blSbxZ3LL4Nd9+2CtPGTDZeQuzG2WH8evNzeOXDPwxEjIBVS3rSXXYj8q17yX6tmZLKVAuo+mvI1cv44shB7D34Id7+eCs4HeGLhrRXWGhlXYTdJxWGub6mCNFUxyOJzHvgKfNAkSOmJDwkKrkyikNFTOuegluuvRG3L1qOaV0TRJAj+LGexZSFe4GykEbbsCUK1i6Qbj51S2OlHUcuG4gYJzUIROoDDhZNvQ5//8RfozuYQpAzEvwAfhsD9TT+fcNv8ebed5CYMlYFpdMD/ZotqPuqyGXTytepQ2mVq6imixgX7sCsCdOx/q77MW/8PL1WfiiHrmQ3QnYEhXxRRcW8L6cWrxeJEETaI5HvB5Eqdn20B/+x8TmcyvUhNa0L9VAD/UO9SHYzv64hmysg4A+jM96FwrkckvUI1q+6D2tvuh3j0Y2KiEuW/EqqlbIKqCSDcU6CuhaHTx3HkRNH0Z8eQLlSlAwCx9C5xWxGBq6pkqfYpYjGlU0MR0KmMNts/raMvkxM4+pokN3rqsRJbd7d2ZIBqNtSpqpkWKFP4Y5ld2DGhKuQy+cQtCzEohGJ93x26AA+/fqAiouRZKQ5q8L2IrVSqCuBcg0xfwRXz5qtwmqIXSGZJVnDyGZMZ8gTuRTZjJEI2a8Lp12Dn69/AlMi3Yg0bATJWPaHUSoWkHEKCHck8W2+B6+/txW7Pn4fA+W0OhuSOKxmpbPCJkKdMyEISYIzVA2iwx/HlNQEPLhmHZZMWyjoJttVWh5WCL9+43m8vH8zainrR0Ui0vxo6um6ynHeyrumZfWqmaSlSyIZxnQKZPR3rj6Eo2ePYcOuDThy6rDePxKPIV/l4VIzkRAPAertuK+ph5r0hnb/KrahaxCHhKeIk6uIuLli0TLcNG8R5ifnUJQUAa4pBZdJsXc7PSoIi/zYqns0oxFv6nyEeJa3tS4riJANSMlDq8/BomnX4x+e+BuMDXRKUo7ixzzhqGp16MwxbNi5Ge999gEQCyLa3YlctYBCIwNfyFgokBPC8JF0YoIQT/hrZszDI+vWY05yNvKlLOyKhU6epHUbeSeHariGTXtMJMJ0ph1E1HnjSX2RSISEtmwhh1/97n9h11cfYPy8aThTPIsai1007iKj0y2YOTVbbM/aYBlLZi7ELx54Ep2NGMZFumEVTSGMEQjDV5KuSISj3uZ7H+3BVyeO4sjp48gWc7KWqFRKIv8xb3dI628a8ZhhKZ1eblHTG5XzXAKNt4riEKPhwW4A0zaOBLi0ZIWnbo1Fcv/woTJU0dwSleEfuudBzBx7lSwlpAAX8CFbyWHTzi2a0ck4OQ6FSGyJehi0u6RkH2sJ7Eilwkk8cM99WLrgRk3ckijngYgikSHDWP1BIDJYxfXTrsHTjz6Fq0LjaKAAOKZlzVmQQCyMU/l+bPtotyLFk5mz6JrcjWAyjHR+UKMYXCuHwOGPIBHuQGmgiFDFj5njpuHxtesxZ/J0xHnvyK72R1CsF1SYf3XXZjz/7qtoJH88iMiDxZs4d4sjeibNMa7J8HLB2NCGE3QFrEuzOE3uVLCGY4NH8MqbG3D4m2MIJSLkAqp2xlSTUgWsVfCFvLRWNrSe6h13AedgqM4GG4VcEZ3RDtyz8i7cfsMKdNC/r2or9UoiqPSM1iPUv7H8flTK1GJxax5q4ZqdJSDRjFcrEmlZVHiBEWfj3ZOKxbYfWxMR90HzMyFY/XXcOHWhQGR8oBshxxhnE38w1JsAACAASURBVESo8xCIRnCg5xD+7cXf4WjPd0iN60aaRDQrC1/UEK5Iu+WCcKpWPjX5CuqFGlYvW4X7V92Lif6xqJSKSIRiiFoRDGT6UU9aSmd+/dbvzwMR1kQuFYkQRHja/erZf8fOrz5E97zJOFk4o3oQ0yHyYuWVEgygVKE6lQ++vIVV19+KX659AqESEGvENKpN0VuqgPPEocTkqcwZfPT1p3jpzdcwUM5q9iiciiEQDhintXpNCt81SYfxpHIrHZxJcq01lcbVjSG5ByKeEbZOf1GbDYhIcpEpjSv+zOs23YUGYnZUgjMzx0/Hz+57HAtnLEC1VEXE8mmArGY5Gvh7bccmkc0qgXqTbMackOMIYaZyFUr6UQM1IrLZrVffDItGT1bgvBbvDwERMlYrvSWlrk8/9hQmhrvUObBok+EPS3jY9gfxwvbfY9O7b2GIrM+OEAoNKoZUEGIbulYyM0dVG1F/HKFaEJXBMmZ0TsGqJcux9ua7pFReKObV6YpFk8g3iijUHbz+7ht4YffvgcSPBBE9Rq5im5TiDcAbzk+b+lTVDK82AhxuddBfSktCsRaxcKZ8Bi9sfgkHjnwtvZgSow9fQyBC32c/OyU6EFw/Ys84nMOwDZiuGblODQu5TAGJaAp3LV+D1devRCfVais1dPriSPkiWld6EPvDIclllsoVROhR5HVgLgIiHt/MuzaTXV1GEKF2Y6QRQqO/hsVTF+G/PfE3GOfvQsgJmipx0MJAbgiI+sSw2/PVB3j1zU04duoUgp0hOMkq8vWcqQyHgiLa8ORj9ZhgUk4XJUd3z7JVuPf2dehGUj1uMiipbVqNYxiIeIVVDuCpSH6JwqqxIvdj9+f78K+bn8PxfA+ik+Nw7AqG+nvQzXZhTU48qFKxm52iTAPzx83Gn65+CEun3oBSvqwJSw4L0h2Q60HrQgLIpl1v4mjvt8j7KqiFffDHyH5toFQuKEylwLDNIqLb49WQoUhoZriRv2duzH82882ugpwMtihEbMhq3HQ6QTw+CvNxzp6wNV6qI1wNIVj2YfmCm/HUfU9ijN2J9OAQuuJJ1lSRLabFzN307ha8sus11ONANQLVchxyZGxbYtYoNGTzgHxDtPel0xbBxyIk5Y8YIbm0d4+x+n2RCEHEHqhh0awF+OlPHkdXKK6hyBBFlODHgJPGvgOf4O19O/HZ8YOitIe6oxgsppErZxGmGTvZtH52zoLwUUsyV0fKjuOOG5bjodvvlRRCKpxQkTJfLsGKhCRaxPjl+Z0vY8O7r8H6A0DEmI2bSWfCCMcGxfOh+jxrVRwtIL+HZvDlAsry8KZmTxkn8mfw+t4t+OzoF+jLDqERpm8uP10D4WjEzDZpOtZLZg2QKBKx64rGQ1VjzRoMx2W1Wi44mDpmCu5eugor5i3FOKTgo8NlqaauGvwB7eki9Wh8hoRnJhxbkQj3lTHP8ComzSClZZp1OUGEEnAMc9HfwKIpC/HfH/8vGOcfg2iFIGKDKVjRKSlEJhU5hyK2vbcT2995B/2VAVS7GsjWc8rtaeWo2TD2xkUPCGqOJtszhGldk3HfintwG13Igkn4Kub0zfqKqokwEmFhlSDCwqo3xUvG48XSGYII06jBah6/3fkqXnx3M8LjI9JNKVO9O0T+Q02ivzZbo9SNLfiQqoZwx6wb8PQDTyFix+FjC1qMUgcNfx25WgHbP9yNl996DbW4DwWfgyIJd5Zj8MJqwB+w1SKt0wnO8ASNiK4Mt43UAv/MNhuvk6mhppxdIGH2r1qJhEVdFz/XxtNYddoaGyCANLI1XDNxNh5YcS9umn0j4o2oGQmXkjtwOn0GgVQQr+7ehGfffBGVeF0DeEVahLCoLHOjOGrZOlJWEo1sQwN41181D50ONV5/HIhwAM83UNNsz0/XP4ZUgKq3LFAzVc3i4NHDeOGN15BpFDBUKyBvFcT2bAQbxv+I/i8kV9V9xju2bKPT14mbrl6ENTeuxPwJszXARg3RYCgk640sqekBBv9h/HrHM3j9vU1/EIiwmGeUhk3Ar9ljgjjrJaQhFIoSjyKI5ApZ1Al8tg+H+7/FngP7sXnvG8hJPhKo+kkpqEvUm/muT5RSY03uKd7JV9kFEmmC5CnF4IMdiCAQCKNSqJI6i4VXzcedNy7DrXMXKQqxi+SFWAhHIihR1tEpIx6MIaSzylW794iR/1kQMWDXgBU0lNoIW3zVkqrIO7/+AP/3hn9Hxm3x8oQMMud35fWoqs4DiGLMjX7HTWf+VpFIuGwiES0sF8eqoCSRZzqSDWDXe+/ijfe3Ysifhp8RSaMuT1TqINCAm4bE6YFBmQv7aIg1VMa1k+fgkdUPYv60uQhUbBloDTSy2Pz+VumJNJIBVMOaTReIkMbOzgqLWRWSjtji7Xfw+Or1avGS15HLZDV0d3DwBP7nhl/j2MC3sMJAZ2cMPb1n5EvMqrkdjqKUK0vCLpCtY5I/iV+u/xMsnbFUuSX1Rfy0ZLRtnKsO4q092/Hytk1oxClPAJQJTOSFcoBM4t1VtVk1Vesmo0YFviXnT2AytXNTPVfHhjM2Xg7OPVbmUBrFYoyUpMSQLaNvG6jamkWpD5Tx4Ir78PiKn+hhq+ccJEIJI6qUjKAnexbBZAQb9r+O32x5Bk68jmqkoQFKmjARROxGAMX+Err9nbCzwP/xV/8d88fOQrRsG68bEaE4O1PH0cxxI9ScP2P0REg29HHK20jgaTDRIlkvitLpvEzCf/bI4+gKkPROvVQHR789ju17dmPfoc+MSHjEUopVYiriFBAI+pCIxlDNV1ArVuErWwjVQ7hu2jV4+K71WDj2GunDdIZSyGcLEmUm25UEwgxZpME4ntn+HF7dY0CEeiO+qE/3x2vx1hzS/C/e4lX9qs1tzEQhxhKCkaDYnjrha3AajmgRjIC+zZ7C2+/tVISV9uXhS4XE1VF0EAnDDvlQKpVUO+Psj8QnTbttmBkau0xxn5mDyhZoRk5z7gScnAO7WMfUxHg8dteDWDZ/sQS4Mpk0wiQeBkI6HNlRDNDXpi0S0cyNDjPPHaBFNWiviwxLZ9zaD3lRSiMCQQvFekkV4HcO78c/vvIfKITrupF1H+m1VYVZVHvXuDRNn2o2rIEKlsxiYfWv0WUnJJATssPgjaCiFE+BfN1RysK5AnYrPvzqY7y44xVExsVRqJZkUxntisnPZSifRozzD/wfOQ4lG8GyhfmT5uInqx/EdZPn41yuF+F4GG99vh3Pbn4VDg2M7YYefGp/SEksYKHCm+mn/FwQjd4yfn7343hkyd1qJZarRTMQ5bfx4o7XsOndN7VZOV5NoR7mqTSjZpTE9MrJlVHLlTEpNQbXTboaf3ffL5CyEmrHDeaGEE5ElYi8/O4mPLflFY1+OxGgHHBEg67WK7C5jnyeSGLzEfVc7XLPU9Wd6BzWbqMZVtUARoC6mfQiLlVgOTV0dnbi1LmziHZ0IN7RibNne6V3MSaYRLkngxuumo8n7/kJrp94LaqlMqIBmnoFUcwUEIkGpUlSith4fs9rqj/UYgwD60Z7lalUgLUHSJUsUgqisxbB3zz2Z7h5xiL4HGPYzo1Xtfj4V/Ft9oTkEb/LnkQ94UfWKsGRx43JtzirxGgj0ohIMWzpvBvx0/t/ggmRbsQRxEB+CL976QV8eeKIGYLsDKMQrCJdGlJrPB4NiqXpZIrosGlTaaOULmIOD5m71+OGaQvEX2IthIVlZbWuu2PdsqTcxwTh+e0v45W9r6MW4+lviuEEETJWjZQjFO6TJ0IpgPtvX4cnVz+sQ5NSACxKkpEaDpF8RwZYQwVGTUIxk6GmTTyIbDGDAhWBQjYOp7/BW+9vxwcHP0ZfOYNalILKhp1rUiPTpueTLXtyOSm4Q3V1quS5er1s01Lo3d07LGzzi4BC3oiM5KoUSu/EUw88gSXTF2kmhg0L6qpS8Y8i3QRCWpCQoMjPwFoMrUnIWqKiYEuA3by+50gwzEaTn5q5FJXRHYeitz7kXRDZRcuIlwyI0HeG8nMa9mk4QjCCiER8qUYzUMKSWdfhvz75l+im1LxDIR/mFkZgkmDHHrhRcfHJqfzEuVN4efsGfP7NAVT8NYS6wqbo5CsjmAijUivpweG0JF8P+ZoA6uZrbsLKm27D1LGTkcEgNr//Fl7c8rooz5wzEUOQPBEyKAmOajWTCRkEzjp4+q7H8eiNa2WUVKrlEQgFkUURnx3/Em/s2Y4vvjuIRsSPetRCppTXTeXJRxOoetmBUyqLJzHe7sRf3f4zLLv6JtUuqDxONCZ1mv7F/7HheXUTKCdgJzluXkOpnDM2nz4LkSCLZwxgDYioS+OqxHnyAQ47Vu5AmPFUdFOhANfXRq1QNjMV5BbQvJwjBdQxYcQxWMRkfzfuv20Nbl94C8ZGOhG2IqYQysJ1jcZWpstVjNp4bu9reH7bq6jHSX02KQO7AaRaczygBSJh/P0jT2PprMWwKwG1Yxmlkq9BSv43+W/xj7/+Z3ybPY16zOeCiGn383nRwGPDksK5vxiUz+3TDz+Oq3wTcHbgBD766CO8sXsHSpwm5qRyLYOcXZZtpY9Eq3IBgXpdSmiBnI16torZU2dj9fI7cd2MBSo2kkUd48PiAbRK3sbdsYCC9uBz217ES/u2wImRy8FRivNBRO5vtQCcs0U8uHIdHl/zsGQMI9QT8VHxnbwUCkoZzyE+xJa6ZCbALNeqEj5n17C30o/tn+zClnffVOcuNakbGceoyjHSaA5oNgc1TdePpDV5fZAObxImI2Luyjl4DX0R3AQk9LS31Jyg7OKE5ATcv9LoGjPli/tIjgyjkCsjyvRKkUerM8PCvsdF8rqBAi99k+tc2e7F+4eCiPQ36340Bg2I/MMTf4kuXxzhigsibP0Eggplyzw9WDbSkFJNHIo9X3+A17ZtwrEz3yDQERaAlHxl+OIEEfIpHA2TcTEsqr3lG6qJ3LroFqy6faWsE+gh+/zmTYiP6TRzINWKQCQYDqiYy3MH/iBCtTAavcNBhDxSRhmD9bSc/975bB+e3/ISMo2ybAdzMjniMJJhv1K3wUw/OghkLdwx9VY8/cBP0ZlKqVDKHj/VtDi/uWHrJrz36X6jWRtsSNawXndQZLfKtlwuQIs85lX3PTDhjZTWBUf2G1U4dUetZ/6e68nXYLg7MDCAeHe3ZorSQxkk450yXMqfGsSK+Uvxp/c+hpmpSShnShifHK9tODiUQWcyKQ3YPyaI1Oh9Ypmcvx1EGIkQRGoZYP6Mq/FnjzyJpB3Cuzt3YP/+/Th+5js5yqEzgp7SAHJkzUYDRoWsRL2UGlL+mKQkaOK1dtU9uHvJ3SKTOYWy2tDiyFhGW5b7zQORIqir6sOz214QiLAGxHSQIKLithuJiJRWHw4iT655WB2qMNXNfBw3qGu2ik8dH25GziZCN051A6UMQtEoThZPY8t7b2HXJ7vRXx6AFQ+ptsMWPRmoGr93dWT08+78jcDCJR2aITkzjGpSXFvdx/YvJsRi3lNLlU2KoZJMx2aPn4G7bl2DldcvR4JWHQRyOi5SdZDSpK7gEPcaU23JU3Bi3Y1wTGG/9XVZI5EaZwxqfjSGSlgy8zr8w5N/iS47jqgLIhwAk1lPmGmMoXozz+bNYg5NItq+Ax/h1a0b8U3fd+i+aoyKZ72Ffk2S8gbJ37bAlmQYkUZQugjjEmNx4w0Lse6O1dj5+Tt4+c0tom+zsi1RXA6mMZWxjGp6IxBS+w/n6vj5msfw2OJ1SNJD1jYDVEPVDGx/CIcz3+KZjS/g02NfioNiRSlETUUz1oLMWISHyuGSH8mhKH7x0M+wYN616Iim1JLlZ44E4jh49jDefncHDp88Jq1PiccEfSKaqTUpJXvPTsLVsOCe8OwjNdVZRaXuKKDzhc3ULqM5L+wN+mz0D5zD2PGT4VTryGfzSEZS8BfqSCGOn6xci7WLVms6Np8xZD0OMw6ls+jsSMCq/nFBpBqhxkcZDu+J36h2cSqYIBKywij0FbHkuiV4cM096D15Ets2vY6BzID0PUq+GqrxACp0IqD9Y7VKkQBEOfZA2na+hknJSVg0byFuv+V2TI5NVG0qYocQt2PS4IjQdpQdYB5gGnRhOmMikWd3vIgX925WJHIpEIm46QwjEYJItBpU/YW6LHzgmFrK144ukvWarERYG6IEIq1HTqZPY8cHu7D1/bfRXx5E15RuOSee6etRF8Zry3uPKDt4Aj4L4unwINV7yEaFwuN1/Vn+OKyFiZzcjCVMYZdTwDVbw4wkg5b6imLsPrbuMSyae4M0SyIcZShW1N1iJK33dLWNNYRHgSV3qviPBiJiiWjasZXOCESsOKLMlW2y6Mg1tURuUVWZI8g19zTl5kADfY1BvLFrqyT+S74KrIQfmVpOMv8sNvKrXCyLj8F2XSldQCVbQneqA489/CBOnTmJnR/uF+uvUCoiQqUvEpBqZTQ4AcqOh9+cHgQRpTOL70ZHLSzGIVtvbK9R2ZxE671HPtZcxdn8OdN2qxbURmWqx1Cvwrkcvx9d/hTyh9NYdePtWHf7XZg1YZpa05JzdBX0T57rwcHjX+PId8c0i8LTplQqqP7kEdl0wmgc26W7u2xBtvGypbxawxTayTpFDBQGpc9CfQ3afLAVTN5JPNYhkSS6D1I1jvWjlQtvxSOr7sOU6HgVWCmw47dD0kOl4lWIim5W7Y8aiXwfiNTLNq6ePgfXzJqFY4e+wkf79iCWiCLaEUdPegB2Kox6IKBJYYFPmcroQISmUrUAbr9pJZYvXY4pqYmolMoyW0r6EgIpGqN5DxkPF6Za3E0jQUSRCNP5tnRGKYMbiXgg8tCKdXjyrocRqQYRIYjYNLM37GJFHjYHOmsalOQMEv/rKfZi49ZN2PXBO6gEq4h1RcRz4TwQxZAYMXtfXuqg54U1Eooe+I1BGqUdOc0tYXWmlr6ASIIkL5ovrwjv8o1kC2FhTGIMMj2DUrpjWjY2Og5r77gbKxYvFwmRAENZTR2QTYMqq+WD7DHKmixo826XLRLxQMRir3mghJuYzrAmQm2vagAROwyL4WStoSlPCeCyreiFbhYlJityC+vjXMT7O7Bl95vqZMQnJNGbHZB3B+dQ1Mqs0zuUzLu67P/onzt3yhSd7kdOnxKg5YsFFWSteg25QsYYPqlDZHxn7HM1/NldT+KxJfcgVQ9Ljq5YLCAYC0uvohHyo686iN9tfAEfHvpYn6VkVWCFfAjGAlLEz3CwzrLQGepA5bSDackpWHfHGtx6/U2YyO4F6sgMZZBKpSTUTGf2dDGn/jzl/Kk6bhirIUN5d8cH2o2qZeVh09WtjHBnFIOVDPYd+BDvfbYPJ/t7JAtJJz6+DjeaLBpJliW9va+AycnxeOKeh3HnNSulyRG3o7ofDtNLVjhJDC07iPqtPyqIXCqdCdph2PWAJouT4TByQwM413sa0XgY0c440qUCrEgQ6XwBAV9IfrFWxpGG7IRoF66+aq4eiLmT5qr2QcsP6mbw93Rvo5q72fGuYLFqIpARtyKRnS/ihT2vm3Tme0DE6TE1EYIIIxHWROg3ZIoJDeNnw4SJmjk+IEsFtmoev9+yAZ8e/gJnhs4gPiYBf8yHvvQ5HXAdnUmUi4WmlocRpzLCXQKUho1CwQhNhyJR3Wcekvl8Hj5/EJF4BA5F1d0aimwyXXaHVwDlocIOE1vnvOxGvorpE6djzYrVWL5gmbo2fg5duSBiUjK3s9Q2U2POtVbqdFlBhPogjERUE3HTGYII0Zt+MrwYRkQEEWol+KjVEPDr1CVq5xvGspJDU1/1H8arb2/EVyeOSH8kXWU0Aukn8Gd4upNxR6Nuuq3bjgN/wUEyHkUvpeaSceSKBYQDJIbVJY/HijgjEYuj7Iw8BCKP47El6wyIaJTdNEiGKhlU/JBPyu7P9mDzO2/g1FCPTJFJlpMZUb0K+vPwTOMDGypy8tSPqydOx/o7OaNxHfzMNyuuty9lA320saTpNUflWeZtiEzFE4fb2vAMDJHdU6NghMF/K4o5YOFQ9ijeeO9t7PvqE2RqdHrzq97DaMXPtq7TEKeGvseBko27GB0tX4MZyavEvODcBKUaqSrHNE/2DqU/PohcqrAatIOolJmX+1GvsSXPVNQMKvoixs+IEQQLgCErgu5wJ3wZy3jrzJyP25euwLw51xgRHvhgjFKpqyFCcFNX2HPQI41LBX4U9ag8s+NFPLv3dVQSBkTIglWa7XOLl3Ug4tVEeop4aOU6PHEhEFEBtSwD8RrnueDg0OnjOPDNV9j49mZWuVUPM4VnsqDZCTHMZJk8ipFqirNMM5iKWHVjepZOZzDtqhmYO3ceYrEYTpw6g8OHDyNXyCMUD2sIlYeN3Bc0pGc8oFir4euVcgWM6xyn6JQaLZw2r2TLmDJuCu5deTcWTpmvQiuJaAGboEsJTddmhqvU0mY2aZM3K3S5Cqvc/gQRyqvBBRF1ZxiJ1AKqkkuxnb4ukl0zTmNGco/9eKqAQ6572XpeNOdjvd/gtW2v46NDnyE+PoV6mBO1eYkDMVzM5k03JRqNoprPI868z/bjbCaNRHenkJpTsFwO+jWx/94EkXoI1rn6MBBp5B0p03Oj0T2Nk7fcbD1OH17c/BLe+fh92ImANB/48Fb9dYRiIaU3Tp4aIgnU0lUgXcbP7nsE9yxZgUQ9iPGRMWIrEhx5orDgylyWd4X5JsNTtgcDYQoX0XHNm5thpGbYqhWxX+s4VxrE7i/2YvP7b+O7wVMIj0tJFLYv2y9uCsN8njZjwx3InhzEhGg3fvnIz3HjjOtlGNYRSumMy2WKCEdi6lpV1Kln56vxR41EKPhjWrzGk4jtR6/FywnUQrmqiK1SKQCkAPCz1UpSuictmzWAsC+CqBVHoOBDKO/DzK6pWHPznVi+eJlauYzs4iGZb6Ig6nfUlJUY6RvjPyMApZ3Ah7wsRuYzO17G83s3ovSHgIgYqZZo7BSOqgRt9BT78Na+XTIcY32POsPkVIXiIV0f6zaspWjWikcL+SYEELFPfeqCkTZv132oV4Bbli7DXXeuxpjAWHx28gvs3LkTJ06cUL2lFDQykTxMjFUEZ2skhaVnjlHeUN+g6AnJUBLlTFGv3xFJIuj48V846xbtRHeyAzG/MXHjulFigMOZXjnV0yUyINLmgKfiHJWm2T/2s+BnWrzM2ahv8M7RD/BPL/xvwxOhx61fwbdavBz1V2MoEka1VEe9v4Bb5i7Cf33iL5Gi91s1gKQ/piKIJAXFtDQhkYpADL3Yu+dvSQOu5sXXYHv0vS/2STCGxcjEhA4c6/kGgXgYyTEdSOdz8l0leaheKqGLiu18SFnllkUKdSZZeSaLhuONfrczEITNfm9vDX+x7ik8tvgeJGphibaYk8p0jjgsWEJFUQnbzb/67b/iTK4XeasEKxVSbYI1EiJ/gMNcgw7GJcagdDaLmR3j8ecPPYUlUxeoYMVxdPIUCCLKmVlNd1XO+Gu7QbUJYvlg0+O3qE4Mf5TF50PnjuF3r7+AA6cOi69DzoFkAPMZBKIhlPMFTE6Nh9NfQOHEIH5676P42erHUcxl0RHskAIZ5ytkXEU6lMkwJVQUJLmqUcJgqILXPnob/3vjswiNDaNaNf687GmIKs2xhJof4WIAnbUw/u7hn2PpnMXwV0IGKDlKSmBFDcfyx/H//sc/4WThrCw8Cn5HIMI4wBNfYs1C6ubBEIrlssSw/QGG8TXNIHGzsttFGUfyScZGx6J4OicQ+dOH/gT33XwP0ulBxKIJEfyo5iW8cIdSvTTG+5UdWLJYyH/g/eWj8NvtLwlEaJFBQiEjBY8nInU5mrxXbfjJKu6vyof3kTsfQKJmfIQ558W6VIHWFYwIaHo2cArbPtiN9w9+iLOFPvh4ANkcnajpGmWcKgay4YawRcwDsZKtSABpfGKM1plDhKyvrbtzLa6fvxDTUtP16bPlNM70nsW+ffuwY/87CIyPwaHNLa+uUTGT3EFampq6nFTSJAJOC02/qX/QpqZSR6Dik3H33beswi033KworpjnEF9Sc1UqtxDgJCTu1X1+IIh4PJHvAxFphIYoctNArb8gb1ZGIpweJIgk6CFKhqLyvOEg4vnA1egOR98OVJEuplEl2a1Rwvuf7ddU6amBHnRfNQ7ZWh59uSFEOmIi5/AUT0VisIis5PjwdNdDyn42p4GZBNTkqysxZJ8Bkca5Kn657meqiSSqQdURWIVWJEJgk9M6fUvyGKrmsPX97XhzzzacyZ1DYnIHOP85VOHQYEDMPx8Fa0p1NAbLGBdI4M7rl2HdstWYlpwslfE45Q24gyXt6OW7RnGOt0OdF/qiqERfMzwAPl8SJq7idPasNsub729HfzULX2dYD6YTaAhEeL1Jzu6UG2Kmzu2ajodX34db5t0kxqrsK3xho4PKIiAhXXUpHvxVBCyyQH84iJBs1lENiSdCCj1BhMXaBmNgF0SO5o6JJ/K9IMLUgkLM5OEE/CoUMtSnCDO/GKlw8I+heLW/ggmR8bh78SqsvGEFJqUm6CFm2sLITjKBLhA3J2ibf2EOCd5XFfZVzgee2fYSntu7EeVEHXbALzlD2VK4HQ+CCFu8BJFaXwUP33E/Hl51PxL1qDxsWbjMl6kIRzGjBk5le7Dto/exefcbOFsewqQ5U9FXGDTgxLY8kykecNIZYdOgjkCUkgcV7cOuGFvzfgyePIdx0bFYueQ23HHrHeiMGBdDAjqBhdo0Bw8elGH5joN7YXUERGdg/YzDroy4jP6u3xTwpdnKWJTi09QocTHfsREqBDFr/AwsX3oLVi5egSSixlmhUJELnjgnbSAiAifrce3pTDMS8fnkMyvlb84X2A28c+QD/POL/z4sEiHZjNkjIxGBCFtDDm0GC1g6+3r8/ZN/gU4rhrDjgoiGxQyI8P+aRhQpxlST6w0fqrUa4sR1IQAAIABJREFUfCG/pAGoEE+Xsr76IDa8tRGv73wDXVPHqT7SVxiQTQKLihQTTkVjaGQoVGsprfK0IFltIPNdHZoGwz12h0IiRhFEGIk8umStQER7n+mVWmq0CzDMQaY16XoOZzLn8C/P/xs+//YrJCd3ImtVVOT0U0TGpq9MBMV0HolaEMFiHeP9KUlE3rVwFRzaOthMiM1uVtW9aeBtAsUKzPwH/0cFMerO8kzlhs8ijz2f7sfGba/j2LkT8KdCQCKo1IrXz7ZzpVjDlO4JSH/bi1g1gKfWPopVi24TpZyUb6fMKDNkPJelOMh00iBYw6no05RQxlDIwWsfm0gkOCY0LBIh2YyRiEc2aweRgBNWJEIQafj4oNZBEGEkcqrYe+lIhF03KsoHWTPi3TKnp7HQMINl1NnNnE4j4oTkk/KTOx/C1MQkCRiTeVthF4yRCOtCuufuGL5bUDV/cT6I8J488/aLeG7Pq0pnWHPjaAY/A/U/9MUoyAo2QWT9HfcJSDh7xBYygSBdHESUtYrcGby2bTM+/PpTnC0OKmL0p4IaxmRrmVawSlNdX9ymWpmfdSpLei8UfvJzjKAawG3X3YKH7r5fSmxci6JTULcpHuH72kgX0vi65zie37UR3w2dRraYlfo/a4jZSlbvyWYBo3bT/TN1F6ZL5leYgmrOgl2oY+aUmbj/zntw69xbjB9ApYYUBYzIOPfU8zRS8QNApMlY9QG7Du/H/3z518iHakpnmHtJWZqhvEm51PlgmFQdLKo787dP/FI8EbbBmGOJwacT2EQiI0FE7UbaG0Z5mtGhnqbFVHOv4NTQWWzcsQV7v9iHbKOo1GbIyaFQK6jwRoGZgPxJqLfqCh5bJNnQdIjPOLHb6C8gaMy77d4G/vxeAyJxhwEcWZCGwMMUQhwTvwkzOUjXCAbw+52vYsdH7yFdz8OJ2bK2JMgoz5e2pYVx4RTqQ0XU+vJYddNKPLL2IYyNjHFLpW7l1i2fej13FlJZaJMei1yOK81JUPrf9Az2YuuubXj34z3q0NiJEPqKQ4qWeBrFolFJJZB0lf6uD9dMnIm/++lfYV73TOSyWXTGO5VTiwPAh1S5tycB2hCIEE+Yz6fD1WEg4jhFpTOUuPRA5Lx0ZvZi+B2TzvBKOHwoEMmaSOT7QcTUyCTqzu4GT82GjVAwKKKYv2Ip5G5kHKy8/lbcf/u9mBgfJx/cRCCh7pJo2T7jm6I6iNIZTSW6PimuKhj42UylgPeOEdlzW1/EM3s2NNMZtXjpPeySzZjucUKZdaX6oJvO3PEAwrWQQJqg4PhYQ3Pw1vtv46Utvzf7dHKXPGc4I+aPhXVyezwO+WK7DzE/I9u3YzvGgILK6dP9mByfgLuXrcKqJSsxJTrJjJjwGXI7ucZ1xVI3iLWdL84dwcadm/HhZx8hEA+iY1yHCJJDpTTqLD8EyRZ3uyrMCmjRSViQsDPdC2ngZsEuA3OmzMLa21Zj8Ywb5J3EgjUFnTXg5zJleb/UTbxgYdW2FYlw7kQ1EV8Du77ej3955TcCkXbaOyORoJvQO+Tp06F3qIRF06mx+kt0+ROI1kJqKcrM2gUR3Ve3JuKpdxFE2MKlUrkppzeQLmVQqJWRjHXgyOAx/G7D8/j8m4PSoiz5aF9UEZHHqdEsnGUXmnsbTQ5zk+oIaTMZ60bqbJBsJrexs3UDIovvQZxWl66yNn+tUdeSjz178aihUC+CbPtT6TPYuPMN7Ppsj6ZyfckI0rWcIhenXkWUGrGcZM048MuWYAIWX3sD5s2ej2QypQ1rvsyv5oaYQeta1UEowjKwLWFkbX/bxmCOQte9eGvn2/jmzHcYP32yulRnBnphyTyaCuIhmSiV+4pI1gNYu+xOPLrmAXQiKTuAkIb7bCP97+mMNOqamWALHEwluJEZdYWr2PjJtmYkwkInSXaMvT3aO0FkWDoz60YEqpwboZ4IhYgNaB/NtECEU9UXrYkwNvMp/lChmTWbgD8k4SCyLZlGOP2UT1yIR+5aj2vGzEGNgkV1C4lQXExwsUU5vyWFe4bGhmjYbrTk0bpNQsGaiKM78OxbL+GZPa+0aiKueRVBhIhEEAmwReqwZ9vQ8OdPbrtfXSCyVpmKcjH3HN2Ht3a+haOnjqMWqWvgkPoxsa44BvLpJnlQLVyXE0RGqfxlSE1vBCTZEKkFcdP8xXjgjrWYlZwh7ZxgwwAqUz0+HlUaz3OugcxdP9vVDnZ/vQfbdu/A0ZNHJahlx/wo244KuqyZcS+LVqHUweC2VPXgQ7VcQUckhVq+Kg2gFdcvw4Or1mFqaBKyNKRPjJE3ML9X6/tDQUTpjL+BXYf2439t+J1AhBuhPRIhiPBhK1Pl3BdBbagkhaq/fuwXGBNMNUHEkKhMz9uIJ7WlM+7sjceMY/87EY/pQRooDClfZIvzi+Nf4sU3N+DzYwcQHZeAFbWQLuUQjFJtnHWiuobsJCTHAiCNtpXLUf7a+OBaAROJWH01/GLtz/DY4rWIMYJS21nY7M501PUQsz7CaCRTyUqDYtunu/HslpfQS5HfrrhmfdheY+jLULo0kIPfaWjgiYZb1DWdOvkqZLJFVxu1JWvoTWUKSBqcMibTsS6He763HeRMRg05cgIqJWRKOcQ64qoF5csFOcCzXU7/3c56QrWQG2YtUC1kwZR5lKIxlX2+vAqpXuOYQ11ki3JUve62aCwU7apAZNOn2/Fvrz2jdGYkiFywsDprsWmbg1q0FdT8rOLUcTR9DP/fb36lSORSIMIhTlrV8zDQ5DFrN6yBlBqwSSqr+DA23IU/Xf9T3DBjPoJVCx3+hAnvC3kVVdlyZzqjQq3q9gZE1Fdwmb+mnG+4IgQR8kmVzrz1Ep7f83vxRCxaRvBf5EfqskDp3UvlMHZLMg08vOYhrL/1Pp3RHObk/hiyM3ht+2t4d9+7dHLWA8zZHL6HHfFrBIKHmPG0NZbdauG6sy3kafR914vxneNx1213Yvn1yzA1NUmzP/V8FfFIRM0J6aOT3kPKg9t44ntk5cUIHDh5EJu2vY7Pj3wJO2YhkAojx4MuYMzKPSq9yJ/qa5g9QQDnQR+g0XfRwpyx03Ef52zm8ICg3UZY0/g/GETKFbLofCJHUXPhnUMfDAMRVplZPWA644EINz6ZpI10GQumXo2/fuLPMSaQkpCQ1LAENgZEVF/0QMT116DCkpe+Fnl6hiLyX2VUQWmAolWBHfZp5mDjjtfRU+inyq5OTzYFrACLsqS2m24RsxEiZ5joyVyUfhpqI7dAhDWRhxevEweAdQWJA+ls4gi3qzdJq8J6BTm2GwPAN4On8cbebYpG6KcaSEaVe/oj/Mk6qtmCFj0RjMuysERZ/kAYdV63mLompFRuyi6F3scYHUpLU3YAtsymG65VpwSHuAH9lmwcWCyTDCIfHPJmaJCV9WN6chLWcshu0TIkrSgCjo1IMKrJWwIoe/3eLAarLUz1VJFkn5cVeavWBBHWRALdlETkGefAZthyse5MG4jQ55eKcOwgHB0yIHK6dO7SIKIipmEA03oyGIjLka2Sddjfw7hwF+686XbcdfNK2XOUh7KY2DFOSSEFqZJx+gvT8sNscffRN7aSXjrjxoAeiHDFJaANP5596wW8sGeDeCK06eQU70gQCbLl6tDDtoqf3PkAHlpBCYkQIo2wCqZfp7/Bc5uew2cHP0Ug6oePkSqlJVHBuaGzCMWi6sxJkU4cELc1xoJ31UKqHkKo4sPNNyzFvXesxVXRKboWsqulMsD/3KCRmr1WyAz3eQXiXCWDeDCOPPLYf/gjvPPxu7LuzDXo2FCXKx9LH+rauFGQUitOGaOBUCyMbDqjJgj5RRzloKARzenHWd0SrKG2Lrt7F4xETIwrGUh2uFAmkzLoKloxEvlqP/79tWeRC1RQ8jsoq5XBlg/rItR2tFCt1BFjKzdTwbVT5uFvHn8a3YEO2Uhw1sX4xRh5vxaIuFOLLGJZdGgvIB6N6XaXixXl8HxIcuW8tD8DiZBYhlv3bsfvt76KfK2AjvGdsiJ0/A3R1ZkImLkZSz1ulxVuzJV4AtA3lUyyvgp+ce9TeGjpPZICoKgxnd81/agWjet3Uq+jXHdQD/pxJtuLQCKCg2cO49cbfoeTg2eQGNeJU4M9oKqLP2RJvJhtM37+gO2XrF25QotKFlaNQpRR/zbq7EaGgqbgCjYVjajNSIOoKs8HtuqYhviQ7EhhcHAQgVBINSX+PhmPKaR2vstjzSLaeK7F1WNmo1F1ZA8RDsZM+MqN48qyErcCdNTTTW+wqql/ZySSDzew8eNt+LdNv4NvTBDFak6GUdJS8bP+1JBheMRt8f7tIz/H0pmLEa5Ra8TWqcxIxLEcHBv6Fv/421/hTL4XTsSnFJRWDIzuvIIiZ2hUpPdVpZ1BZm80lESjYotZOaVjCq6eMhs/XfeY5AHioG6G6SiFgn4VoDmtLWAm+OrRc1VB242o20DEALmFMn1rbRvPvPkCXthLEGlIZJptUc7oMJ2hSRrXiEOC7L451GS54z48dMcDiNXDiJHYhxo+7v0c//jr/4GTvScw4+qZSiHOpHs0hR6Msn0t1SlFaxJ2Jg/BsdCoWrKzmGAncNvCm3H3nXdhYmQCyqWiqAGk79dKDUP1p9evTz5Wor4whzc0GHO9A4UBWJR0CfjxxcmDeG37Jhw8/hWsmA+lBsHdSDNKf4JpGlN3HVyGV8IMYHLHBMltZE+ksWrRcjy59lFFgUk73gQRoyU7oibCsEqhHoGZ6ZKPszDMaxs4XTqDgyeP4N9e+Q3OFM/JajAyJi6tEZ7A/MD0JKGFQncghfTJfiydewP+7MGnZCXpK1G9PaXNZ0ynWkZaRo/NjLV7ilCGEWSc0cVn4EWSQGNbGKqkUbFKyFTZrdiDN3duwdn0OXROGYd0g5JzrImwVVkxyKvpVzNUxHyyNJjHmCiFkvwIZICHVtyLh1fepxPZWGOa2RVl1WLYuqEeIxmfDz3ps4imYtI7+f32DXhjx5t6n8jYGPKBEpyA6RDoM3uWDnx46R9CwSdXNFkiCG7hTzOC6nPZYmZ6lGWRhTzFVT50zJ0pTxiMiYrBgUYyPTn85c82ML6SxC/W/wzzZ1+j9IY+vLFATGP+VIYz010jTMzM3iNJyIyTW2UMIo+tB3bjmbdfxknnHCLj46Jt09CKQFzNlDElOR7lM3lMjo7B3z/1V5g/fjbilRDCgQgK1SJqgYbC+MOD3+J//OZXGKillRbnWIWQcTFb7RS/MkNrBBFpWjQaiNgR+Kt+FAeKSPgSWLN0Ne674x4NTbJDQl8i6oGaiMPYKHjDYYpkyQx2h8XMn917yM4fIzu+n22jXCnLtInclBe2vYTf7n0JhRgnhCMCkSy1YwI0dgqhVq4hFUkhc3YIiXoM991xL1bfdCe6AwnEfFGUG2XsPLQT//z8rwQ+oY64iu4kmPUXhpDs6jSHBMlQhbrAoSOQ0O9p3THGn8SDS9fgxtnXYtqk6Ubsix7J7KZR3qFQRpyRjAuEHq/I/NmkZpzdIThW6w6q1MCxq+JVbX13O3bu2ymeCmI+NMJGJ4iqZhTi0xyYH8hkhqTkz85QrBFB4UwO8yfOxV88+gvp1NqUlbDCsgLVirrUhGZhVSAiyXCTb/HFuZBkC/ZW+nD07HH8ZsMz6K8OqVhEib+CVZEClEhcJUemPp12AtWBIlZctxRPr/8TTA6OV1WX0tU0FCb66Z42p4npHevGah4VTuEewyz+ak5uYRzVycQiqckg+ejpI9j7yT58+uUnOJU+i+QMtn8LyFWKSjusWEAUZiqjkdYd8YVQy1YMsSzbwIRQF55Y9yjuvn4VavUSoowa5IXLiImj1X53tocTjHRds5GtZsVUZcb/2eHP8frbr+Pod0cRHhfF2fqgtCL4oDN1oEIbDxvl4y6wmOjDAEjT6U4OeDYsP1vW2j6mGyJlM1OK5+8DBEOqqZfqqBVr0m7n/+i5y+tZf8Ma3L/8bkztniqJgYg/pMiKrFCZQaul1772Lla7wEZ9FF/ExkAjh9f3b8Xzu15Fny8D37gwTmfPqf0a4z3MVZVSFE4OYlbnVPzdz/8a88fOQbzqR5C6GjXHKNfZDZyrD+Kffvev+Pz4AVRDlpi3VMqz/BSXZjGaoGsZDZZ8Dp2xlPgsxaESOvwpFRdvX7wC8yZcLUN0anoQEIOsm3h7SC1TXpgrS9jcR+aJazdf4u+9KVh2gPi+BMYt+7bi13ufx9nqQHOqXCTCUEhAUy1X1RzI9qbRHerGY+sekYp6wPHJ2LzqdwQiL7zxvLyAS746shSTToYxWCkgkoijSkP3Sl1SFkk7IcWxUl9eadkt827EU3eul9G2jMTKZXWo+PloGeFjx7FtXsXFkrZfGNGYWTTyULi2lr+BvvwAPj30GT458gU+OPARwmOiIqQNltKi5tuxgDqg2UIaUyZNwFDfAGrZmhjPlP+cN2kOfrruCczpnoGGUxOIMOX3lliz0F53RiDC+8BIhPuNFoyNqngY2UYeJwdO4f/8p/8LORRQj1ioRRqipjPM5Wg/qbkdVhKV/hJ8+SrWLluDR9bcjwnB8ZpfqBYdhIMRowHqEX+0BN8PIgbfyGit6kFmfEQQIRHt5LkT2PneLmzbtxPVmE/zClbYp89damvr8syK+MOa4bFzDTjnCpjRORWP3P0gVixYpiIjCfnq6HiDT6Tw86yTSAyp2uZzEEga/gby9QK2vrMV23dvlwBzIeKo/W1AxMx6CETcSISb1wXw80CEmXtFdQsdx8qxFZHIjt7Q3wkWXMMqvX3rfo3y+xsB/X23P4GnVz2CG2Zei7gdV3ucJlVS2a9WdXJzXsY8VK243ji0uf85Vde/p4QdX7yP57e9gqOZE/CNiYi92zc4gLFjxqhyzwehdq6EBVfNw5898ieYkboK0aoPQZ8ZTGSkRpIcG6jP7XgJW3a9oXtT89dkiMW1lEhwxXAX2HGIh0NwChVkzmUQQhi3LboVD615EHOTM10nAdKrmAxwyJBninsOuyDiac16oOE9Ye1/VoSoyVefcZZzR94/OvYp/p+N/xO9tX5TII8YXgVPdZLzmC1Rl6T/dD+6gh146qEnsea6VeLx+FmXtirYc+RdPLf5BfTnh9CI+BQVkzB5NjMIf5gHkiWN1zD78vkGGjkHHcE4li+5FQ+uXIvJwW4ElFUa/Y52wGNx+JIg4gYBovS7mjO2JCqrOFs4h9ODPXhlywYcPfutACQ+NgE7FsJAfkCi1STJRUJkV3LWy0K8HkGoHMSi2Qvx6F3rMTM1Xbo59KppBxGVDYaBCCv4DLEDZr6gVKN2RUNt1L5iP57d+CI+OfSZKOAdEztRC0HuY1bQlrUlzYfyZ9OYmByHJ+9/GMuuWQJfsYFkIK7NxfqdNvCPABHebMq2cUqX3JBitQh/iHWDGj49/Al2f/ge9n31qbRA2fZk94KzMjzZ/UG2xQKo0lW9EUR1sKSOET/f3betxqwJU2FX64gGjHyeaRDy1CY93HQKtdlcDhsr3VwX3lg6vG/eugUffv0Jal1+WSxwVN2QxNlSpo2AaclRmYwwpHSJtRDK10k4xn246SKnSV4KNLtK76zutgnUMJpzClV5w0aDceQG8wj7ghI4fvruRzEu1qkRNBbBeHJKDpAFMT4IrEm1pTMmymuBCB8GdRBiwPHBk3jh7Vew9aNdqIRrGHvVeAxm0kjFE9JwoX5Hhx3H8kXLsH7N/egOdCHK4SfWcBgxcsDMx7qZD/uPfYQ3d72NA8e/MhPHQSqSByS1qFkhn0+1jWI+h/RgWrWHG6+9EatvW40FE+YjQm1YVGRPYSI5QybzUhnxefT3l45EdGTRvFpaHHaTCk5QOZXpwb9s+Q8cPPM1svkcwomIWJ7NA6DawGDvAJLhJK6eOhcPrLoPC6csUJ2Canu8Ryfy3+Bfnv9XfHnka1hxP/ypGEpWFf2FDCKJGEKBEKLhGAp9OWR7hzC1c5KmvW9csAizx09HkAr69PMJheDnsFfbF2kPnljQ+VGI+zdKd00pr0yvJLZgxbMqK438/PAXeOudrfj40BcIJCMId0SQKWZRsWpIdCSQHRpERzyhrKFwLoMJ0XF4aNV9WHPLnapr+qrUfQnAz1kJj4PXDiIaOWZYTTrAMBDRWJA0PXoz54Rm733wnvJbDquRhaexATuEXG8Wk7u5MEvwwCp6fo6VjmciEEeD7lws5Jin9KLpjKZYXVFnPbWtQ9O0ozhIV2e9o6SohJg0UB7Eqf7TEv051Xca3509g5xTgD8ahC/C8JoFO/pqhNWDp7DzwlnzsX7VA7h+1nUIcNFJS0/Q7d70wcXg8OpELOLxbxSdmTzEuJiVkHcKeP+DvXhx8ysoRmoKFSUBSd6IJ3PHOpC4OoQI1jZMF2ckiFAAWW/JrotAxICJV4EkDyLMAUbHUi2EjMP0QBqzp8/Gkw88ivnjZiAkw3MYkpbiEB4MDRMOM7wcns0MAxHLqaNAM624jZxdxDufvIeNuzYrlbXCFlIdHcq7071pGUQvmDEfdy1fjZuvW4pQ3Ua8YWZ3qChHtmShVpJ0AutXX3z9Jd7evR2D2bR4L14rV10CtmUlYVDH+LFjsWThEtyy5FZMDk0UGLOtmLBo5WlGAgSERHayipkmctJXhTwTYl0qEiGIjBTdYTrD+sXxzHfY/O6b2P/hB0jnsxJJDnIo0uKUc1kDpMtvXo4VNy3HDdOuZ3kXuaEckqE4bD81fOt4Y/9mvLP3fRzv+U6KdhSy4vQ405mh/iHp2VbzDrqjnViz7Hbcecvt6Ax2opTLYWy0A1HbDKgWS0WlJkxlWCz+ISDC2SJqpiihqNcURTGtqdqmU8a6yVdnDuGd/e/hwwOfSJKC7oHGSymPaCyMarGMcqasLtTyhbfg8XsfxrTEFBQKeemxMhJhI8WULU20Pdx3RkjNQqSJROQo7ypY5+tF/eCXxw/iowOf4sCRr9DT14NawHjN0g938tipuOXGW3Dj1dfhqs4J4kpEraDeuMwR7kjIgIgXjWi5TDrjjRUrZScpzTv622CXi6SqMsNECvDQSLpmFooP9un+0zh26hscOPQVvjn1LQYKGYlC8ySmS3tXolP/zZg4DYuvvgHXzVqADqq+01bQmPXqoTUsPk9H0q05ivhlrEMYqfGW5JwsggE/jvd8g9e2bsYHhz9DlVwxsl7dVi4XWSdIG0/BFFRbznTe7+mApxDWBRClUK5Qr1aqXDU8Fmp9BsLwkWFUa2Dp4qV48v7H0EE+AT12qBTGglwbAjOUbvrVeM5mXknbs3mkaTXV1vx1pWo9mbP48viXePfj9/DFoQOmU2YzLYxg+sSrlG4svv5GPQROsYiuUAKlPLt6PqNS3ihjqJBBKpZSXe1Ez0mc7DmDkydPYmBoULUIxX0uiMyZMwtTJ0/B7Glz0GV3aKOQA0MWL09AnvrtEoAW25zuGslEwz10fgiItGQFLeRyOY3ns2tx4PRBfPX11zjZc1JqY2Qus9BK4tu82XMwf861mDxmArp8jPiMWj1TxXwhDytKsagcPv/6gBTcv/r2iMTCqStCuw1e7+SJkzHnqjlYMPdaLJw9H+NCNOni/LFP3aYwTdFdEOGhwYE8gsil6yHmnKny/hGMTSlRYx7c+yqyUmgctO2saK7nk4MHcODwQZzqPY1MIYdihar3PlRKJUzqnohrZ87HrYtuxoKp18huhFYcHGykVINY3aJhuV3Qlu+MQXDK6vmkmmTQTKciL6pSgB00htPUYDjyzVHZ/bH1Sf8KCjxPnzYXc6bOlHIWe8V2keSzkEJVFWzNsOZ/HkS8dIJHO591VtTYhq46KDhF1zTbtGYZN50rDOCbMye0Yckvoc9oOBxVsXTimAmYPWkmxkbHwMdR9AK5LSEEma+rIWQ4pXrgxKFo019pG+Ki/kndcnT4ZXJDOHH2FL4d7BGhxyhRGT6IPIpdOrb3THsFVcMTMV+sKXEDNKd59V4G1PR6FrVCAjqJZe1RrprujC+IKZOmYs6EmTRHlBiPulE02Gpjx/Ik8x6uVhfM7YvxusV1qyEU8Ymsly1lZJfB1PHQsUM4dOQgent7FWpPHDMJM6fOxLxZVyMR6ECFczc1dlVCqFG+j9ETg69QAP3ZAaQSHfITCtkhpCsZZLM5pRIERL8/qFST//GkMwleVVoxMh8PJjRRWqnUEGSdgGvmcclE5HGjNXfk4vsiEa+oygdasn9kBA8OmgE1y3H1agKyoug516OprlRnJ6KRqEhfjO5ylRyC9QASoahkHfmZaIjOVng8lUC+lseBo4fw9XdH0TvQj0Ktog7Q9OnTMWv6LMy+aga67G5Fo4VMRryLsakxyOey0jiVyrrLmWpPXVqyhxdOaHTI6gwz9hSakWJdUzW2mlQEWSOx6RONBo73nsDnBz7D2f4+BIJ+DKYHEA6GsPCa6zB3+ixMSk5QK7o0lMfE7gma15FYtDt9fkEQ4b8y5PZAhAxOfjGMLFIQNxJEJpdVx4Y6HuQDkCDmtzkvwa3JYfeAVMxTcjCzUMyW1CVA0B30GpHOaLbBVS4Xr1+K1u5EiZfOtHcU3FEINXDEbK6L4ckHLs8QlClO0BC1jLGnGUlnSsbpR9MMs2U9wTkB+sqytch0hzqudYKITm0vz2yBiOpFstNwdHOCkRBKlQIKpQKSyU7NSJhXN+bafG/TdzJ/550m7TjajBaaeMVXMCOJXimt/Xs4VsDXktRwg5GebLeQzgygM5ZAjW1LSf373XtJejXB35VdEIabq/PsUFTz4UlGkSf6vpaLKDtUeAvAF+T8s6P3LDslo21KOT5fUBPBNDAvl2oY19mNci6vh5KUfa5PsjOFwewgkokkzqV7kUyldL/4eXj2EqorZLeqVkQajOmcMApkJyqIkOpHnpJdMOjeFXdBzMeuiWnML43jXyKdaY8+2P1ggcChAAALE0lEQVTgtfLz9vX1qW4WS8Ykj8kHzJC4ahK84r3IlrJmSjpEzk1DU8W1kqNCcCIS1+dmJ40iT6wl+sNBtbhP9Z0VxyeVJNgytU+ZVDhTRCIcQzIYF6nRKVckaUHPXb4+PXL52Qy3yRww3wci3Df0GObkM3+W6oG6zy5RwNRJDKubnUPKlPJOEGZKoPaOLXU0Wm9QSoAUfKaShXQe47vG6LXbQYTcHD2O7bMz5la0vpoPkvtXFBX2bEX5q7gbzRvKj2A2OEtC7MhoMK/9Rd0HX3l/sxhmOAICK2+PeL9pB5GR4Ou2iT0/Fm0n+py6E7j8XGxG6HO6OGAI7YbRyP/8JtByCx7m/T15Qm1G7z295rz3q5sOGPUol6fAGoj4yObLW6fW5zPj7N6X1+X21rhJ1/B+vhkGmb8wH9ObvDECMWI8Ki0yBdOgGYQwdZC29fJMwlu3oh2WWt/I8Q/v3dRadq+PMMLrbAn0mpCSYGsKXK7LntlRZr29grBMuMzfMxI0MZ55f1kruAVRhcfunjDFUwO1I+Q8zVp4e84VxfGuizoZl/oameZ4QsRmlsSkkt7rt2pSUr0x99RV9zdTsGay2KSiZv0l20DFd/3KzpypJxoWlLefuPfMz5qI1PwqBiunxi98ay55Xa1/dGtCzZvvdq/c1+ShrwhZNALz2VqBto4ZMy+m54O6rGaex/ucATc6al//C4JI+6Fvbmbb56dcvRvKmI2ipTUdBS2UuYkEEFb6Wapo7mZ3v8mSQz/npg2Ko83rKIPQdK+X93hP6wXW0Fts71ddvztOrBqbeeQ0K8DIwPVI9Taol1I09Sb4VqwFtV3z94GIHmt3DdrvvUhq7vs3EUrDfHJsch88tysjiwCvHuNhbsv7o337mZvsPsquhJ55CM0O1V1o+pS0lv5SIOLijnlImijj3nSxSk2UZ+6X2eR8gLz71Ez+vB9RMdncTw9IzINpiHbmJhvQ8QCkeXf1V96GazPBbr/97h7xXtP8k9s6/xEgotdxW3CepYQ5HNr2t3s9BjBNd82TGmhegx4At9jlyg3oAGvLij2IU1xK0HFBqHl6ugNtPxAxLvpQtJ7Z9oe3xbfis+A+Kc0z3tzhmhn38HyE26QauQQqqJ4H4heIRC4EIq0P1TL69UoG3i3kz7lkVyEXQaT5gJq9r/+8hR0GIt7mdec6vA3WXKUfA89NVhWBzyjFe+xTLxBqXpd70RKO1mYffhx439dU4m9+sJFnu5est4Ux7S+le+q9mbfS7lOno8wDpbb94YFMM0xvO22H7xHTq237ap0Y7Y9aszvnPsTeD1zoCHQf/CYwaeTXDRkvfeqbFzc1C++LnZ0mIcw7KNowoxX6XeQxakYgLbDxAOs8QLrQI9ZGQvNSg2aKo9Z32zWNPKTcONBIC7gbdeR7DLuW4XF9+3M17OeH3bKRN/SHw4lZB1OLa3507+W8v3TDXxNvmC8PTEy8SBDhl1eCN99z3vPo/qy3v85LZ9o/hGct2nrY3I/XdjO9z6n0QS9OESBSx70jyX1F0bktV/OxVVs10Yp7SRcDkeYudKXQvZyj/Vezhhf+ao9WLnHjPYPkYaCpljNfYPg2MC8z4qZ7x077e7T/aBtunPdBTd/SXMNFQ9pWy/tCbz/y87ROU/NubVjdjDCHRZpmtLr19X17uv2hudh+bwIQwcfbOM3K6Pk/dbH1avtcXtrT+uH2K7vYB7n03zejJO/bLnAPvLTmQimWedoueuMu/uaXEUSMxPdFQIT/0AqFmtunlSwwjfH8F0c6y5gfHlmT+ZEgYq64CXBtoaXOHMnSsUVqyFSmyMAHww3vpfNhvhQeuXTrYbv7UpvRDfu98H/Yr8OWb8SLNDf7+U/F8KBj+Onhha/Df73wBzTpufeQtH3PSPzx/tz+MvoxLkarpmL+ecRpr3ToEl8XiES862u/Mi9NvejD4L5Fa23czflDAWbYs9T2ziqgt6WqF0BLL+252Dnx4yDC/FR7YXXY8jeVh79neUdsj6bVpftjkta80NfIbXcxrDk/1P3Bl6sDgzBgZD6GpVvNB7YJIuZCvIjEnG2eZrL5U/tzYT5++7UNv86LRiLt9ZCLFbf4Rt668o2I1Pw5ox7qhb0GRPjFqrf3gX4wiHg+Gt5yuuF0M6z0NrxbEvLyy/aQzmQ2LNK0h6veQrZv8oufJNrUrYbshYOF9k32fad483q83/AHWMxsFhXOB5GRoNLcYucjU3vtauRObIK3t5P0Dca+0aSpZp2akQw7JG1Dk+2tabM33I037Mlsf3G3ZtHcSMy8z3/gLsyF8OodIzdy682a6eb3BALtxdORayJ+Tltk6UUmFwNa85C5M13NW9j6AO37b1jA2hbFt/+8AtEfumcuAC0jQYTfoqDWPJitFx/htevZXDERIuWhPWjX9HJ7lap5iP3RQcQ4mCs7844TN1dz5WldYjkLsKZA5VZa28ItN+JpKxJ6BUOz0cwkQXvsrSJqs+DnkmLdm+LdHE5utgqPZsu0bxyv6OqdMOcfIAa6RJA6D50NiF4osB65OdpRvvX9LNiRyeaBb1sFq43vMXL/mM/qFSm9reMBQOvztK9WC0TconbzQk1K5RViuabmoDCFc+/A9jaaUfv39qe5I+3XZv7GBSj9fOsQ8dax/Xq87sDwa2z/zvbrbMvVDcI3uzsXeMa+96/MdbZOAW8vaEVH1MjOP6WHq/Vrh7SBwoWwzQC0d39MGsFC6x/yVSUj3H0qhgN92072QMT91UtnWiDiHq4jDhMDJt7nMwVO/Um+OBTbdG/+yAeg+fC5n6FZjGpD0/bD16TUZkFGLpywohmreOmMCyJN23HvBy8MIuc/1K0lVwfG2+zuYzXy87tacM2NbUDEw1rWcUysofe5UHdFY3rtgd3wm+7xFdo3Qvt3tLcYRyZO/CR8dTPR3JYWMYpr/tWIdKYdZFW1diOC5v1pgYj3mYanMl5nrO0T6/jyUlYPRIbfzRaIjLjP7UHUsD3QWmXvnf5zINKizZmH2rxKq+Dnnpjfc5S3T/MOAy8xpodvWrOHvdqN+W6vdNcs7bS9iNKItmUa9gxcZOO29p/7zLT7hvwINGE5wXuJC4JIeyvOLRR7wGn2xfBd2brO1oXxkw47QNtBxAOS9pv0Q65jBEibpOIiYZn53tZjdaEQ7vzXG77tLv6ZzIb3vr4/NGwhbutn2h95Dy6G/9oMri7wQS702S+9FsNfZORNNIBmgLa9RvBD7ov3PSM/U/vn+aGfrfkaIy7+/J//oUWT4RHLpa/HrP/338//zKpc+Hv/c/tn+Gtcap3PZ+60ftb7uZH3pf1+j7z/F/tz8xnWYfh9uZFZVy/qbgKz+9Eu9tOMUkfei7bZmT/8Joy+wugKjK7AlbcCoyBy5d3z0SseXYHLugKjIHJZl3P0xUZX4MpbgVEQufLu+egVj67AZV2BURC5rMs5+mKjK3DlrcAoiFx593z0ikdX4LKuwCiIXNblHH2x0RW48lZgFESuvHs+esWjK3BZV2AURC7rco6+2OgKXHkrMAoiV949H73i0RW4rCswCiKXdTlHX2x0Ba68FRgFkSvvno9e8egKXNYVGAWRy7qcoy82ugJX3gqMgsiVd89Hr3h0BS7rCoyCyGVdztEXG12BK28FRkHkyrvno1c8ugKXdQVGQeSyLufoi42uwJW3AqMgcuXd89ErHl2By7oCoyByWZdz9MVGV+DKW4FRELny7vnoFY+uwGVdgVEQuazLOfpioytw5a3AKIhcefd89IpHV+CyrsD/Dxvqr5NgKQJMAAAAAElFTkSuQmCC;" vertex="1" parent="1">
          <mxGeometry x="350" y="450" width="84.56" height="70" as="geometry" />
        </mxCell>
        <mxCell id="IPHe7rW7irAd3t1fSApu-54" style="edgeStyle=orthogonalEdgeStyle;rounded=0;hachureGap=4;orthogonalLoop=1;jettySize=auto;html=1;fontFamily=Architects Daughter;fontSource=https%3A%2F%2Ffonts.googleapis.com%2Fcss%3Ffamily%3DArchitects%2BDaughter;fontSize=16;" edge="1" parent="1" source="IPHe7rW7irAd3t1fSApu-55" target="IPHe7rW7irAd3t1fSApu-59">
          <mxGeometry relative="1" as="geometry" />
        </mxCell>
        <mxCell id="IPHe7rW7irAd3t1fSApu-55" value="" style="sketch=0;outlineConnect=0;fontColor=#232F3E;gradientColor=none;fillColor=#3F8624;strokeColor=none;dashed=0;verticalLabelPosition=bottom;verticalAlign=top;align=center;html=1;fontSize=12;fontStyle=0;aspect=fixed;pointerEvents=1;shape=mxgraph.aws4.backup_gateway;hachureGap=4;jiggle=2;curveFitting=1;fontFamily=Architects Daughter;fontSource=https%3A%2F%2Ffonts.googleapis.com%2Fcss%3Ffamily%3DArchitects%2BDaughter;" vertex="1" parent="1">
          <mxGeometry x="600" y="446.5" width="78" height="77" as="geometry" />
        </mxCell>
        <mxCell id="IPHe7rW7irAd3t1fSApu-56" value="gateway&lt;br&gt;" style="text;html=1;align=center;verticalAlign=middle;whiteSpace=wrap;rounded=0;fontSize=20;fontFamily=Architects Daughter;fillColor=#f5f5f5;strokeColor=#FFFFFF;fontColor=#333333;dashed=1;dashPattern=1 4;" vertex="1" parent="1">
          <mxGeometry x="539" y="523.5" width="200" height="40" as="geometry" />
        </mxCell>
        <mxCell id="IPHe7rW7irAd3t1fSApu-57" value="LB:请求分发" style="text;html=1;align=center;verticalAlign=middle;whiteSpace=wrap;rounded=0;fontSize=20;fontFamily=Architects Daughter;fillColor=#f5f5f5;strokeColor=#FFFFFF;fontColor=#333333;dashed=1;dashPattern=1 4;" vertex="1" parent="1">
          <mxGeometry x="670" y="436.5" width="123" height="10" as="geometry" />
        </mxCell>
        <mxCell id="IPHe7rW7irAd3t1fSApu-58" value="ip:122.51.216.73&lt;br&gt;port:9000" style="text;html=1;align=center;verticalAlign=middle;whiteSpace=wrap;rounded=0;fontSize=20;fontFamily=Architects Daughter;fillColor=#f5f5f5;strokeColor=#FFFFFF;fontColor=#333333;dashed=1;dashPattern=1 4;" vertex="1" parent="1">
          <mxGeometry x="805" y="405" width="140" height="50" as="geometry" />
        </mxCell>
        <mxCell id="IPHe7rW7irAd3t1fSApu-59" value="starverse主服务" style="rounded=1;whiteSpace=wrap;html=1;sketch=1;hachureGap=4;jiggle=2;curveFitting=1;fontFamily=Architects Daughter;fontSource=https%3A%2F%2Ffonts.googleapis.com%2Fcss%3Ffamily%3DArchitects%2BDaughter;fontSize=20;" vertex="1" parent="1">
          <mxGeometry x="810" y="455" width="120" height="60" as="geometry" />
        </mxCell>
        <mxCell id="IPHe7rW7irAd3t1fSApu-60" value="business service" style="text;html=1;align=center;verticalAlign=middle;whiteSpace=wrap;rounded=0;fontSize=20;fontFamily=Architects Daughter;fillColor=#f5f5f5;strokeColor=#FFFFFF;fontColor=#333333;dashed=1;dashPattern=1 4;" vertex="1" parent="1">
          <mxGeometry x="490" y="300" width="210" height="80" as="geometry" />
        </mxCell>
        <mxCell id="IPHe7rW7irAd3t1fSApu-61" style="edgeStyle=orthogonalEdgeStyle;rounded=0;hachureGap=4;orthogonalLoop=1;jettySize=auto;html=1;fontFamily=Architects Daughter;fontSource=https%3A%2F%2Ffonts.googleapis.com%2Fcss%3Ffamily%3DArchitects%2BDaughter;fontSize=16;startArrow=classic;startFill=1;" edge="1" parent="1" source="IPHe7rW7irAd3t1fSApu-62" target="IPHe7rW7irAd3t1fSApu-63">
          <mxGeometry relative="1" as="geometry" />
        </mxCell>
        <mxCell id="IPHe7rW7irAd3t1fSApu-62" value="mysql" style="sketch=0;outlineConnect=0;fontColor=#232F3E;gradientColor=none;strokeColor=#ffffff;fillColor=#232F3E;dashed=0;verticalLabelPosition=middle;verticalAlign=bottom;align=center;html=1;whiteSpace=wrap;fontSize=10;fontStyle=1;spacing=3;shape=mxgraph.aws4.productIcon;prIcon=mxgraph.aws4.database_migration_service;hachureGap=4;jiggle=2;curveFitting=1;fontFamily=Architects Daughter;fontSource=https%3A%2F%2Ffonts.googleapis.com%2Fcss%3Ffamily%3DArchitects%2BDaughter;" vertex="1" parent="1">
          <mxGeometry x="1270" y="316.5" width="80" height="120" as="geometry" />
        </mxCell>
        <mxCell id="IPHe7rW7irAd3t1fSApu-63" value="" style="image;sketch=0;aspect=fixed;html=1;points=[];align=center;fontSize=12;image=img/lib/mscae/Cache_Redis_Product.svg;hachureGap=4;jiggle=2;curveFitting=1;fontFamily=Architects Daughter;fontSource=https%3A%2F%2Ffonts.googleapis.com%2Fcss%3Ffamily%3DArchitects%2BDaughter;" vertex="1" parent="1">
          <mxGeometry x="1264.5700000000002" y="505" width="90.86" height="76.32" as="geometry" />
        </mxCell>
        <mxCell id="IPHe7rW7irAd3t1fSApu-66" value="LB:请求分发" style="text;html=1;align=center;verticalAlign=middle;whiteSpace=wrap;rounded=0;fontSize=20;fontFamily=Architects Daughter;fillColor=#f5f5f5;strokeColor=#FFFFFF;fontColor=#333333;dashed=1;dashPattern=1 4;" vertex="1" parent="1">
          <mxGeometry x="577.5" y="225" width="123" height="10" as="geometry" />
        </mxCell>
        <mxCell id="IPHe7rW7irAd3t1fSApu-69" value="redis" style="text;html=1;align=center;verticalAlign=middle;whiteSpace=wrap;rounded=0;fontSize=20;fontFamily=Architects Daughter;fillColor=#f5f5f5;strokeColor=#FFFFFF;fontColor=#333333;dashed=1;dashPattern=1 4;" vertex="1" parent="1">
          <mxGeometry x="1254.57" y="581.32" width="115.43" height="28.68" as="geometry" />
        </mxCell>
        <mxCell id="IPHe7rW7irAd3t1fSApu-70" value="database service" style="text;html=1;align=center;verticalAlign=middle;whiteSpace=wrap;rounded=0;fontSize=20;fontFamily=Architects Daughter;fillColor=#f5f5f5;strokeColor=#FFFFFF;fontColor=#333333;dashed=1;dashPattern=1 4;" vertex="1" parent="1">
          <mxGeometry x="1245" y="250" width="140" height="60" as="geometry" />
        </mxCell>
        <mxCell id="IPHe7rW7irAd3t1fSApu-71" value="ws://x.x.x.73/9999" style="text;html=1;align=center;verticalAlign=middle;whiteSpace=wrap;rounded=0;fontSize=20;fontFamily=Architects Daughter;fillColor=#f5f5f5;strokeColor=#FFFFFF;fontColor=#333333;dashed=1;dashPattern=1 4;" vertex="1" parent="1">
          <mxGeometry x="100" y="465" width="200" height="40" as="geometry" />
        </mxCell>
      </root>
    </mxGraphModel>
  </diagram>
</mxfile>
